<?xml version="1.0" encoding="utf-8"?>
<!-- Generator: Adobe Illustrator 18.0.0, SVG Export Plug-In . SVG Version: 6.00 Build 0)  -->
<!DOCTYPE svg PUBLIC "-//W3C//DTD SVG 1.1//EN" "http://www.w3.org/Graphics/SVG/1.1/DTD/svg11.dtd">
<svg version="1.1" id="Layer_1" xmlns="http://www.w3.org/2000/svg" xmlns:xlink="http://www.w3.org/1999/xlink" x="0px" y="0px"
	 viewBox="0 0 100 100" enable-background="new 0 0 100 100" xml:space="preserve">
<g>
	<g>
		<defs>
			<path id="SVGID_37_" d="M13.3,49.7c0.5-20.3,17.6-36.4,38.1-35.9s36.9,17.3,36.4,37.7c-0.5,20.3-17.6,36.4-38.1,35.9
				C29.1,86.9,12.9,70.1,13.3,49.7z"/>
		</defs>
		<use xlink:href="#SVGID_37_"  overflow="visible" fill="#686A6B"/>
		<clipPath id="SVGID_2_">
			<use xlink:href="#SVGID_37_"  overflow="visible"/>
		</clipPath>
		<use xlink:href="#SVGID_37_"  overflow="visible" fill="none" stroke="#A4A7A8" stroke-width="4.9383" stroke-miterlimit="10"/>
	</g>
</g>
<g>
	<defs>
		<path id="SVGID_39_" d="M49.6,86.6c-20-0.5-35.9-16.9-35.5-36.7c0.5-19.8,17.1-35.5,37.2-35c20,0.5,35.9,16.9,35.5,36.7
			S69.6,87,49.6,86.6z M51.2,16.8c-18.9-0.4-34.7,14.4-35.2,33.1c-0.4,18.7,14.6,34.3,33.5,34.7c18.9,0.4,34.7-14.4,35.2-33.1
			S70.2,17.2,51.2,16.8z"/>
	</defs>
	<use xlink:href="#SVGID_39_"  overflow="visible" fill="#7C8080"/>
	<clipPath id="SVGID_4_">
		<use xlink:href="#SVGID_39_"  overflow="visible"/>
	</clipPath>
	<path opacity="0.5" clip-path="url(#SVGID_4_)" fill="#7C8080" d="M19.3,84.4c-18.6-16.9-21-46.6-3.9-65s47.3-18.5,65.9-1.6
		C82.5,18.9,20.5,85.5,19.3,84.4z"/>
</g>
<g>
	<defs>
		<path id="SVGID_41_" d="M49.1,89.3C27.2,88.8,9.7,70.7,10.3,49.1S29,10.2,50.9,10.7c21.9,0.5,39.3,18.5,38.8,40.2
			S71,89.8,49.1,89.3z M50.8,15.6c-19.2-0.4-35.1,14.6-35.6,33.5s14.8,34.7,34,35.2s35.1-14.6,35.6-33.5S70,16.1,50.8,15.6z"/>
	</defs>
	<use xlink:href="#SVGID_41_"  overflow="visible" fill="#CFD2D1"/>
	<clipPath id="SVGID_6_">
		<use xlink:href="#SVGID_41_"  overflow="visible"/>
	</clipPath>
	<path clip-path="url(#SVGID_6_)" fill="#E6E5E4" d="M16.6,82.4C-2.2,65.3-4.6,35.2,12.7,16.6S60.6-2.2,79.4,15
		C80.6,16,17.8,83.5,16.6,82.4z"/>
</g>
<path fill="none" stroke="#989898" stroke-width="1.96" stroke-miterlimit="10" d="M1,48.9C1.7,21.8,24.1,0.4,51.2,1
	S99.6,24.1,99,51.1C98.3,78.2,75.9,99.6,48.8,99C21.8,98.4,0.4,75.9,1,48.9"/>
<path fill="none" stroke="#FFFFFF" stroke-width="1.2037" stroke-miterlimit="10" d="M46.4,71"/>
<path fill="none" stroke="#FFFFFF" stroke-width="1.2008" stroke-miterlimit="10" d="M46.2,70.4"/>
<path fill="none" stroke="#FFFFFF" stroke-width="1.2058" stroke-miterlimit="10" d="M46.2,70.6"/>
<ellipse transform="matrix(-1 -5.356391e-04 5.356391e-04 -1 100.419 101.2413)" fill="#989898" cx="50.2" cy="50.6" rx="34.1" ry="33.7"/>
<g>
	<defs>
		
			<ellipse id="SVGID_43_" transform="matrix(-1 -5.356391e-04 5.356391e-04 -1 99.9732 100.0268)" cx="50" cy="50" rx="34.1" ry="33.7"/>
	</defs>
	<clipPath id="SVGID_8_">
		<use xlink:href="#SVGID_43_"  overflow="visible"/>
	</clipPath>
</g>
<g>
	<defs>
		
			<ellipse id="SVGID_45_" transform="matrix(-1 -5.356391e-04 5.356391e-04 -1 100.419 101.2413)" cx="50.2" cy="50.6" rx="34.1" ry="33.7"/>
	</defs>
	<clipPath id="SVGID_10_">
		<use xlink:href="#SVGID_45_"  overflow="visible"/>
	</clipPath>
	<path clip-path="url(#SVGID_10_)" fill="#A6A5A5" d="M74.2,26.2c0.9,0.8-45.4,51-46.3,50.2c-15.2-12.9-16.7-33.8-3.5-48.2
		C38.7,12.5,63.2,13,74.2,26.2"/>
</g>
<g>
	<path fill="#7E7E7E" d="M58.2,40.5c0-0.6-0.4-1-1-1l-1.9-0.3c-0.2-0.9-0.6-1.7-1-2.4l1.2-1.6c0.4-0.4,0.4-1,0-1.4
		c-1-1.3-2.2-2.5-3.5-3.5c-0.4-0.4-1-0.4-1.4,0l-1.4,1.1c-0.9-0.5-1.9-0.9-2.9-1.2l-0.2-1.7c0-0.6-0.4-1-1-1c-1.6-0.2-3.2-0.2-4.8,0
		c-0.5,0-1,0.5-1,1L39,30.2c-0.9,0.3-1.8,0.7-2.7,1.2l-1.4-1.1c-0.4-0.4-1-0.4-1.4,0c-1.3,1-2.5,2.2-3.5,3.5c-0.4,0.4-0.4,1,0,1.4
		l1.2,1.6c-0.4,0.8-0.7,1.6-0.9,2.4c0,0-0.1,0-0.1,0l-2.1,0.3c-0.5,0-1,0.5-1,1c-0.2,1.7-0.1,3.3,0.1,5c0,0.6,0.5,1,1,1l2,0.3
		c0.1,0,0.1,0,0.1,0c0.3,1.1,0.8,2.1,1.3,3.1l-1,1.4c-0.4,0.4-0.4,1,0,1.4c1,1.3,2.2,2.5,3.5,3.5c0.4,0.4,1,0.4,1.4,0l1.5-1.2
		c0.8,0.4,1.6,0.7,2.4,0.9l0.2,2c0,0.6,0.4,1,1,1c1.6,0.2,3.2,0.2,4.8,0c0.5,0,1-0.5,1-1l0.3-2c0,0,0-0.1,0-0.1
		c0.8-0.3,1.6-0.6,2.4-1c0,0,0,0.1,0.1,0.1l1.6,1.2c0.4,0.4,1,0.4,1.4,0c1.3-1,2.5-2.2,3.5-3.5c0.4-0.4,0.4-1,0-1.4l-1.3-1.8
		c0,0,0,0,0,0c0.4-0.8,0.8-1.7,1.1-2.7l1.8-0.3c0.5,0,1-0.4,1-1C58.4,43.8,58.4,42.1,58.2,40.5z M42.9,52.1c-4.7,0-8.5-3.9-8.5-8.8
		c0-4.8,3.8-8.8,8.5-8.8s8.5,3.9,8.5,8.8C51.5,48.2,47.7,52.1,42.9,52.1z"/>
	<path fill="#7E7E7E" d="M75.7,52.6c-0.1-1-0.3-2-0.7-3c-0.1-0.3-0.4-0.5-0.7-0.5l-1.1,0.1c-0.3-0.6-0.7-1.1-1.1-1.7l0.5-1
		c0.2-0.3,0.1-0.7-0.2-0.9c-0.8-0.7-1.6-1.2-2.5-1.7c-0.3-0.2-0.7-0.1-0.8,0.2l-0.7,0.8c-0.6-0.2-1.2-0.3-1.8-0.3L66,43.7
		c-0.1-0.3-0.4-0.5-0.7-0.5c-1,0.1-2,0.3-2.9,0.6c-0.3,0.1-0.5,0.4-0.5,0.7l0.1,1.3c-0.5,0.3-0.9,0.6-1.3,0.9c0,0,0,0,0,0l-1.2-0.6
		c-0.3-0.2-0.7-0.1-0.8,0.2C58,47.2,57.5,48,57.1,49c-0.2,0.3-0.1,0.7,0.2,0.9l0.9,0.8c0,0,0.1,0,0.1,0c-0.2,0.7-0.3,1.4-0.3,2
		l-1,0.4c-0.3,0.1-0.5,0.4-0.4,0.7c0.1,1,0.3,2,0.7,3c0.1,0.3,0.4,0.5,0.7,0.5l1.2-0.1c0.3,0.5,0.6,0.9,0.9,1.3l-0.5,1.1
		c-0.2,0.3-0.1,0.7,0.2,0.9c0.8,0.7,1.6,1.2,2.5,1.7c0.3,0.2,0.7,0.1,0.8-0.2l0.8-0.9c0,0,0,0,0-0.1c0.5,0.1,1,0.2,1.6,0.3
		c0,0,0,0,0,0.1l0.4,1.2c0.1,0.3,0.4,0.5,0.7,0.5c1-0.1,2-0.3,2.9-0.6c0.3-0.1,0.5-0.4,0.5-0.7l-0.1-1.4c0,0,0,0,0,0
		c0.5-0.3,1-0.6,1.4-1l1,0.5c0.3,0.2,0.6,0.1,0.8-0.2c0.7-0.8,1.2-1.6,1.6-2.6c0.2-0.3,0.1-0.7-0.2-0.9l-0.9-0.8
		c0.2-0.5,0.2-1.1,0.3-1.6l1.2-0.4C75.5,53.2,75.7,52.9,75.7,52.6z M66.1,58c-2.8,0-5.1-2.3-5.1-5.2c0-2.9,2.3-5.2,5.1-5.2
		c2.8,0,5.1,2.3,5.1,5.2C71.2,55.7,68.9,58,66.1,58z"/>
	<path fill="#7E7E7E" d="M61.7,65.6c-0.2-1-0.5-2-0.9-2.9c-0.1-0.3-0.4-0.5-0.8-0.4L59,62.4c-0.3-0.6-0.7-1.1-1.2-1.6l0.4-1
		c0.2-0.3,0.1-0.7-0.2-0.8c-0.8-0.6-1.7-1.1-2.6-1.5c-0.3-0.2-0.7-0.1-0.8,0.2l-0.7,0.9c-0.6-0.1-1.2-0.2-1.8-0.2l-0.5-1
		c-0.1-0.3-0.4-0.5-0.7-0.4c-1,0.1-2,0.4-2.9,0.8c-0.3,0.1-0.5,0.4-0.4,0.8l0.2,1.3c-0.4,0.3-0.8,0.6-1.2,1c0,0,0,0,0,0l-1.2-0.5
		c-0.3-0.2-0.7,0-0.8,0.3c-0.6,0.8-1,1.8-1.4,2.7c-0.2,0.3,0,0.7,0.3,0.8l1,0.8c0,0,0.1,0,0.1,0c-0.1,0.7-0.2,1.4-0.2,2.1l-1,0.4
		c-0.3,0.1-0.5,0.4-0.4,0.8c0.2,1,0.5,2,0.9,2.9c0.1,0.3,0.4,0.5,0.8,0.4l1.1-0.2c0.3,0.4,0.6,0.9,1,1.2L46,73.9
		c-0.2,0.3-0.1,0.7,0.2,0.8c0.8,0.6,1.7,1.1,2.6,1.5c0.3,0.2,0.7,0.1,0.8-0.2l0.8-1c0,0,0,0,0-0.1c0.5,0.1,1.1,0.2,1.6,0.2
		c0,0,0,0,0,0.1l0.5,1.1c0.1,0.3,0.4,0.5,0.7,0.4c1-0.1,2-0.4,2.9-0.8c0.3-0.1,0.5-0.4,0.4-0.8l-0.2-1.4c0,0,0,0,0,0
		c0.5-0.3,0.9-0.7,1.4-1.1l1.1,0.4c0.3,0.2,0.7,0.1,0.8-0.2c0.6-0.8,1.1-1.7,1.5-2.7c0.2-0.3,0.1-0.7-0.2-0.8l-1-0.7
		c0.1-0.5,0.2-1.1,0.2-1.6l1.1-0.5C61.6,66.3,61.8,66,61.7,65.6z M52.2,71.8c-2.8,0-5.1-2.3-5.1-5.2s2.3-5.2,5.1-5.2
		c2.8,0,5.1,2.3,5.1,5.2S55,71.8,52.2,71.8z"/>
</g>
<g>
	<path fill="#F3F3F3" d="M57.7,40.1c0-0.6-0.4-1-1-1l-1.9-0.3c-0.2-0.9-0.6-1.7-1-2.4l1.2-1.6c0.4-0.4,0.4-1,0-1.4
		c-1-1.3-2.2-2.5-3.5-3.5c-0.4-0.4-1-0.4-1.4,0L48.8,31c-0.9-0.5-1.9-0.9-2.9-1.2L45.6,28c0-0.6-0.4-1-1-1c-1.6-0.2-3.2-0.2-4.8,0
		c-0.5,0-1,0.5-1,1l-0.3,1.8c-0.9,0.3-1.8,0.7-2.7,1.2L34.4,30c-0.4-0.4-1-0.4-1.4,0c-1.3,1-2.5,2.2-3.5,3.5c-0.4,0.4-0.4,1,0,1.4
		l1.2,1.6c-0.4,0.8-0.7,1.6-0.9,2.4c0,0-0.1,0-0.1,0l-2.1,0.3c-0.5,0-1,0.5-1,1c-0.2,1.7-0.1,3.3,0.1,5c0,0.6,0.5,1,1,1l2,0.3
		c0.1,0,0.1,0,0.1,0c0.3,1.1,0.8,2.1,1.3,3.1l-1,1.4c-0.4,0.4-0.4,1,0,1.4c1,1.3,2.2,2.5,3.5,3.5c0.4,0.4,1,0.4,1.4,0l1.5-1.2
		c0.8,0.4,1.6,0.7,2.4,0.9l0.2,2c0,0.6,0.4,1,1,1c1.6,0.2,3.2,0.2,4.8,0c0.5,0,1-0.5,1-1l0.3-2c0,0,0-0.1,0-0.1
		c0.8-0.3,1.6-0.6,2.4-1c0,0,0,0.1,0.1,0.1l1.6,1.2c0.4,0.4,1,0.4,1.4,0c1.3-1,2.5-2.2,3.5-3.5c0.4-0.4,0.4-1,0-1.4l-1.3-1.8
		c0,0,0,0,0,0c0.4-0.8,0.8-1.7,1.1-2.7l1.8-0.3c0.5,0,1-0.4,1-1C57.9,43.4,57.9,41.7,57.7,40.1z M42.5,51.7c-4.7,0-8.5-3.9-8.5-8.8
		c0-4.8,3.8-8.8,8.5-8.8s8.5,3.9,8.5,8.8C51,47.8,47.2,51.7,42.5,51.7z"/>
	<path fill="#F3F3F3" d="M75.2,52.2c-0.1-1-0.3-2-0.7-3c-0.1-0.3-0.4-0.5-0.7-0.5l-1.1,0.1c-0.3-0.6-0.7-1.1-1.1-1.7l0.5-1
		c0.2-0.3,0.1-0.7-0.2-0.9c-0.8-0.7-1.6-1.2-2.5-1.7c-0.3-0.2-0.7-0.1-0.8,0.2l-0.7,0.8c-0.6-0.2-1.2-0.3-1.8-0.3l-0.4-1.1
		c-0.1-0.3-0.4-0.5-0.7-0.5c-1,0.1-2,0.3-2.9,0.6c-0.3,0.1-0.5,0.4-0.5,0.7l0.1,1.3c-0.5,0.3-0.9,0.6-1.3,0.9c0,0,0,0,0,0l-1.2-0.6
		c-0.3-0.2-0.7-0.1-0.8,0.2c-0.6,0.8-1.2,1.7-1.6,2.6c-0.2,0.3-0.1,0.7,0.2,0.9l0.9,0.8c0,0,0.1,0,0.1,0c-0.2,0.7-0.3,1.4-0.3,2
		l-1,0.4c-0.3,0.1-0.5,0.4-0.4,0.7c0.1,1,0.3,2,0.7,3c0.1,0.3,0.4,0.5,0.7,0.5l1.2-0.1c0.3,0.5,0.6,0.9,0.9,1.3l-0.5,1.1
		c-0.2,0.3-0.1,0.7,0.2,0.9c0.8,0.7,1.6,1.2,2.5,1.7c0.3,0.2,0.7,0.1,0.8-0.2l0.8-0.9c0,0,0,0,0-0.1c0.5,0.1,1,0.2,1.6,0.3
		c0,0,0,0,0,0.1l0.4,1.2c0.1,0.3,0.4,0.5,0.7,0.5c1-0.1,2-0.3,2.9-0.6c0.3-0.1,0.5-0.4,0.5-0.7l-0.1-1.4c0,0,0,0,0,0
		c0.5-0.3,1-0.6,1.4-1l1,0.5c0.3,0.2,0.6,0.1,0.8-0.2c0.7-0.8,1.2-1.6,1.6-2.6c0.2-0.3,0.1-0.7-0.2-0.9l-0.9-0.8
		c0.2-0.5,0.2-1.1,0.3-1.6l1.2-0.4C75.1,52.8,75.3,52.5,75.2,52.2z M65.7,57.6c-2.8,0-5.1-2.3-5.1-5.2c0-2.9,2.3-5.2,5.1-5.2
		c2.8,0,5.1,2.3,5.1,5.2C70.8,55.3,68.5,57.6,65.7,57.6z"/>
	<path fill="#F3F3F3" d="M61.2,65.2c-0.2-1-0.5-2-0.9-2.9c-0.1-0.3-0.4-0.5-0.8-0.4L58.5,62c-0.3-0.6-0.7-1.1-1.2-1.6l0.4-1
		c0.2-0.3,0.1-0.7-0.2-0.8c-0.8-0.6-1.7-1.1-2.6-1.5c-0.3-0.2-0.7-0.1-0.8,0.2l-0.7,0.9c-0.6-0.1-1.2-0.2-1.8-0.2l-0.5-1
		c-0.1-0.3-0.4-0.5-0.7-0.4c-1,0.1-2,0.4-2.9,0.8c-0.3,0.1-0.5,0.4-0.4,0.8l0.2,1.3c-0.4,0.3-0.8,0.6-1.2,1c0,0,0,0,0,0L44.7,60
		c-0.3-0.2-0.7,0-0.8,0.3c-0.6,0.8-1,1.8-1.4,2.7c-0.2,0.3,0,0.7,0.3,0.8l1,0.8c0,0,0.1,0,0.1,0c-0.1,0.7-0.2,1.4-0.2,2.1l-1,0.4
		c-0.3,0.1-0.5,0.4-0.4,0.8c0.2,1,0.5,2,0.9,2.9c0.1,0.3,0.4,0.5,0.8,0.4l1.1-0.2c0.3,0.4,0.6,0.9,1,1.2l-0.5,1.2
		c-0.2,0.3-0.1,0.7,0.2,0.8c0.8,0.6,1.7,1.1,2.6,1.5c0.3,0.2,0.7,0.1,0.8-0.2l0.8-1c0,0,0,0,0-0.1c0.5,0.1,1.1,0.2,1.6,0.2
		c0,0,0,0,0,0.1l0.5,1.1c0.1,0.3,0.4,0.5,0.7,0.4c1-0.1,2-0.4,2.9-0.8c0.3-0.1,0.5-0.4,0.4-0.8L56,73.4c0,0,0,0,0,0
		c0.5-0.3,0.9-0.7,1.4-1.1l1.1,0.4c0.3,0.2,0.7,0.1,0.8-0.2c0.6-0.8,1.1-1.7,1.5-2.7c0.2-0.3,0.1-0.7-0.2-0.8l-1-0.7
		c0.1-0.5,0.2-1.1,0.2-1.6l1.1-0.5C61.2,65.9,61.3,65.6,61.2,65.2z M51.7,71.4c-2.8,0-5.1-2.3-5.1-5.2c0-2.9,2.3-5.2,5.1-5.2
		s5.1,2.3,5.1,5.2C56.8,69,54.5,71.4,51.7,71.4z"/>
</g>
</svg>
