<?xml version="1.0" encoding="utf-8"?>
<!-- Generator: Adobe Illustrator 18.0.0, SVG Export Plug-In . SVG Version: 6.00 Build 0)  -->
<!DOCTYPE svg PUBLIC "-//W3C//DTD SVG 1.1//EN" "http://www.w3.org/Graphics/SVG/1.1/DTD/svg11.dtd">
<svg version="1.1" id="Layer_1" xmlns="http://www.w3.org/2000/svg" xmlns:xlink="http://www.w3.org/1999/xlink" x="0px" y="0px"
	 viewBox="0 0 117 117" enable-background="new 0 0 117 117" xml:space="preserve">
<g>
	<g>
		<defs>
			<path id="SVGID_1_" d="M20,57.9c0.5-20.7,18.4-37.1,40-36.7s38.7,17.7,38.2,38.4c-0.5,20.7-18.4,37.1-40,36.7
				C36.6,95.8,19.5,78.6,20,57.9z"/>
		</defs>
		<use xlink:href="#SVGID_1_"  overflow="visible" fill="#67696B"/>
		<clipPath id="SVGID_2_">
			<use xlink:href="#SVGID_1_"  overflow="visible"/>
		</clipPath>
		<use xlink:href="#SVGID_1_"  overflow="visible" fill="none" stroke="#A3A6A7" stroke-width="5.1083" stroke-miterlimit="10"/>
	</g>
</g>
<ellipse transform="matrix(-1 -5.206187e-04 5.206187e-04 -1 117.4377 117.5173)" fill="#C3B9AE" cx="58.7" cy="58.7" rx="35.8" ry="34.4"/>
<g>
	<path fill="#625D57" d="M41.1,79.1c-1.6,1.6-7.1,7.1-8.6,8.6c-1.1-1.1-2.1-2.1-3.2-3.1c1.5-1.5,7-6.9,8.6-8.6
		c-0.3-0.3-0.6-0.4-0.8-0.7c-1.2-1.3-1.2-3.2,0-4.5c0.6-0.6,1.2-1.3,1.9-1.9c0.3-0.3,0.4-0.5,0.3-0.9c0-2.1,0-4.2,0-6.3
		c0-1,0.3-1.8,1-2.4c2-2,4.1-4.1,6.1-6.1c1.5-1.5,3.2-1.5,4.7,0c0.1,0.1,0.2,0.2,0.3,0.3c0.7-0.6,1.3-1.3,2-2
		c-0.1-0.1-0.4-0.2-0.6-0.4c-1.2-1.2-1.2-3,0-4.2c2.1-2.2,4.3-4.3,6.5-6.5c0.6-0.6,1.3-0.9,2.2-0.9c2.1,0,4.3,0,6.4,0
		c0.3,0,0.6-0.1,0.8-0.3c0.6-0.6,1.2-1.2,1.9-1.8c1.4-1.3,3.2-1.3,4.6,0c0.2,0.2,0.4,0.4,0.5,0.6c1.6-1.6,7.1-7.1,8.6-8.6
		c1.1,1.1,2.1,2.1,3.2,3.2c-1.5,1.5-7,6.9-8.6,8.6c0.3,0.2,0.5,0.4,0.7,0.6c1.3,1.3,1.3,3.2,0,4.5c-0.6,0.6-1.2,1.3-1.9,1.9
		c-0.3,0.3-0.4,0.5-0.3,0.9c0,2.1,0,4.2,0,6.3c0,1-0.3,1.8-1,2.4c-2,2-4.1,4.1-6.1,6.1c-1.5,1.5-3.2,1.5-4.7,0
		c-0.1-0.1-0.2-0.2-0.5-0.4c-0.3,0.4-0.6,0.7-0.9,1.1c-0.3,0.3-0.6,0.6-1.1,1.1c0.3,0.2,0.5,0.3,0.6,0.4c1.3,1.3,1.3,3.1,0,4.4
		c-2.1,2.1-4.2,4.2-6.3,6.4c-0.6,0.6-1.4,0.9-2.3,0.9c-2.1,0-4.2,0-6.3,0c-0.3,0-0.6,0.1-0.8,0.3c-0.6,0.6-1.2,1.2-1.9,1.9
		c-1.4,1.3-3.3,1.3-4.6,0C41.4,79.6,41.3,79.4,41.1,79.1z M55.9,54c-0.6,0.6-1.3,1.3-1.9,1.9c2.4,2.4,4.8,4.8,7.1,7.1
		c0.6-0.6,1.3-1.3,1.9-1.9C60.6,58.8,58.2,56.4,55.9,54z"/>
</g>
<path opacity="0.3" fill="#FFFFFF" d="M34.3,83.9c-13.8-12.2-15.6-34-2.5-47.8c16.5-17.3,39.8-13.2,51.3-2.4
	C83.2,33.6,36.7,81.4,34.3,83.9z"/>
<path fill="none" stroke="#FFFFFF" stroke-width="1.2451" stroke-miterlimit="10" d="M54.7,79.5"/>
<path fill="none" stroke="#FFFFFF" stroke-width="1.2422" stroke-miterlimit="10" d="M54.5,78.9"/>
<path fill="none" stroke="#FFFFFF" stroke-width="1.2473" stroke-miterlimit="10" d="M54.6,79.1"/>
<path fill="none" stroke="#C3B9AE" stroke-width="2.276" stroke-miterlimit="10" d="M6.2,57.3C6.9,28.4,30.8,5.6,59.7,6.2
	s51.7,24.6,51.1,53.5c-0.7,28.9-24.6,51.7-53.5,51.1C28.4,110.1,5.6,86.2,6.2,57.3z"/>
<g>
	<defs>
		<path id="SVGID_3_" d="M12.3,97.1c0,0,1.6,2,3.2,3.6s3.5,3.4,3.5,3.4l11.6-10.7c0,0-3.8-3-6.7-7L12.3,97.1z"/>
	</defs>
	<clipPath id="SVGID_4_">
		<use xlink:href="#SVGID_3_"  overflow="visible"/>
	</clipPath>
	<polygon clip-path="url(#SVGID_4_)" fill="#D9D9D9" points="14.3,99.5 11.9,96.9 23.5,85.9 26,88.5 	"/>
	<polygon clip-path="url(#SVGID_4_)" fill="#C6C5C6" points="16.8,102 14.3,99.5 26,88.5 28.4,91 	"/>
	<polygon clip-path="url(#SVGID_4_)" fill="#B1B1B1" points="19.2,104.6 16.8,102 28.4,91 30.9,93.6 	"/>
</g>
<g>
	<defs>
		<path id="SVGID_5_" d="M58.1,95.4C37,95,20.3,78.1,20.8,58s18-36.2,39-35.7c21,0.5,37.7,17.3,37.2,37.5
			C96.6,79.9,79.1,95.9,58.1,95.4z M59.8,24.2C39.9,23.8,23.4,38.9,22.9,58c-0.5,19.1,15.3,35,35.2,35.4C78,93.9,94.5,78.7,95,59.6
			C95.4,40.6,79.7,24.7,59.8,24.2z"/>
	</defs>
	<use xlink:href="#SVGID_5_"  overflow="visible" fill="#7C7F80"/>
	<clipPath id="SVGID_6_">
		<use xlink:href="#SVGID_5_"  overflow="visible"/>
	</clipPath>
	<path opacity="0.5" clip-path="url(#SVGID_6_)" fill="#7C7F80" d="M26.3,93.2C6.8,76,4.3,45.7,22.3,26.9S71.9,8,91.4,25.3
		C92.6,26.4,27.5,94.3,26.3,93.2z"/>
</g>
<g>
	<defs>
		
			<ellipse id="SVGID_7_" transform="matrix(-1 -5.206187e-04 5.206187e-04 -1 116.9701 116.2786)" cx="58.5" cy="58.1" rx="35.8" ry="34.4"/>
	</defs>
	<clipPath id="SVGID_8_">
		<use xlink:href="#SVGID_7_"  overflow="visible"/>
	</clipPath>
</g>
<g>
	<defs>
		<path id="SVGID_9_" d="M57.5,98.2c-23-0.5-41.3-18.9-40.7-41s19.7-39.6,42.7-39.1c23,0.5,41.3,18.9,40.7,41S80.5,98.7,57.5,98.2z
			 M59.4,23.1C39.2,22.6,22.5,38,22,57.3c-0.5,19.3,15.5,35.4,35.6,35.9C77.8,93.6,94.5,78.3,95,58.9C95.5,39.6,79.5,23.5,59.4,23.1
			z"/>
	</defs>
	<use xlink:href="#SVGID_9_"  overflow="visible" fill="#CED0D0"/>
	<clipPath id="SVGID_10_">
		<use xlink:href="#SVGID_9_"  overflow="visible"/>
	</clipPath>
	<path clip-path="url(#SVGID_10_)" fill="#E5E4E2" d="M23.5,91.2C3.7,73.7,1.2,43.1,19.4,24.1s50.2-19.1,70-1.7
		C90.6,23.5,24.7,92.3,23.5,91.2z"/>
</g>
</svg>
