<?xml version="1.0" encoding="utf-8"?>
<!-- Generator: Adobe Illustrator 18.0.0, SVG Export Plug-In . SVG Version: 6.00 Build 0)  -->
<!DOCTYPE svg PUBLIC "-//W3C//DTD SVG 1.1//EN" "http://www.w3.org/Graphics/SVG/1.1/DTD/svg11.dtd">
<svg version="1.1" id="Layer_1" xmlns="http://www.w3.org/2000/svg" xmlns:xlink="http://www.w3.org/1999/xlink" x="0px" y="0px"
	 viewBox="0 0 100 100" enable-background="new 0 0 100 100" xml:space="preserve">
<g>
	<g>
		<defs>
			<path id="SVGID_1_" d="M14.1,49.8c0.5-19.9,17.2-35.7,37.4-35.2s36.1,17,35.7,36.9c-0.5,19.9-17.2,35.7-37.4,35.2
				S13.6,69.7,14.1,49.8z"/>
		</defs>
		<use xlink:href="#SVGID_1_"  overflow="visible" fill="#706F6F"/>
		<clipPath id="SVGID_2_">
			<use xlink:href="#SVGID_1_"  overflow="visible"/>
		</clipPath>
		<use xlink:href="#SVGID_1_"  overflow="visible" fill="none" stroke="#B1B1B1" stroke-width="4.8396" stroke-miterlimit="10"/>
	</g>
</g>
<g>
	<ellipse fill="#9ED5E0" cx="50.2" cy="50.6" rx="33.4" ry="33"/>
	<g>
		
			<line opacity="0.28" fill="none" stroke="#FFFFFF" stroke-width="0.4053" stroke-miterlimit="10" x1="16.7" y1="51.8" x2="83.6" y2="51.8"/>
		
			<line opacity="0.28" fill="none" stroke="#FFFFFF" stroke-width="0.4053" stroke-miterlimit="10" x1="17.6" y1="43" x2="83" y2="43"/>
		
			<line opacity="0.28" fill="none" stroke="#FFFFFF" stroke-width="0.4053" stroke-miterlimit="10" x1="16.8" y1="47.5" x2="83.4" y2="47.5"/>
		
			<line opacity="0.28" fill="none" stroke="#FFFFFF" stroke-width="0.4053" stroke-miterlimit="10" x1="19.9" y1="64.7" x2="80.4" y2="64.7"/>
		
			<line opacity="0.28" fill="none" stroke="#FFFFFF" stroke-width="0.4053" stroke-miterlimit="10" x1="17" y1="55.9" x2="83.6" y2="55.9"/>
		
			<line opacity="0.28" fill="none" stroke="#FFFFFF" stroke-width="0.4053" stroke-miterlimit="10" x1="18.2" y1="60.4" x2="82.1" y2="60.4"/>
		
			<line opacity="0.28" fill="none" stroke="#FFFFFF" stroke-width="0.4053" stroke-miterlimit="10" x1="29.9" y1="76.9" x2="70.4" y2="76.9"/>
		
			<line opacity="0.28" fill="none" stroke="#FFFFFF" stroke-width="0.4053" stroke-miterlimit="10" x1="20.9" y1="68" x2="78.5" y2="68"/>
		
			<line opacity="0.28" fill="none" stroke="#FFFFFF" stroke-width="0.4053" stroke-miterlimit="10" x1="25.1" y1="72.5" x2="75.1" y2="72.5"/>
		
			<line opacity="0.28" fill="none" stroke="#FFFFFF" stroke-width="0.4053" stroke-miterlimit="10" x1="18.6" y1="39.5" x2="81.6" y2="39.5"/>
		
			<line opacity="0.28" fill="none" stroke="#FFFFFF" stroke-width="0.4053" stroke-miterlimit="10" x1="23.4" y1="30.7" x2="76.8" y2="30.7"/>
		
			<line opacity="0.28" fill="none" stroke="#FFFFFF" stroke-width="0.4053" stroke-miterlimit="10" x1="20.2" y1="35.2" x2="79.7" y2="35.2"/>
		
			<line opacity="0.28" fill="none" stroke="#FFFFFF" stroke-width="0.4053" stroke-miterlimit="10" x1="26" y1="27.7" x2="74.2" y2="27.7"/>
		
			<line opacity="0.28" fill="none" stroke="#FFFFFF" stroke-width="0.4053" stroke-miterlimit="10" x1="40.8" y1="18.9" x2="60" y2="18.9"/>
		
			<line opacity="0.28" fill="none" stroke="#FFFFFF" stroke-width="0.4053" stroke-miterlimit="10" x1="30.9" y1="23.4" x2="69.8" y2="23.4"/>
		
			<line opacity="0.28" fill="none" stroke="#FFFFFF" stroke-width="0.4053" stroke-miterlimit="10" x1="39.1" y1="82" x2="60.8" y2="82"/>
		<path opacity="0.28" fill="none" stroke="#FFFFFF" stroke-width="0.4053" stroke-miterlimit="10" d="M83,86.5"/>
		<path opacity="0.28" fill="none" stroke="#FFFFFF" stroke-width="0.4053" stroke-miterlimit="10" d="M21.1,86.5"/>
		
			<line opacity="0.28" fill="none" stroke="#FFFFFF" stroke-width="0.4053" stroke-miterlimit="10" x1="49" y1="17.6" x2="49" y2="83.6"/>
		
			<line opacity="0.28" fill="none" stroke="#FFFFFF" stroke-width="0.4053" stroke-miterlimit="10" x1="58" y1="18.5" x2="58" y2="83.1"/>
		
			<line opacity="0.28" fill="none" stroke="#FFFFFF" stroke-width="0.4053" stroke-miterlimit="10" x1="53.4" y1="17.7" x2="53.4" y2="83.5"/>
		
			<line opacity="0.28" fill="none" stroke="#FFFFFF" stroke-width="0.4053" stroke-miterlimit="10" x1="36" y1="20.7" x2="36" y2="80.5"/>
		
			<line opacity="0.28" fill="none" stroke="#FFFFFF" stroke-width="0.4053" stroke-miterlimit="10" x1="44.9" y1="17.9" x2="44.9" y2="83.6"/>
		
			<line opacity="0.28" fill="none" stroke="#FFFFFF" stroke-width="0.4053" stroke-miterlimit="10" x1="40.4" y1="19" x2="40.4" y2="82.2"/>
		
			<line opacity="0.28" fill="none" stroke="#FFFFFF" stroke-width="0.4053" stroke-miterlimit="10" x1="23.7" y1="30.6" x2="23.7" y2="70.6"/>
		
			<line opacity="0.28" fill="none" stroke="#FFFFFF" stroke-width="0.4053" stroke-miterlimit="10" x1="32.6" y1="21.8" x2="32.6" y2="78.6"/>
		
			<line opacity="0.28" fill="none" stroke="#FFFFFF" stroke-width="0.4053" stroke-miterlimit="10" x1="28" y1="25.9" x2="28" y2="75.3"/>
		
			<line opacity="0.28" fill="none" stroke="#FFFFFF" stroke-width="0.4053" stroke-miterlimit="10" x1="61.5" y1="19.5" x2="61.5" y2="81.7"/>
		
			<line opacity="0.28" fill="none" stroke="#FFFFFF" stroke-width="0.4053" stroke-miterlimit="10" x1="70.4" y1="24.2" x2="70.4" y2="76.9"/>
		
			<line opacity="0.28" fill="none" stroke="#FFFFFF" stroke-width="0.4053" stroke-miterlimit="10" x1="65.9" y1="21" x2="65.9" y2="79.8"/>
		
			<line opacity="0.28" fill="none" stroke="#FFFFFF" stroke-width="0.4053" stroke-miterlimit="10" x1="73.4" y1="26.8" x2="73.4" y2="74.4"/>
		
			<line opacity="0.28" fill="none" stroke="#FFFFFF" stroke-width="0.4053" stroke-miterlimit="10" x1="82.4" y1="41.4" x2="82.4" y2="60.4"/>
		
			<line opacity="0.28" fill="none" stroke="#FFFFFF" stroke-width="0.4053" stroke-miterlimit="10" x1="77.8" y1="31.6" x2="77.8" y2="70"/>
		
			<line opacity="0.28" fill="none" stroke="#FFFFFF" stroke-width="0.4053" stroke-miterlimit="10" x1="18.4" y1="39.7" x2="18.4" y2="61.2"/>
	</g>
</g>
<path fill="none" stroke="#F0888E" stroke-width="2" stroke-miterlimit="10" d="M1,48.9C1.6,21.8,24.1,0.4,51.1,1s48.5,23,47.8,50.1
	C98.4,78.2,75.9,99.6,48.9,99C21.8,98.4,0.4,75.9,1,48.9"/>
<polygon opacity="0.5" fill="#1D1D1B" points="17.5,88 18.8,86.5 19.8,87.3 18.3,88.7 "/>
<g>
	<defs>
		<path id="SVGID_3_" d="M6.7,86.2c0,0,1.5,1.9,3,3.4c1.5,1.5,3.3,3.2,3.3,3.2l10.9-10.1c0,0-3.6-2.8-6.3-6.6L6.7,86.2z"/>
	</defs>
	<clipPath id="SVGID_4_">
		<use xlink:href="#SVGID_3_"  overflow="visible"/>
	</clipPath>
	<polygon clip-path="url(#SVGID_4_)" fill="#D9D9D9" points="8.6,88.4 6.3,86 17.2,75.7 19.5,78.1 	"/>
	<polygon clip-path="url(#SVGID_4_)" fill="#C6C5C6" points="10.9,90.8 8.6,88.4 19.5,78.1 21.8,80.5 	"/>
	<polygon clip-path="url(#SVGID_4_)" fill="#B1B1B1" points="13.2,93.2 10.9,90.8 21.8,80.5 24.1,82.9 	"/>
</g>
<path fill="none" stroke="#FFFFFF" stroke-width="1.1796" stroke-miterlimit="10" d="M46.5,70.5"/>
<path fill="none" stroke="#FFFFFF" stroke-width="1.1768" stroke-miterlimit="10" d="M46.3,69.9"/>
<path fill="none" stroke="#FFFFFF" stroke-width="1.1817" stroke-miterlimit="10" d="M46.3,70.2"/>
<path fill="#E9535A" d="M62.7,32.6v21.1v0.6v3.5l0,1l-0.6,22.2c5.3-1.7,11.7-5.3,16.5-11.5v-37H62.7z"/>
<path fill="#E9535A" d="M43.9,43.5v17.9l0,21.5c-0.2,0.4,11.4,1.7,15.9-0.5V60v-0.2V43.5H43.9z"/>
<path fill="#E9535A" d="M41,55H25.1v14.6L25,71.4c1,3.7,7.9,8.7,16,11V62.7l0,0V55z"/>
<path opacity="0.5" fill="#FFFFFF" d="M80.6,27.9c1.1,1-49.2,55.1-50.3,54.1c-17-15.4-20.6-41-6.7-56S63.6,12.4,80.6,27.9"/>
<path fill="#F0888F" d="M33,54.9h-8v14.6L25,71.3c0.5,3.7,8,7.8,8,7.8l0-16.6l0,0V54.9z"/>
<path fill="#F0888F" d="M43.9,43.5v17.9l0,21.5c-0.2-0.2,5.6,2,8,0.7l0-23.7v-0.2V43.5H43.9z"/>
<path fill="#F0888F" d="M62.4,32.7v21.1v0.6V58l0,2.5l-0.3,22.2c0-3.6,1.1,0.4,8-4.9v-45H62.4z"/>
<polygon fill="#5E5E5E" points="74.9,40.6 61,39.6 65.6,45.2 45.1,63.2 19.2,66.2 21.4,71.7 46.7,68.5 46.7,68.4 46.8,68.5 69,49.3 
	73.5,54.7 "/>
<polygon fill="#FFFFFF" points="75,39.5 61,38.5 65.7,44 45.1,62.1 19.2,65.1 21.5,70.6 46.8,67.4 46.8,67.3 46.8,67.4 69.1,48.2 
	73.5,53.5 "/>
<g>
	<defs>
		<path id="SVGID_27_" d="M49.6,85.8c-19.6-0.4-35.2-16.6-34.8-36s16.8-34.8,36.4-34.4C70.9,16,86.5,32.1,86,51.5
			S69.2,86.3,49.6,85.8z M51.2,17.4c-18.6-0.4-34,14.2-34.4,32.5c-0.4,18.3,14.3,33.6,32.9,34s34-14.2,34.4-32.5
			C84.5,33.1,69.8,17.9,51.2,17.4z"/>
	</defs>
	<use xlink:href="#SVGID_27_"  overflow="visible" fill="#868686"/>
	<clipPath id="SVGID_6_">
		<use xlink:href="#SVGID_27_"  overflow="visible"/>
	</clipPath>
	<path opacity="0.5" clip-path="url(#SVGID_6_)" fill="#868686" d="M20,83.7C1.7,67.2-0.6,38.1,16.1,20.1s46.3-18.2,64.6-1.6
		C81.8,19.5,21.1,84.8,20,83.7z"/>
</g>
<g>
	<defs>
		<path id="SVGID_29_" d="M49.1,88.5C27.6,88,10.6,70.3,11.1,49.1C11.5,27.9,29.4,11,50.9,11.5C72.4,12,89.4,29.7,88.9,50.9
			S70.6,89,49.1,88.5z M50.8,16.3C32,15.9,16.4,30.7,15.9,49.2s14.5,34,33.3,34.4C68,84.1,83.6,69.3,84.1,50.8
			C84.5,32.2,69.6,16.8,50.8,16.3z"/>
	</defs>
	<use xlink:href="#SVGID_29_"  overflow="visible" fill="#D9D9D9"/>
	<clipPath id="SVGID_8_">
		<use xlink:href="#SVGID_29_"  overflow="visible"/>
	</clipPath>
	<path clip-path="url(#SVGID_8_)" fill="#EDECEC" d="M17.3,81.8C-1.2,65-3.5,35.6,13.4,17.3s46.9-18.4,65.4-1.6
		C80,16.7,18.5,82.8,17.3,81.8z"/>
</g>
</svg>
