<svg xmlns="http://www.w3.org/2000/svg" xmlns:xlink="http://www.w3.org/1999/xlink" viewBox="0 0 120 120">
	<defs>
		<path id="SVGID_39_" d="M16.7 59.3c.6-23.3 20.7-41.8 45-41.3 24.3.6 43.5 19.9 43 43.3-.6 23.3-20.7 41.8-45 41.3s-43.6-20-43-43.3z"/>
	</defs>
	<use xlink:href="#SVGID_39_" overflow="visible" fill="#67696a"/>
	<clipPath id="SVGID_5_"><use xlink:href="#SVGID_39_" overflow="visible"/></clipPath>
	<use xlink:href="#SVGID_39_" overflow="visible" fill="none" stroke="#a3a5a6" stroke-width="5.108" stroke-miterlimit="10"/>
	<defs>
		<path id="SVGID_11_" d="M59.5 101.6c-23.7-.6-42.4-19.5-41.9-42.2.6-22.7 20.3-40.8 43.9-40.2 23.7.5 42.4 19.5 41.9 42.2s-20.3 40.7-43.9 40.2zm2-80.2c-22.4-.5-41 16.6-41.5 38s17.2 39.4 39.6 39.9c22.4.5 41-16.6 41.5-38S83.8 21.9 61.5 21.4z"/>
	</defs>
	<use xlink:href="#SVGID_11_" overflow="visible" fill="#7c7e7f"/>
	<clipPath id="SVGID_7_">
		<use xlink:href="#SVGID_11_" overflow="visible"/></clipPath>
		<path d="M23.8 99.1C1.8 79.7-1 45.6 19.2 24.5S75 3.2 97 22.6c1.4 1.2-71.8 77.7-73.2 76.5z" opacity=".5" clip-path="url(#SVGID_7_)" fill="#7c7e7f"/>
	<defs>
		<path id="SVGID_13_" d="M58.9 104.7c-25.9-.6-46.4-21.3-45.8-46.2s22.2-44.6 48-44c25.9.6 46.4 21.3 45.8 46.1s-22.1 44.6-48 44.1zM61 20.1c-22.6-.5-41.5 16.8-42 38.5S36.4 98.5 59 99s41.5-16.8 42-38.5-17.4-39.9-40-40.4z"/>
	</defs>
	<use xlink:href="#SVGID_13_" overflow="visible" fill="#cdcecf"/>
	<clipPath id="SVGID_9_"><use xlink:href="#SVGID_13_" overflow="visible"/></clipPath>
	<path d="M20.6 96.8C-1.7 77.1-4.5 42.6 16 21.2S72.5-.3 94.8 19.3C96.1 20.6 22 98 20.6 96.8z" clip-path="url(#SVGID_9_)" fill="#e4e3e1"/>
	<ellipse cx="60.3" cy="60.3" rx="40.3" ry="38.7" fill="#8abbb1"/>
	<g>
		<defs><ellipse id="SVGID_15_" cx="60" cy="59.6" rx="40.3" ry="38.7"/></defs>
		<clipPath id="SVGID_10_"><use xlink:href="#SVGID_15_" overflow="visible"/></clipPath>
	</g>
		<path d="M1.2 58.7C1.9 26.2 28.9.4 61.4 1.2s58.2 27.7 57.5 60.2c-.8 32.5-27.7 58.2-60.2 57.5S.4 91.2 1.2 58.7z" fill="none" stroke="#84b3a9" stroke-width="2.276" stroke-miterlimit="10"/>
	<g>
	<defs>
		<path id="SVGID_17_" d="M8 103.4s1.8 2.2 3.6 4.1 3.9 3.9 3.9 3.9l13.1-12.1s-4.3-3.3-7.5-7.9L8 103.4z"/>
	</defs>
	<clipPath id="SVGID_12_"><use xlink:href="#SVGID_17_" overflow="visible"/></clipPath>
	<path clip-path="url(#SVGID_12_)" fill="#d8d7d7" d="M10.3 106.1l-2.8-2.8 13.1-12.4 2.8 2.8z"/>
	<path clip-path="url(#SVGID_12_)" fill="#c5c3c4" d="M13 109l-2.7-2.9 13.1-12.4 2.8 2.9z"/>
	<path clip-path="url(#SVGID_12_)" fill="#afb0af" d="M15.8 111.8L13 109l13.2-12.4 2.7 2.9z"/></g>
	<g>
		<path d="M74.9 42.7H45.1c-1.9 0-3.6 1.4-3.9 3.3l-3.4 19h44.4l-3.4-19c-.3-1.9-2-3.3-3.9-3.3z" fill="#fff"/>
		<path d="M41.7 77.3h36.6c2.2 0 3.9-1.8 3.9-3.9v-8c0-2.2-1.8-3.9-3.9-3.9H41.7c-2.2 0-3.9 1.8-3.9 3.9v8c0 2.1 1.7 3.9 3.9 3.9z" fill="#e7e7e6"/>
		<path d="M68 70.7H42.4c-.5 0-1-.4-1-1v-.1c0-.5.4-1 1-1H68c.5 0 1 .4 1 1v.1c0 .6-.4 1-1 1z" fill="#656676"/>
		<circle cx="76.4" cy="69.7" r="2" fill="#c54a53"/>
	</g>
	<path d="M88.4 32.4c1.1.9-53.3 57.7-54.5 56.9-18.5-13.3-19.6-40.2-4-55.1C48 16.9 73.2 18 88.4 32.4" opacity=".3" fill="#fff"/>
</svg>