<?xml version="1.0" encoding="utf-8"?>
<!-- Generator: Adobe Illustrator 21.1.0, SVG Export Plug-In . SVG Version: 6.00 Build 0)  -->
<svg version="1.1" id="Layer_1" xmlns="http://www.w3.org/2000/svg" xmlns:xlink="http://www.w3.org/1999/xlink" x="0px" y="0px"
	 viewBox="0 0 120 120" style="enable-background:new 0 0 120 120;" xml:space="preserve">
<style type="text/css">
	.st0{opacity:0.5;clip-path:url(#SVGID_4_);fill:#7C7F80;}
	.st1{clip-path:url(#SVGID_6_);fill:#E5E4E2;}
	.st2{fill:none;stroke:#FFFFFF;stroke-width:1.2451;stroke-miterlimit:10;}
	.st3{fill:none;stroke:#FFFFFF;stroke-width:1.2422;stroke-miterlimit:10;}
	.st4{fill:none;stroke:#FFFFFF;stroke-width:1.2473;stroke-miterlimit:10;}
	.st5{fill:#00ACC3;}
	.st6{fill:none;stroke:#00ACC3;stroke-width:2.276;stroke-miterlimit:10;}
	.st7{clip-path:url(#SVGID_10_);fill:#D9D9D9;}
	.st8{clip-path:url(#SVGID_10_);fill:#C6C5C6;}
	.st9{clip-path:url(#SVGID_10_);fill:#B1B1B1;}
	.st10{fill:#2A2D2D;}
	.st11{fill:#4A4C4C;}
	.st12{fill:#F8DB8E;}
	.st13{opacity:0.3;fill:#FFFFFF;}
</style>
<g>
	<g>
		<defs>
			<path id="SVGID_1_" d="M16.7,59.3c0.6-23.3,20.7-41.8,45-41.3c24.3,0.6,43.5,19.9,43,43.3c-0.6,23.3-20.7,41.8-45,41.3
				S16.1,82.6,16.7,59.3z"/>
		</defs>
		<use xlink:href="#SVGID_1_"  style="overflow:visible;fill:#67696B;"/>
		<clipPath id="SVGID_2_">
			<use xlink:href="#SVGID_1_"  style="overflow:visible;"/>
		</clipPath>
		<use xlink:href="#SVGID_1_"  style="overflow:visible;fill:none;stroke:#A3A6A7;stroke-width:5.1083;stroke-miterlimit:10;"/>
	</g>
</g>
<g>
	<defs>
		<path id="SVGID_3_" d="M59.5,101.6C35.8,101,17.1,82.1,17.6,59.4c0.6-22.7,20.3-40.8,43.9-40.2c23.7,0.5,42.4,19.5,41.9,42.2
			S83.1,102.1,59.5,101.6z M61.5,21.4c-22.4-0.5-41,16.6-41.5,38s17.2,39.4,39.6,39.9c22.4,0.5,41-16.6,41.5-38S83.8,21.9,61.5,21.4
			z"/>
	</defs>
	<use xlink:href="#SVGID_3_"  style="overflow:visible;fill:#7C7F80;"/>
	<clipPath id="SVGID_4_">
		<use xlink:href="#SVGID_3_"  style="overflow:visible;"/>
	</clipPath>
	<path class="st0" d="M23.8,99.1C1.8,79.7-1,45.6,19.2,24.5S75,3.2,97,22.6C98.4,23.8,25.2,100.3,23.8,99.1z"/>
</g>
<g>
	<defs>
		<path id="SVGID_5_" d="M58.9,104.7C33,104.1,12.5,83.4,13.1,58.5s22.2-44.6,48-44c25.9,0.6,46.4,21.3,45.8,46.1
			S84.8,105.2,58.9,104.7z M61,20.1c-22.6-0.5-41.5,16.8-42,38.5S36.4,98.5,59,99c22.6,0.5,41.5-16.8,42-38.5S83.6,20.6,61,20.1z"/>
	</defs>
	<use xlink:href="#SVGID_5_"  style="overflow:visible;fill:#CED0D0;"/>
	<clipPath id="SVGID_6_">
		<use xlink:href="#SVGID_5_"  style="overflow:visible;"/>
	</clipPath>
	<path class="st1" d="M20.6,96.8C-1.7,77.1-4.5,42.6,16,21.2s56.5-21.5,78.8-1.9C96.1,20.6,22,98,20.6,96.8z"/>
</g>
<ellipse class="st5" cx="60.3" cy="60.3" rx="40.3" ry="38.7"/>
<g>
	<defs>
		<ellipse id="SVGID_7_" cx="60" cy="59.6" rx="40.3" ry="38.7"/>
	</defs>
	<clipPath id="SVGID_8_">
		<use xlink:href="#SVGID_7_"  style="overflow:visible;"/>
	</clipPath>
</g>
<path class="st6" d="M1.2,58.7C1.9,26.2,28.9,0.4,61.4,1.2s58.2,27.7,57.5,60.2c-0.8,32.5-27.7,58.2-60.2,57.5S0.4,91.2,1.2,58.7z"
	/>
<g>
	<defs>
		<path id="SVGID_9_" d="M8,103.4c0,0,1.8,2.2,3.6,4.1s3.9,3.9,3.9,3.9l13.1-12.1c0,0-4.3-3.3-7.5-7.9L8,103.4z"/>
	</defs>
	<clipPath id="SVGID_10_">
		<use xlink:href="#SVGID_9_"  style="overflow:visible;"/>
	</clipPath>
	<polygon class="st7" points="10.3,106.1 7.5,103.3 20.6,90.9 23.4,93.7 	"/>
	<polygon class="st8" points="13,109 10.3,106.1 23.4,93.7 26.2,96.6 	"/>
	<polygon class="st9" points="15.8,111.8 13,109 26.2,96.6 28.9,99.5 	"/>
</g>
<g>
	<path class="st10" d="M66.9,76.1c-4.1,1.8-8.2,2.2-12.6,0.5c-3.7-1.5-7.7-2.4-11.6-3.4c-1.3-0.3-1.7-0.9-1.3-2.2
		c0.9-3.3,1.6-6.6,2.5-9.8c0.4-1.4,0.1-2.1-1.4-2.5c-3.1-0.8-6-1.9-9.1-2.7c-1.9-0.5-2.6-1.3-2.2-3.2c0.6,0.1,1.3,0.1,1.9,0.3
		c7.9,2.4,15.9,4.8,23.8,7.3c2.1,0.7,3.9,0.7,6,0c4.2-1.4,8.4-2.6,12.6-3.9c1.9-0.6,4-0.7,5.6-2.1c0.4,0,0.9,0,1.3,0.1
		c0.1,0.1,0.2,0.2,0.3,0.2c0.1,0.8,0.2,1.6,0.4,2.4c-2.5,0.8-5.1,1.2-7.4,2.4c-2.5,0.1-4.7,1.4-7.2,1.9c-1.3,0.2-1.7,1-1.7,2.3
		C67,67.8,66.9,72,66.9,76.1z"/>
	<path class="st11" d="M81.1,54.3c-1.6,1.4-3.7,1.5-5.6,2.1c-4.2,1.3-8.4,2.5-12.6,3.9c-2,0.7-3.9,0.7-6,0
		C49,57.9,41,55.5,33.1,53.1c-0.6-0.2-1.3-0.2-1.9-0.3c1.5-1.4,3.5-1.2,5.3-1.6c6.6-1.6,13.3-2.9,20-4.5c3.4-0.8,6.5,0,9.8,0.7
		c7,1.6,14.1,3.1,21.1,4.6c0.6,0.1,1.4,0.1,1.7,0.8c-1.5-0.2-2.9,0.8-4.5,0.4c-6.6-0.1-13.2-0.2-19.9-0.3c-0.1,0-0.1,0-0.2,0
		c-0.5,0-1,0.1-0.9,0.7c0,0.6,0.6,0.5,1,0.6c0.4,0,0.9,0,1.3,0C70.9,54.2,76,54.3,81.1,54.3z"/>
	<path class="st11" d="M66.9,76.1c0-4.2,0.1-8.3,0-12.5c0-1.3,0.4-2.1,1.7-2.3c2.4-0.5,4.7-1.7,7.2-1.9c1,3.9,2,7.8,3,11.7
		c0.3,1,0.1,1.7-1,2C74.1,74.1,70.5,75.1,66.9,76.1z"/>
	<path class="st12" d="M81.1,54.3c-5.1-0.1-10.2-0.1-15.3-0.2c-0.4,0-0.9,0-1.3,0c-0.4,0-1,0-1-0.6c0-0.6,0.5-0.6,0.9-0.7
		c0.1,0,0.1,0,0.2,0c6.6,0.1,13.2,0.2,19.9,0.3c0,1,0.1,2,0.1,3.1c0,1.8-0.5,3.7,1.1,5.2c0.5,0.5,0.3,1.4-0.1,2.1
		c-1.2,0-2.3,0-3.5,0c-0.3-1-0.3-1.9,0.6-2.8c1-1.1,0.5-2.4,0.4-3.7c-0.1-0.8-0.2-1.6-0.4-2.4c0-0.2-0.1-0.4-0.3-0.2
		C82,54.4,81.5,54.4,81.1,54.3z"/>
	<path class="st12" d="M85.6,65.8c0.7,2.6,0.6,5.3,1,7.9c0.2,1-0.3,1.5-1.4,1.5c-0.8,0-1.6,0-2.4,0c-1.1,0-1.6-0.5-1.5-1.6
		c0.3-2.6,0.6-5.1,0.8-7.7C83.3,65.9,84.5,65.8,85.6,65.8z"/>
	<path class="st10" d="M84.6,56.3c0-1-0.1-2-0.1-3.1c1.5,0.4,3-0.6,4.5-0.4C89.1,55.5,88.8,55.8,84.6,56.3z"/>
	<path class="st11" d="M85.6,65.8c-1.1,0-2.3,0-3.4,0.1c-0.3-0.8-0.3-1.6-0.1-2.4c1.2,0,2.3,0,3.5,0C85.9,64.3,85.9,65.1,85.6,65.8z
		"/>
	<path class="st11" d="M82.4,54.4c0.2-0.2,0.3,0,0.3,0.2C82.6,54.6,82.5,54.5,82.4,54.4z"/>
</g>
<path class="st13" d="M88.4,32.4c1.1,0.9-53.3,57.7-54.5,56.9c-18.5-13.3-19.6-40.2-4-55.1C48,16.9,73.2,18,88.4,32.4"/>
</svg>
