<svg xmlns="http://www.w3.org/2000/svg" width="120" height="120" viewBox="0 0 120 120">
    <defs>
        <filter id="a" width="107%" height="107%" x="-3.5%" y="-3.5%" filterUnits="objectBoundingBox">
            <feOffset in="SourceAlpha" result="shadowOffsetOuter1"/>
            <feGaussianBlur in="shadowOffsetOuter1" result="shadowBlurOuter1" stdDeviation="1"/>
            <feColorMatrix in="shadowBlurOuter1" result="shadowMatrixOuter1" values="0 0 0 0 0 0 0 0 0 0 0 0 0 0 0 0 0 0 0.6 0"/>
            <feMerge>
                <feMergeNode in="shadowMatrixOuter1"/>
                <feMergeNode in="SourceGraphic"/>
            </feMerge>
        </filter>
    </defs>
    <g fill="none" fill-rule="evenodd">
        <path fill="#91DCEF" fill-rule="nonzero" d="M60 120C26.863 120 0 93.137 0 60S26.863 0 60 0s60 26.863 60 60-26.863 60-60 60zm0-2.79c31.596 0 57.21-25.614 57.21-57.21S91.595 2.79 60 2.79 2.79 28.405 2.79 60 28.405 117.21 60 117.21z"/>
        <circle cx="59.5" cy="59.5" r="47.5" fill="#91DCEF"/>
        <path fill="#E5E4E2" d="M5.57 104.742l13.392-13.391 7.877 7.877-13.391 13.392z"/>
        <path fill="#CED0D0" d="M26.84 99.228L13.447 112.62l-3.94-3.939L22.9 95.29l3.94 3.938z"/>
        <path fill="#2474A9" d="M25.625 92.579L92.58 25.625l.396.392c18.49 18.49 18.49 48.468 0 66.958-18.49 18.49-48.468 18.49-66.958 0a48.31 48.31 0 0 1-.392-.396z" opacity=".152"/>
        <path fill="#FFF" stroke="#7FCCE4" d="M73.837 68.685H44.163C36.353 68.685 30 62.433 30 54.749c0-3.206 1.134-6.336 3.193-8.814a14.246 14.246 0 0 1 7.038-4.576c1.116-2.862 3.021-5.33 5.55-7.18A16.47 16.47 0 0 1 55.568 31c3.641 0 7.09 1.148 9.975 3.32a16.353 16.353 0 0 1 5.27 6.813c.99-.213 2.002-.32 3.025-.32 7.81 0 14.163 6.252 14.163 13.936s-6.353 13.936-14.163 13.936z"/>
        <g fill="#2474A9">
            <path d="M48.753 60.764v18.032H68.2V60.764h6.484L58.477 44.44 42.27 60.764zM66.224 86.534H50.44c-1.09 0-1.973-1.065-1.973-2.38s.883-2.38 1.973-2.38h15.785c1.09 0 1.973 1.065 1.973 2.38s-.883 2.38-1.973 2.38z"/>
        </g>
        <g fill-rule="nonzero" filter="url(#a)" transform="translate(12 12)">
            <path fill="#E5E4E2" d="M47.451 89.32c23.124 0 41.87-18.745 41.87-41.869 0-23.123-18.746-41.868-41.87-41.868-23.123 0-41.868 18.745-41.868 41.868 0 23.124 18.745 41.87 41.868 41.87zm0 5.583C21.245 94.903 0 73.658 0 47.45 0 21.245 21.245 0 47.451 0c26.207 0 47.452 21.245 47.452 47.451 0 26.207-21.245 47.452-47.452 47.452z"/>
            <path fill="#CED0D0" d="M76.555 17.348l3.947-3.948c.133.13.266.261.397.393 18.531 18.53 18.531 48.575 0 67.106-18.53 18.531-48.575 18.531-67.106 0a48.434 48.434 0 0 1-.393-.397l3.948-3.947c.13.133.26.265.392.397 16.351 16.35 42.861 16.35 59.212 0 16.35-16.351 16.35-42.86 0-59.212a42.725 42.725 0 0 0-.397-.392z"/>
        </g>
    </g>
</svg>
