<?xml version="1.0" encoding="UTF-8" standalone="no"?>
<svg width="120px" height="120px" viewBox="0 0 120 120" version="1.1" xmlns="http://www.w3.org/2000/svg" xmlns:xlink="http://www.w3.org/1999/xlink" xmlns:sketch="http://www.bohemiancoding.com/sketch/ns">
    <!-- Generator: Sketch 3.4.4 (17249) - http://www.bohemiancoding.com/sketch -->
    <title>Artboard 1</title>
    <desc>Created with Sketch.</desc>
    <defs>
        <path id="path-1" d="M0.337142857,12.4742857 C0.337142857,12.4742857 2.1352381,14.7219048 3.93333333,16.52 C5.73142857,18.3180952 7.86666667,20.3409524 7.86666667,20.3409524 L20.9028571,8.31619048 C20.9028571,8.31619048 16.632381,4.9447619 13.3733333,0.44952381 L0.337142857,12.4742857 L0.337142857,12.4742857 Z"></path>
        <path id="path-3" d="M0.337142857,12.4742857 C0.337142857,12.4742857 2.1352381,14.7219048 3.93333333,16.52 C5.73142857,18.3180952 7.86666667,20.3409524 7.86666667,20.3409524 L20.9028571,8.31619048 C20.9028571,8.31619048 16.632381,4.9447619 13.3733333,0.44952381 L0.337142857,12.4742857 L0.337142857,12.4742857 Z"></path>
        <path id="path-5" d="M0.337142857,12.4742857 C0.337142857,12.4742857 2.1352381,14.7219048 3.93333333,16.52 C5.73142857,18.3180952 7.86666667,20.3409524 7.86666667,20.3409524 L20.9028571,8.31619048 C20.9028571,8.31619048 16.632381,4.9447619 13.3733333,0.44952381 L0.337142857,12.4742857 L0.337142857,12.4742857 Z"></path>
        <path d="M41.6933333,84.6228571 C18.4304762,84.0609524 2.22044605e-16,64.7314286 0.561904762,41.5809524 C1.12380952,18.4304762 20.4533333,-0.112380952 43.6038095,0.44952381 C66.8666667,1.01142857 85.2971429,20.3409524 84.7352381,43.4914286 C84.1733333,66.6419048 64.8438095,85.1847619 41.6933333,84.6228571 L41.6933333,84.6228571 Z M43.6038095,2.69714286 C21.5771429,2.24761905 3.37142857,19.6666667 2.80952381,41.5809524 C2.24761905,63.4952381 19.7790476,81.8133333 41.6933333,82.3752381 C63.607619,82.9371429 81.9257143,65.4057143 82.487619,43.4914286 C83.0495238,21.5771429 65.5180952,3.25904762 43.6038095,2.69714286 L43.6038095,2.69714286 Z" id="path-7"></path>
        <path d="M45.5142857,92.2647619 C20.1161905,91.7028571 -0.112380952,70.4628571 0.561904762,45.0647619 C1.12380952,19.6666667 22.3638095,-0.561904762 47.7619048,0.112380952 C73.16,0.674285714 93.3885714,21.9142857 92.7142857,47.312381 C92.04,72.7104762 70.912381,92.8266667 45.5142857,92.2647619 L45.5142857,92.2647619 Z M47.5371429,5.95619048 C25.2857143,5.39428571 6.8552381,23.0380952 6.29333333,45.2895238 C5.73142857,67.5409524 23.3752381,85.9714286 45.6266667,86.5333333 C67.8780952,87.0952381 86.3085714,69.4514286 86.8704762,47.2 C87.432381,24.9485714 69.7885714,6.40571429 47.5371429,5.95619048 L47.5371429,5.95619048 Z" id="path-9"></path>
    </defs>
    <g id="Page-1" stroke="none" stroke-width="1" fill="none" fill-rule="evenodd" sketch:type="MSPage">
        <g id="Artboard-1" sketch:type="MSArtboardGroup">
            <g id="leads" sketch:type="MSLayerGroup" transform="translate(1.000000, 1.000000)">
                <g id="Group" transform="translate(15.733333, 15.733333)" sketch:type="MSShapeGroup">
                    <g id="SVGID_1_-link" fill="#67696B">
                        <circle id="SVGID_1_" cx="43.9409524" cy="43.6038095" r="43.1542857"></circle>
                    </g>
                    <g id="SVGID_1_-link" stroke="#A3A6A7" stroke-width="5.1243">
                        <circle id="SVGID_1_" cx="43.9409524" cy="43.6038095" r="43.1542857"></circle>
                    </g>
                </g>
                <path d="M0.224761905,59 C0.224761905,26.5219048 26.6342857,0.224761905 59,0.224761905 C91.3657143,0.224761905 117.775238,26.5219048 117.662857,59 C117.662857,91.4780952 91.2533333,117.775238 58.887619,117.775238 C26.5219048,117.775238 0.224761905,91.4780952 0.224761905,59 L0.224761905,59 Z" id="Shape" stroke="#74C3B8" stroke-width="2.276" sketch:type="MSShapeGroup"></path>
                <g id="Group" transform="translate(6.742857, 89.904762)">
                    <g id="Clipped">
                        <mask id="mask-2" sketch:name="SVGID_3_" fill="white">
                            <use xlink:href="#path-1"></use>
                        </mask>
                        <g id="SVGID_3_"></g>
                        <path d="M2.5847619,15.1714286 L-0.112380952,12.2495238 L12.9238095,-0.112380952 L15.7333333,2.80952381 L2.5847619,15.1714286 Z" id="Shape" fill="#D9D9D9" sketch:type="MSShapeGroup" mask="url(#mask-2)"></path>
                    </g>
                    <g id="Clipped">
                        <mask id="mask-4" sketch:name="SVGID_3_" fill="white">
                            <use xlink:href="#path-3"></use>
                        </mask>
                        <g id="SVGID_3_"></g>
                        <path d="M5.39428571,17.9809524 L2.5847619,15.1714286 L15.7333333,2.80952381 L18.4304762,5.61904762 L5.39428571,17.9809524 Z" id="Shape" fill="#C6C5C6" sketch:type="MSShapeGroup" mask="url(#mask-4)"></path>
                    </g>
                    <g id="Clipped">
                        <mask id="mask-6" sketch:name="SVGID_3_" fill="white">
                            <use xlink:href="#path-5"></use>
                        </mask>
                        <g id="SVGID_3_"></g>
                        <path d="M8.09142857,20.9028571 L5.39428571,17.9809524 L18.4304762,5.61904762 L21.24,8.54095238 L8.09142857,20.9028571 Z" id="Shape" fill="#B1B1B1" sketch:type="MSShapeGroup" mask="url(#mask-6)"></path>
                    </g>
                </g>
                <g id="Group" transform="translate(16.857143, 16.857143)">
                    <g id="SVGID_5_-link" fill="#7C7F80" sketch:type="MSShapeGroup">
                        <path d="M41.6933333,84.6228571 C18.4304762,84.0609524 2.22044605e-16,64.7314286 0.561904762,41.5809524 C1.12380952,18.4304762 20.4533333,-0.112380952 43.6038095,0.44952381 C66.8666667,1.01142857 85.2971429,20.3409524 84.7352381,43.4914286 C84.1733333,66.6419048 64.8438095,85.1847619 41.6933333,84.6228571 L41.6933333,84.6228571 Z M43.6038095,2.69714286 C21.5771429,2.24761905 3.37142857,19.6666667 2.80952381,41.5809524 C2.24761905,63.4952381 19.7790476,81.8133333 41.6933333,82.3752381 C63.607619,82.9371429 81.9257143,65.4057143 82.487619,43.4914286 C83.0495238,21.5771429 65.5180952,3.25904762 43.6038095,2.69714286 L43.6038095,2.69714286 Z" id="SVGID_5_"></path>
                    </g>
                    <g id="Clipped">
                        <mask id="mask-8" sketch:name="SVGID_5_" fill="white">
                            <use xlink:href="#path-7"></use>
                        </mask>
                        <g id="SVGID_5_"></g>
                        <path d="M6.63047619,82.1504762 C-14.9466667,62.2590476 -17.7561905,27.4209524 2.1352381,5.84380952 C22.0266667,-15.7333333 56.8647619,-15.9580952 78.5542857,3.93333333 C79.7904762,5.16952381 7.97904762,83.3866667 6.63047619,82.1504762 L6.63047619,82.1504762 Z" id="Shape" opacity="0.5" fill="#7C7F80" sketch:type="MSShapeGroup" mask="url(#mask-8)"></path>
                    </g>
                </g>
                <g id="Group" transform="translate(12.361905, 12.361905)">
                    <g id="SVGID_9_-link" fill="#CED0D0" sketch:type="MSShapeGroup">
                        <path d="M45.5142857,92.2647619 C20.1161905,91.7028571 -0.112380952,70.4628571 0.561904762,45.0647619 C1.12380952,19.6666667 22.3638095,-0.561904762 47.7619048,0.112380952 C73.16,0.674285714 93.3885714,21.9142857 92.7142857,47.312381 C92.04,72.7104762 70.912381,92.8266667 45.5142857,92.2647619 L45.5142857,92.2647619 Z M47.5371429,5.95619048 C25.2857143,5.39428571 6.8552381,23.0380952 6.29333333,45.2895238 C5.73142857,67.5409524 23.3752381,85.9714286 45.6266667,86.5333333 C67.8780952,87.0952381 86.3085714,69.4514286 86.8704762,47.2 C87.432381,24.9485714 69.7885714,6.40571429 47.5371429,5.95619048 L47.5371429,5.95619048 Z" id="SVGID_9_"></path>
                    </g>
                    <g id="Clipped">
                        <mask id="mask-10" sketch:name="SVGID_9_" fill="white">
                            <use xlink:href="#path-9"></use>
                        </mask>
                        <g id="SVGID_9_"></g>
                        <path d="M7.97904762,84.2857143 C-13.9352381,64.1695238 -16.632381,28.8819048 3.37142857,7.08 C23.3752381,-14.7219048 58.887619,-14.9466667 80.6895238,5.16952381 C82.1504762,6.40571429 9.32761905,85.5219048 7.97904762,84.2857143 L7.97904762,84.2857143 Z" id="Shape" fill="#E5E4E2" sketch:type="MSShapeGroup" mask="url(#mask-10)"></path>
                    </g>
                </g>
                <g id="Group" transform="translate(19.104762, 19.104762)" sketch:type="MSShapeGroup">
                    <path d="M39.9603247,0.536284688 C18.112992,0.524446973 0.392660349,18.1752984 0.380856264,39.9605649 C0.369052179,61.7458313 18.0702456,79.4158755 39.9175783,79.4277133 C61.764911,79.439551 79.4852427,61.7886995 79.4970467,40.0034331 C79.5088508,18.2181666 61.8076574,0.548122404 39.9603247,0.536284688 L39.9603247,0.536284688 Z" id="Oval" fill="#74C3B8"></path>
                    <g transform="translate(14.609524, 12.361905)" id="Oval">
                        <ellipse fill="#E56759" cx="26.072381" cy="26.9714286" rx="25.847619" ry="26.8590476"></ellipse>
                        <ellipse fill="#FFFFFF" cx="26.1847619" cy="26.7466667" rx="18.992381" ry="19.7790476"></ellipse>
                        <ellipse fill="#E56759" cx="26.1847619" cy="26.7466667" rx="12.9238095" ry="13.3733333"></ellipse>
                        <ellipse fill="#FFFFFF" cx="26.4095238" cy="27.4209524" rx="6.18095238" ry="6.40571429"></ellipse>
                    </g>
                    <path d="M40.7942857,40.9066667 L16.632381,40.7942857 L23.8247619,48.3238095 L11.912381,60.5733333 L22.2514286,71.2495238 L34.0514286,59.112381 L40.7942857,66.08 L40.7942857,40.9066667 Z" id="Shape" fill="#4D4E4E"></path>
                    <path d="M13.7104762,69.5638095 C-2.24761905,55.6285714 -4.4952381,30.0057143 10.2266667,13.8228571 C28.432381,-6.06857143 54.167619,-1.34857143 66.8666667,11.0133333 C66.8666667,11.1257143 14.8342857,70.4628571 13.7104762,69.5638095 L13.7104762,69.5638095 Z" id="Shape" opacity="0.3" fill="#FFFFFF"></path>
                </g>
            </g>
        </g>
    </g>
</svg>