<?xml version="1.0" encoding="utf-8"?>
<!-- Generator: Adobe Illustrator 24.0.2, SVG Export Plug-In . SVG Version: 6.00 Build 0)  -->
<svg version="1.1" id="Layer_1" xmlns="http://www.w3.org/2000/svg" xmlns:xlink="http://www.w3.org/1999/xlink" x="0px" y="0px"
	 viewBox="0 0 60 60" style="enable-background:new 0 0 60 60;" xml:space="preserve">
<style type="text/css">
	.st0{fill:#67696B;}
	.st1{fill:#A4A6A7;}
	.st2{fill:#7C7F80;}
	.st3{clip-path:url(#SVGID_3_);}
	.st4{opacity:0.5;enable-background:new    ;}
	.st5{fill:#CFD0D1;}
	.st6{clip-path:url(#SVGID_5_);}
	.st7{fill:#E5E4E1;}
	.st8{fill:#F0891E;}
	.st9{clip-path:url(#SVGID_7_);}
	.st10{fill:#DAD9D9;}
	.st11{clip-path:url(#SVGID_9_);}
	.st12{fill:#C7C6C7;}
	.st13{clip-path:url(#SVGID_11_);}
	.st14{fill:#B1B1B1;}
	.st15{fill:#EB6811;}
	.st16{clip-path:url(#SVGID_13_);fill:#FF9F55;}
	.st17{clip-path:url(#SVGID_13_);fill:#FFA055;}
	.st18{clip-path:url(#SVGID_13_);fill:#FFA155;}
	.st19{clip-path:url(#SVGID_13_);fill:#FFA255;}
	.st20{clip-path:url(#SVGID_13_);fill:#FFA355;}
	.st21{clip-path:url(#SVGID_13_);fill:#FFA455;}
	.st22{clip-path:url(#SVGID_13_);fill:#FFA555;}
	.st23{clip-path:url(#SVGID_13_);fill:#FFA655;}
	.st24{clip-path:url(#SVGID_13_);fill:#FFA755;}
	.st25{clip-path:url(#SVGID_13_);fill:#FFA855;}
	.st26{clip-path:url(#SVGID_13_);fill:#FFA955;}
	.st27{clip-path:url(#SVGID_13_);fill:#FFAA55;}
	.st28{clip-path:url(#SVGID_13_);fill:#FFAB55;}
	.st29{clip-path:url(#SVGID_13_);fill:#FFAC55;}
	.st30{clip-path:url(#SVGID_13_);fill:#FFAD55;}
	.st31{clip-path:url(#SVGID_13_);fill:#FFAE55;}
	.st32{clip-path:url(#SVGID_13_);fill:#FFAF55;}
	.st33{clip-path:url(#SVGID_13_);fill:#FFB055;}
	.st34{clip-path:url(#SVGID_13_);fill:#FFB155;}
	.st35{clip-path:url(#SVGID_13_);fill:#FFB255;}
	.st36{clip-path:url(#SVGID_13_);fill:#FFB355;}
	.st37{clip-path:url(#SVGID_13_);fill:#FFB455;}
	.st38{clip-path:url(#SVGID_13_);fill:#FFB555;}
	.st39{clip-path:url(#SVGID_13_);fill:#FFB655;}
	.st40{clip-path:url(#SVGID_13_);fill:#FFB755;}
	.st41{clip-path:url(#SVGID_13_);fill:#FFB955;}
	.st42{clip-path:url(#SVGID_13_);fill:#FFBA55;}
	.st43{clip-path:url(#SVGID_13_);fill:#FFBB55;}
	.st44{clip-path:url(#SVGID_13_);fill:#FFBC55;}
	.st45{clip-path:url(#SVGID_13_);fill:#FFBD55;}
	.st46{clip-path:url(#SVGID_13_);fill:#FFBE55;}
	.st47{clip-path:url(#SVGID_13_);fill:#FFBF55;}
	.st48{clip-path:url(#SVGID_13_);fill:#FFC055;}
	.st49{clip-path:url(#SVGID_13_);fill:#FFC155;}
	.st50{clip-path:url(#SVGID_13_);fill:#FFC255;}
	.st51{clip-path:url(#SVGID_13_);fill:#FFC355;}
	.st52{clip-path:url(#SVGID_13_);fill:#FFC455;}
	.st53{clip-path:url(#SVGID_13_);fill:#FFC555;}
	.st54{clip-path:url(#SVGID_13_);fill:#FFC655;}
	.st55{clip-path:url(#SVGID_13_);fill:#FFC755;}
	.st56{clip-path:url(#SVGID_13_);fill:#FFC855;}
	.st57{clip-path:url(#SVGID_13_);fill:#FFC955;}
	.st58{clip-path:url(#SVGID_13_);fill:#FFCA55;}
	.st59{clip-path:url(#SVGID_13_);fill:#FFCB55;}
	.st60{clip-path:url(#SVGID_13_);fill:#FFCC55;}
	.st61{clip-path:url(#SVGID_13_);fill:#FFCD55;}
	.st62{clip-path:url(#SVGID_13_);fill:#FFCE55;}
	.st63{clip-path:url(#SVGID_13_);fill:#FFCF55;}
	.st64{opacity:0.3;}
	.st65{fill:#FFFFFF;}
	.st66{fill:#FDE5C6;}
	.st67{fill:#FFC155;}
	.st68{fill:#FFCA55;}
</style>
<title>icon</title>
<g id="SVGID_1_">
	<ellipse class="st0" cx="30.3" cy="30.1" rx="21.7" ry="20.8"/>
</g>
<g>
	<path class="st1" d="M30.3,53.5C17,53.5,6.1,43,6.1,30.1S17,6.7,30.3,6.7s24.2,10.5,24.2,23.4S43.7,53.5,30.3,53.5z M30.3,11.8
		c-10.5,0-19.1,8.2-19.1,18.3c0,10.1,8.6,18.3,19.1,18.3c10.5,0,19.1-8.2,19.1-18.3C49.5,20,40.9,11.8,30.3,11.8z"/>
</g>
<g id="SVGID-2_1_">
	<path class="st2" d="M29.8,50.5C18.1,50.2,8.8,40.9,9.2,29.7s10-20.1,21.6-19.8s20.8,9.6,20.6,20.8S41.4,50.7,29.8,50.5z M30.7,11
		c-11-0.2-20.2,8.1-20.5,18.7s8.5,19.4,19.5,19.6S50,41.2,50.2,30.6S41.8,11.3,30.7,11z"/>
</g>
<g>
	<defs>
		<path id="SVGID_2_" d="M29.8,50.5C18.1,50.2,8.8,40.9,9.2,29.7s10-20.1,21.6-19.8s20.8,9.6,20.6,20.8S41.4,50.7,29.8,50.5z
			 M30.7,11c-11-0.2-20.2,8.1-20.5,18.7s8.5,19.4,19.5,19.6S50,41.2,50.2,30.6S41.8,11.3,30.7,11z"/>
	</defs>
	<clipPath id="SVGID_3_">
		<use xlink:href="#SVGID_2_"  style="overflow:visible;"/>
	</clipPath>
	<g class="st3">
		<g class="st4">
			<path class="st2" d="M12.1,49.2C1.3,39.6,0,22.9,9.8,12.5S37.4,2,48.2,11.6C48.9,12.2,12.8,49.8,12.1,49.2z"/>
		</g>
	</g>
</g>
<g id="SVGID-3_1_">
	<path class="st5" d="M29.4,52C16.7,51.7,6.5,41.5,6.8,29.3s11-22,23.7-21.7s22.9,10.5,22.6,22.7S42.2,52.3,29.4,52z M30.5,10.4
		c-11.2-0.3-20.5,8.3-20.7,19S18.4,49,29.5,49.2S50,41,50.2,30.2S41.6,10.6,30.5,10.4L30.5,10.4z"/>
</g>
<g>
	<defs>
		<path id="SVGID_4_" d="M29.4,52C16.7,51.7,6.5,41.5,6.8,29.3s11-22,23.7-21.7s22.9,10.5,22.6,22.7S42.2,52.3,29.4,52z M30.5,10.4
			c-11.2-0.3-20.5,8.3-20.7,19S18.4,49,29.5,49.2S50,41,50.2,30.2S41.6,10.6,30.5,10.4L30.5,10.4z"/>
	</defs>
	<clipPath id="SVGID_5_">
		<use xlink:href="#SVGID_4_"  style="overflow:visible;"/>
	</clipPath>
	<g class="st6">
		<g>
			<path class="st7" d="M10.6,48.1c-11-9.7-12.4-26.7-2.3-37.2S36.2,0.3,47.1,10C47.8,10.6,11.3,48.7,10.6,48.1z"/>
		</g>
	</g>
</g>
<g>
	<path class="st8" d="M50,30.1c0,10.5-8.9,19.1-19.8,19.1c-5.6,0-10.7-2.2-14.3-5.8c-3.4-3.4-5.6-8.1-5.6-13.2
		c0-10.5,8.9-19.1,19.9-19.1c4.8,0,9.1,1.6,12.5,4.3C47.1,18.8,50,24.1,50,30.1z"/>
</g>
<g>
	<path class="st8" d="M30,59.6C13.7,59.6,0.4,46.3,0.4,30S13.7,0.4,30,0.4S59.6,13.7,59.6,30S46.3,59.6,30,59.6z M30,1.6
		C14.3,1.6,1.6,14.3,1.6,30S14.3,58.4,30,58.4S58.4,45.7,58.4,30S45.7,1.6,30,1.6z"/>
</g>
<g>
	<defs>
		<path id="SVGID_6_" d="M4.4,51.4c0,0,0.9,1.1,1.8,2s1.9,1.9,1.9,1.9l6.4-5.9c-1.4-1.1-2.6-2.4-3.7-3.9L4.4,51.4z"/>
	</defs>
	<clipPath id="SVGID_7_">
		<use xlink:href="#SVGID_6_"  style="overflow:visible;"/>
	</clipPath>
	<g class="st9">
		<g>
			<polygon class="st10" points="5.5,52.7 4.2,51.3 10.6,45.2 12,46.6 			"/>
		</g>
	</g>
</g>
<g>
	<defs>
		<path id="SVGID_8_" d="M4.4,51.4c0,0,0.9,1.1,1.8,2s1.9,1.9,1.9,1.9l6.4-5.9c-1.4-1.1-2.6-2.4-3.7-3.9L4.4,51.4z"/>
	</defs>
	<clipPath id="SVGID_9_">
		<use xlink:href="#SVGID_8_"  style="overflow:visible;"/>
	</clipPath>
	<g class="st11">
		<g>
			<polygon class="st12" points="6.9,54.1 5.5,52.7 12,46.6 13.3,48 			"/>
		</g>
	</g>
</g>
<g>
	<defs>
		<path id="SVGID_10_" d="M4.4,51.4c0,0,0.9,1.1,1.8,2s1.9,1.9,1.9,1.9l6.4-5.9c-1.4-1.1-2.6-2.4-3.7-3.9L4.4,51.4z"/>
	</defs>
	<clipPath id="SVGID_11_">
		<use xlink:href="#SVGID_10_"  style="overflow:visible;"/>
	</clipPath>
	<g class="st13">
		<g>
			<polygon class="st14" points="8.2,55.6 6.9,54.1 13.3,48 14.7,49.5 			"/>
		</g>
	</g>
</g>
<g>
	<g>
		<g>
			<path class="st15" d="M38.1,22.7H27.3c-2.8,0.2-2.7,3.2-2.7,3.2l0,0v14.5h10.8V26C35.3,26,35.4,22.9,38.1,22.7z"/>
		</g>
		<g>
			<g>
				<defs>
					<path id="SVGID_12_" d="M37.6,22.5c-2.7,0.2-2.7,3.2-2.7,3.2v14.5H24.1V25.8c0,0,0-3,2.7-3.2H37.6z"/>
				</defs>
				<clipPath id="SVGID_13_">
					<use xlink:href="#SVGID_12_"  style="overflow:visible;"/>
				</clipPath>
				<polygon class="st16" points="28.5,40.3 37.6,36.4 37.6,40.3 				"/>
				<polygon class="st16" points="27.6,40.3 37.6,36 37.6,36.4 28.5,40.3 				"/>
				<polygon class="st17" points="26.6,40.3 37.6,35.6 37.6,36 27.6,40.3 				"/>
				<polygon class="st18" points="25.6,40.3 37.6,35.2 37.6,35.6 26.6,40.3 				"/>
				<polygon class="st19" points="24.7,40.3 37.6,34.8 37.6,35.2 25.6,40.3 				"/>
				<polygon class="st20" points="24.1,40.1 37.6,34.4 37.6,34.8 24.7,40.3 24.1,40.3 				"/>
				<polygon class="st21" points="24.1,39.7 37.6,34 37.6,34.4 24.1,40.1 				"/>
				<polygon class="st22" points="24.1,39.3 37.6,33.6 37.6,34 24.1,39.7 				"/>
				<polygon class="st23" points="24.1,38.9 37.6,33.1 37.6,33.6 24.1,39.3 				"/>
				<polygon class="st24" points="24.1,38.5 37.6,32.7 37.6,33.1 24.1,38.9 				"/>
				<polygon class="st25" points="24.1,38.1 37.6,32.3 37.6,32.7 24.1,38.5 				"/>
				<polygon class="st26" points="24.1,37.7 37.6,31.9 37.6,32.3 24.1,38.1 				"/>
				<polygon class="st27" points="24.1,37.3 37.6,31.5 37.6,31.9 24.1,37.7 				"/>
				<polygon class="st28" points="24.1,36.8 37.6,31.1 37.6,31.5 24.1,37.3 				"/>
				<polygon class="st29" points="24.1,36.4 37.6,30.7 37.6,31.1 24.1,36.8 				"/>
				<polygon class="st30" points="24.1,36 37.6,30.3 37.6,30.7 24.1,36.4 				"/>
				<polygon class="st31" points="24.1,35.6 37.6,29.9 37.6,30.3 24.1,36 				"/>
				<polygon class="st32" points="24.1,35.2 37.6,29.4 37.6,29.9 24.1,35.6 				"/>
				<polygon class="st33" points="24.1,34.8 37.6,29 37.6,29.4 24.1,35.2 				"/>
				<polygon class="st34" points="24.1,34.4 37.6,28.6 37.6,29 24.1,34.8 				"/>
				<polygon class="st35" points="24.1,34 37.6,28.2 37.6,28.6 24.1,34.4 				"/>
				<polygon class="st36" points="24.1,33.6 37.6,27.8 37.6,28.2 24.1,34 				"/>
				<polygon class="st37" points="24.1,33.1 37.6,27.4 37.6,27.8 24.1,33.6 				"/>
				<polygon class="st38" points="24.1,32.7 37.6,27 37.6,27.4 24.1,33.1 				"/>
				<polygon class="st39" points="24.1,32.3 37.6,26.6 37.6,27 24.1,32.7 				"/>
				<polygon class="st40" points="24.1,31.9 37.6,26.2 37.6,26.6 24.1,32.3 				"/>
				<polygon class="st41" points="24.1,31.5 37.6,25.7 37.6,26.2 24.1,31.9 				"/>
				<polygon class="st42" points="24.1,31.1 37.6,25.3 37.6,25.7 24.1,31.5 				"/>
				<polygon class="st43" points="24.1,30.7 37.6,24.9 37.6,25.3 24.1,31.1 				"/>
				<polygon class="st44" points="24.1,30.3 37.6,24.5 37.6,24.9 24.1,30.7 				"/>
				<polygon class="st45" points="24.1,29.9 37.6,24.1 37.6,24.5 24.1,30.3 				"/>
				<polygon class="st46" points="24.1,29.4 37.6,23.7 37.6,24.1 24.1,29.9 				"/>
				<polygon class="st47" points="24.1,29 37.6,23.3 37.6,23.7 24.1,29.4 				"/>
				<polygon class="st48" points="24.1,28.6 37.6,22.9 37.6,23.3 24.1,29 				"/>
				<polygon class="st49" points="24.1,28.2 37.4,22.5 37.6,22.5 37.6,22.9 24.1,28.6 				"/>
				<polygon class="st50" points="24.1,27.8 36.5,22.5 37.4,22.5 24.1,28.2 				"/>
				<polygon class="st51" points="24.1,27.4 35.5,22.5 36.5,22.5 24.1,27.8 				"/>
				<polygon class="st52" points="24.1,27 34.5,22.5 35.5,22.5 24.1,27.4 				"/>
				<polygon class="st53" points="24.1,26.6 33.6,22.5 34.5,22.5 24.1,27 				"/>
				<polygon class="st54" points="24.1,26.2 32.6,22.5 33.6,22.5 24.1,26.6 				"/>
				<polygon class="st55" points="24.1,25.7 31.6,22.5 32.6,22.5 24.1,26.2 				"/>
				<polygon class="st56" points="24.1,25.3 30.7,22.5 31.6,22.5 24.1,25.7 				"/>
				<polygon class="st57" points="24.1,24.9 29.7,22.5 30.7,22.5 24.1,25.3 				"/>
				<polygon class="st58" points="24.1,24.5 28.7,22.5 29.7,22.5 24.1,24.9 				"/>
				<polygon class="st59" points="24.1,24.1 27.8,22.5 28.7,22.5 24.1,24.5 				"/>
				<polygon class="st60" points="24.1,23.7 26.8,22.5 27.8,22.5 24.1,24.1 				"/>
				<polygon class="st61" points="24.1,23.3 25.8,22.5 26.8,22.5 24.1,23.7 				"/>
				<polygon class="st62" points="24.1,22.9 24.9,22.5 25.8,22.5 24.1,23.3 				"/>
				<polygon class="st63" points="24.9,22.5 24.1,22.9 24.1,22.5 				"/>
			</g>
		</g>
		<g class="st64">
			<rect x="25.5" y="26.3" class="st65" width="7.4" height="0.7"/>
		</g>
		<g class="st64">
			<rect x="25.5" y="27.9" class="st65" width="6.3" height="0.5"/>
		</g>
		<g class="st64">
			<rect x="25.5" y="29.1" class="st65" width="3.2" height="0.7"/>
		</g>
		<g class="st64">
			<rect x="29.6" y="29.1" class="st65" width="3.3" height="0.7"/>
		</g>
		<g class="st64">
			<rect x="25.5" y="30.4" class="st65" width="5.1" height="0.5"/>
		</g>
		<g class="st64">
			<rect x="25.5" y="31.6" class="st65" width="5.7" height="0.3"/>
		</g>
	</g>
	<g>
		<g>
			<g>
				<path class="st66" d="M28.6,37.9h-2.4c0,0,0,0,0,0c0,0,0,0,0,0l1.2-3.4c0,0,0,0,0,0s0,0,0,0L28.6,37.9
					C28.6,37.9,28.6,37.9,28.6,37.9C28.6,37.9,28.6,37.9,28.6,37.9z M26.3,37.9h2.3l-1.1-3.3L26.3,37.9z"/>
			</g>
		</g>
		<g>
			<g>
				<path class="st66" d="M22,37.9h-2.4c0,0,0,0,0,0c0,0,0,0,0,0l1.2-3.4c0,0,0,0,0,0s0,0,0,0L22,37.9C22,37.9,22,37.9,22,37.9
					C22,37.9,22,37.9,22,37.9z M19.6,37.9h2.3l-1.1-3.3L19.6,37.9z"/>
			</g>
		</g>
		<g>
			<g>
				<path class="st66" d="M27.7,34.5c-0.2,0.1-0.3,0.1-0.5,0.1c-0.1,0-0.2,0-0.2,0c-0.1,0-0.2,0-0.2,0c-0.1,0-0.2,0-0.2,0l-0.2,0
					c-0.1,0-0.3-0.1-0.4-0.1c0,0,0,0,0,0l0,0l0,0h0c0,0,0,0,0,0l0,0l0,0c-0.1,0-0.1,0-0.2,0c-0.1,0-0.3,0.1-0.4,0.1l0,0l0,0l0,0l0,0
					l0,0c0,0,0,0,0,0c0,0,0,0,0,0l0,0l0,0c0,0-0.1,0-0.1,0c-0.1,0-0.1,0.1-0.2,0.1c-0.1,0.1-0.2,0.2-0.3,0.2
					C24.2,35,24.1,35.1,24,35c0,0-0.1,0-0.1-0.1l0,0l0,0c-0.1-0.1-0.2-0.2-0.3-0.2c-0.1,0-0.1-0.1-0.2-0.1l0,0c0,0,0,0-0.1,0l0,0
					l0,0l0,0l0,0l0,0l0,0c-0.1,0-0.3-0.1-0.4-0.1c0,0-0.1,0-0.1,0c0,0,0,0,0,0l0,0c0,0,0,0-0.1,0h0c0,0,0,0,0,0l0,0h0l0,0l0,0
					c0,0-0.1,0-0.1,0c-0.1,0-0.3,0-0.4,0.1l-0.2,0l-0.1,0c0,0-0.1,0-0.1,0c-0.2,0-0.3,0-0.5,0c-0.1,0-0.2,0-0.2,0c0,0-0.1,0-0.1,0
					c0,0,0,0-0.1,0l-0.1,0c0,0-0.1,0-0.1-0.1c0,0,0,0,0,0c0,0,0.1-0.1,0.1-0.1l0.1,0c0,0,0,0,0.1,0c0,0,0.1,0,0.1,0
					c0.1,0,0.1,0,0.2,0c0.1,0,0.3-0.1,0.4-0.1c0,0,0.1,0,0.1,0l0.1,0l0.2-0.1c0.1-0.1,0.3-0.1,0.5-0.2c0,0,0.1,0,0.1,0l0,0l0,0l0,0
					l0,0l0,0l0,0c0,0,0,0,0.1,0c0,0,0,0,0.1,0c0,0,0,0,0.1,0c0,0,0.1,0,0.1,0c0.2,0,0.3,0,0.5,0.1l0.1,0l0,0l0,0l0,0l0,0l0,0l0,0
					c0,0,0,0,0.1,0l0.1,0c0.1,0,0.2,0.1,0.2,0.1c0.1,0,0.2,0.1,0.2,0.1c0.1,0,0.2-0.1,0.2-0.1c0.1,0,0.2-0.1,0.2-0.1
					c0,0,0.1,0,0.1,0l0,0l0,0l0,0l0,0l0,0l0,0l0,0l0.1,0c0.2,0,0.3-0.1,0.5-0.1c0.1,0,0.2,0,0.3,0l0.1,0l0,0l0,0l0,0l0,0l0,0l0,0
					l0.1,0c0,0,0,0,0.1,0c0.2,0,0.3,0.1,0.5,0.1l0.2,0.1c0.1,0,0.1,0.1,0.2,0.1c0.1,0,0.1,0,0.2,0.1c0.1,0,0.1,0,0.2,0
					c0.1,0,0.3,0,0.4,0l0,0c0.1,0,0.1,0,0.1,0.1C27.7,34.4,27.7,34.5,27.7,34.5z"/>
			</g>
		</g>
		<g>
			<g>
				<path class="st66" d="M25.7,40L25.7,40c0,0.1-0.1,0.2-0.1,0.2h-3c-0.1,0-0.1-0.1-0.1-0.1V40c0-0.1,0.1-0.1,0.1-0.1h3
					c0,0,0,0,0,0C25.7,39.8,25.7,39.9,25.7,40z"/>
			</g>
		</g>
		<g>
			<g>
				<path class="st66" d="M26.3,40.3L26.3,40.3c0,0.1-0.1,0.2-0.1,0.2h-4c-0.1,0-0.1-0.1-0.1-0.1v-0.1c0-0.1,0.1-0.1,0.1-0.1h4
					C26.2,40.2,26.3,40.2,26.3,40.3z"/>
			</g>
		</g>
		<g>
			<g>
				<path class="st66" d="M24.5,39.7C24.5,39.8,24.4,39.8,24.5,39.7l-0.7,0.1c-0.5-0.6,0-2.9,0-2.9h0.6C24.4,36.9,24.9,39,24.5,39.7
					z"/>
			</g>
		</g>
		<g>
			<g>
				<path class="st66" d="M24.4,35.7c0,0.5-0.1,0.9-0.1,1.1c0,0.1-0.1,0.1-0.1,0.1c-0.2,0-0.3-0.5-0.3-1.2c0-0.7,0.1-1.2,0.3-1.2
					c0.1,0,0.1,0.1,0.2,0.3C24.3,35.1,24.4,35.4,24.4,35.7z"/>
			</g>
		</g>
		<g>
			<g>
				<path class="st66" d="M25.1,39.6L25.1,39.6c0,0.1-0.1,0.2-0.1,0.2h-1.7c-0.1,0-0.1-0.1-0.1-0.1v-0.1c0-0.1,0.1-0.1,0.1-0.1H25
					C25,39.5,25.1,39.5,25.1,39.6z"/>
			</g>
		</g>
		<g>
			<g>
				<path class="st66" d="M22,37.8C22,37.8,22,37.9,22,37.8c-0.2,0.4-0.7,0.6-1.2,0.6c-0.5,0-1-0.2-1.2-0.5c0,0,0-0.1,0-0.1H22z"/>
			</g>
		</g>
		<g>
			<g>
				<path class="st66" d="M28.6,37.9c-0.3,0.3-0.7,0.5-1.2,0.5c-0.2,0-0.4,0-0.6-0.1c0,0,0,0,0,0c-0.3-0.1-0.5-0.2-0.7-0.4
					c0,0,0-0.1,0-0.1L28.6,37.9C28.6,37.8,28.6,37.9,28.6,37.9z"/>
			</g>
		</g>
		<g>
			<g>
				<path class="st66" d="M24.7,34.4c0,0.1,0,0.3-0.1,0.4c-0.1,0.1-0.3,0.2-0.5,0.2c-0.1,0-0.2,0-0.3-0.1c-0.1,0-0.1-0.1-0.1-0.1
					c0,0,0,0,0,0c-0.1-0.1-0.1-0.2-0.1-0.4c0-0.3,0.6-1,0.6-1S24.6,34.1,24.7,34.4C24.7,34.4,24.7,34.4,24.7,34.4z"/>
			</g>
		</g>
		<g>
			<g>
				<path class="st66" d="M24.6,36.9c0,0.2-0.2,0.3-0.5,0.3c-0.1,0-0.1,0-0.2,0c0,0,0,0,0,0c-0.2-0.1-0.3-0.2-0.3-0.3
					c0-0.2,0.2-0.3,0.5-0.3c0.2,0,0.3,0,0.4,0.1C24.5,36.8,24.6,36.8,24.6,36.9z"/>
			</g>
		</g>
		<g>
			<g>
				<path class="st66" d="M24.1,34.8c-0.2,0-0.3-0.1-0.3-0.3c0-0.2,0.1-0.3,0.3-0.3s0.3,0.1,0.3,0.3C24.4,34.7,24.3,34.8,24.1,34.8z
					 M24.1,34.2c-0.2,0-0.3,0.1-0.3,0.3c0,0.2,0.1,0.3,0.3,0.3s0.3-0.1,0.3-0.3C24.4,34.4,24.3,34.2,24.1,34.2z"/>
			</g>
		</g>
	</g>
	<g>
		<g>
			<g>
				<path class="st67" d="M23.3,30.1h-6.6v-4.6h6.6V30.1z M16.8,30h6.3v-4.3h-6.3V30z"/>
			</g>
		</g>
		<g>
			<g>
				<path class="st68" d="M19.1,27.2C19,27.2,19,27.2,19.1,27.2c-0.1-0.1-0.2-0.1-0.2-0.1c0,0-0.1,0-0.2-0.1c-0.1,0-0.1,0-0.2,0
					l0,0.6l0.1,0c0.1,0,0.2,0.1,0.3,0.1c0.1,0,0.2,0.1,0.2,0.1c0.1,0,0.1,0.1,0.1,0.2c0,0.1,0.1,0.2,0.1,0.3c0,0.1,0,0.2-0.1,0.3
					c0,0.1-0.1,0.1-0.2,0.2c-0.1,0.1-0.2,0.1-0.2,0.1c-0.1,0-0.2,0-0.3,0l0,0.3l-0.2,0l0-0.3c-0.1,0-0.3,0-0.4-0.1
					c-0.1,0-0.3-0.1-0.4-0.2l0.2-0.3c0,0,0.1,0.1,0.1,0.1c0,0,0.1,0.1,0.2,0.1c0.1,0,0.1,0.1,0.2,0.1c0.1,0,0.1,0,0.2,0l0-0.6
					c0,0,0,0,0,0c0,0,0,0,0,0c-0.1,0-0.2-0.1-0.3-0.1c-0.1,0-0.1-0.1-0.2-0.1c-0.1,0-0.1-0.1-0.1-0.2c0-0.1,0-0.1,0-0.2
					c0-0.1,0-0.2,0.1-0.3c0-0.1,0.1-0.1,0.1-0.2c0.1-0.1,0.1-0.1,0.2-0.1c0.1,0,0.2-0.1,0.3-0.1l0-0.3l0.2,0l0,0.3
					c0.1,0,0.3,0,0.4,0.1c0.1,0,0.2,0.1,0.3,0.2L19.1,27.2z M18,27.3c0,0.1,0,0.2,0.1,0.2c0.1,0,0.2,0.1,0.3,0.1l0-0.6
					c-0.1,0-0.2,0-0.3,0.1C18.1,27.2,18,27.2,18,27.3z M18.9,28.4c0-0.1,0-0.2-0.1-0.2c-0.1,0-0.2-0.1-0.3-0.1l0,0.6
					c0.1,0,0.2,0,0.3-0.1C18.9,28.5,18.9,28.5,18.9,28.4z"/>
			</g>
		</g>
		<g>
			<rect x="20" y="26.9" class="st66" width="2.6" height="0.4"/>
		</g>
		<g>
			<rect x="20" y="27.7" class="st66" width="2" height="0.4"/>
		</g>
		<g>
			<rect x="20" y="28.5" class="st66" width="2.3" height="0.4"/>
		</g>
		<g>
			<g>
				<polygon class="st68" points="18.9,30.5 16.3,30.5 16.3,28.1 16.4,28.1 16.4,30.4 18.9,30.4 				"/>
			</g>
		</g>
	</g>
	<g>
		<g>
			<g>
				<path class="st67" d="M36.9,21.9h-6.6v-3.6h6.6V21.9z M30.5,21.7h6.3v-3.4h-6.3V21.7z"/>
			</g>
		</g>
		<g>
			<polygon class="st68" points="33.1,19.6 33.1,20.1 33.3,20.1 33.3,19.3 32.5,19.4 32.5,19.5 33,19.5 32.1,20.5 31.2,19.7 
				31,19.8 32.1,20.8 			"/>
		</g>
		<g>
			<rect x="33.9" y="19" class="st66" width="2.3" height="0.4"/>
		</g>
		<g>
			<rect x="33.9" y="19.8" class="st66" width="1.8" height="0.4"/>
		</g>
		<g>
			<rect x="33.9" y="20.6" class="st66" width="2.1" height="0.4"/>
		</g>
		<g>
			<g>
				<polygon class="st68" points="30.1,19.8 30,19.8 30,17.9 33.2,17.9 33.2,18 30.1,18 				"/>
			</g>
		</g>
	</g>
	<g>
		<g>
			<g>
				<path class="st67" d="M42.7,34.1h-6.6v-3.7h6.6V34.1z M36.2,34h6.3v-3.4h-6.3V34z"/>
			</g>
		</g>
		<g>
			<rect x="39.6" y="31.7" class="st66" width="1.8" height="0.4"/>
		</g>
		<g>
			<rect x="39.6" y="32.5" class="st66" width="2.1" height="0.4"/>
		</g>
		<g>
			<g>
				<polygon class="st68" points="43,32.8 42.8,32.8 42.8,30.3 40.1,30.3 40.1,30.2 43,30.2 				"/>
			</g>
		</g>
		<g>
			<g>
				<g>
					<g>
						<path class="st67" d="M38,32.7C38,32.7,37.9,32.6,38,32.7L37.9,32c0,0,0-0.1,0.1-0.1c0,0,0.1,0,0.1,0.1L38,32.7
							C38.1,32.6,38,32.7,38,32.7z"/>
					</g>
				</g>
				<g>
					<g>
						<path class="st67" d="M38,33C38,33,38,33,38,33C37.9,32.9,37.9,32.9,38,33c-0.1-0.1-0.1-0.1-0.1-0.1c0,0,0.1,0,0.1,0
							C38.1,32.9,38.1,32.9,38,33C38.1,32.9,38.1,32.9,38,33C38,33,38,33,38,33z"/>
					</g>
				</g>
			</g>
			<g>
				<g>
					<path class="st67" d="M39.1,33.3C39.1,33.3,39.1,33.3,39.1,33.3h-2.2c0,0,0,0-0.1,0c0,0,0,0,0-0.1l1.1-2.1c0,0,0.1,0,0.1,0
						l1.1,2.1C39.2,33.2,39.2,33.2,39.1,33.3C39.2,33.3,39.2,33.3,39.1,33.3z M37,33.2h2l-1-1.8L37,33.2z"/>
				</g>
			</g>
		</g>
	</g>
</g>
<g class="st4">
	<path class="st65" d="M42.6,15.3l-26.8,28c-3.4-3.4-5.6-8.1-5.6-13.2c0-10.5,8.9-19.1,19.9-19.1C34.8,11,39.2,12.6,42.6,15.3z"/>
</g>
</svg>
