<?xml version="1.0" encoding="utf-8"?>
<!-- Generator: Adobe Illustrator 18.0.0, SVG Export Plug-In . SVG Version: 6.00 Build 0)  -->
<!DOCTYPE svg PUBLIC "-//W3C//DTD SVG 1.1//EN" "http://www.w3.org/Graphics/SVG/1.1/DTD/svg11.dtd">
<svg version="1.1" id="Layer_1" xmlns="http://www.w3.org/2000/svg" xmlns:xlink="http://www.w3.org/1999/xlink" x="0px" y="0px"
	 viewBox="0 0 100 100" enable-background="new 0 0 100 100" xml:space="preserve">
<g>
	<g>
		<g>
			<defs>
				<path id="SVGID_13_" d="M14.1,50.5c0.1-19.9,16.5-36,36.7-36s36.5,16.3,36.4,36.2s-16.5,36-36.7,36S14,70.4,14.1,50.5z"/>
			</defs>
			<use xlink:href="#SVGID_13_"  overflow="visible" fill="#706F6F"/>
			<clipPath id="SVGID_2_">
				<use xlink:href="#SVGID_13_"  overflow="visible"/>
			</clipPath>
			<use xlink:href="#SVGID_13_"  overflow="visible" fill="none" stroke="#B1B1B1" stroke-width="4.8396" stroke-miterlimit="10"/>
		</g>
	</g>
	<g>
		<defs>
			<path id="SVGID_15_" d="M84.4,50.1c-0.1,18.8-15.5,34-34.6,33.9c-19-0.1-34.4-15.3-34.3-34.1s15.5-34,34.6-33.9
				C69.1,16,84.5,31.3,84.4,50.1z"/>
		</defs>
		<clipPath id="SVGID_4_">
			<use xlink:href="#SVGID_15_"  overflow="visible"/>
		</clipPath>
		<g clip-path="url(#SVGID_4_)">
			<g>
				<path fill="#AFCE65" d="M45,63.2c1.2-6,8.4-9,8.5-15.5c0.1-5.1-6-13.5-6-17.1c0-9.9,2-13,3.3-15.1l-52.3-0.2l-0.3,70.4l43.6,0.1
					l2.6,0C43.9,81.3,43.1,72.6,45,63.2z"/>
				<path fill="#60ADE0" d="M96.3,86.1l0.3-70.4l-45.8-0.1l0,0c-1.3,2.1-3.3,5.2-3.3,15.1c0,3.7,6.1,12.1,6,17.1
					c-0.1,6.5-7.3,9.5-8.5,15.5c-1.9,9.4-1.1,18-0.5,22.7L96.3,86.1z"/>
				<path fill="#587B2C" stroke="#FFFFFF" stroke-width="1.5675" stroke-miterlimit="10" d="M62.3,63.9c-1.5,0.1-4.1-7.3-2.5-13.6
					c1.5-6.3,0.5-12.3,3.3-12.6c2.3-0.3,5.6-1.8,3.6,13.2C66.2,54.6,63.8,63.8,62.3,63.9z"/>
			</g>
			<g>
				<line fill="#AFCE65" stroke="#FFFFFF" stroke-width="0.4258" stroke-miterlimit="10" x1="12.6" y1="15.4" x2="12.4" y2="85.8"/>
				<line fill="#AFCE65" stroke="#FFFFFF" stroke-width="0.4258" stroke-miterlimit="10" x1="-1.5" y1="31.4" x2="96.5" y2="31.7"/>
				<line fill="#AFCE65" stroke="#FFFFFF" stroke-width="0.4258" stroke-miterlimit="10" x1="-1.7" y1="70.7" x2="96.4" y2="71"/>
				<line fill="#AFCE65" stroke="#FFFFFF" stroke-width="0.4258" stroke-miterlimit="10" x1="33.8" y1="15.4" x2="33.6" y2="85.9"/>
				<line fill="#AFCE65" stroke="#FFFFFF" stroke-width="0.4258" stroke-miterlimit="10" x1="81.2" y1="15.6" x2="80.9" y2="86"/>
				<line fill="#AFCE65" stroke="#FFFFFF" stroke-width="0.4258" stroke-miterlimit="10" x1="-1.6" y1="50.5" x2="96.5" y2="50.9"/>
				<line fill="#AFCE65" stroke="#FFFFFF" stroke-width="0.4258" stroke-miterlimit="10" x1="63.4" y1="15.5" x2="63.2" y2="86"/>
			</g>
		</g>
	</g>
	<g>
		<defs>
			<path id="SVGID_17_" d="M50.3,85.8C30.7,85.8,14.8,70,14.8,50.6c0.1-19.4,16.1-35.1,35.7-35.1C70.2,15.6,86.1,31.4,86,50.8
				C86,70.2,69.9,85.9,50.3,85.8z M50.6,17.4C32,17.4,16.8,32.2,16.8,50.6s15,33.3,33.5,33.4C68.9,84,84,69.1,84.1,50.8
				C84.2,32.4,69.1,17.5,50.6,17.4z"/>
		</defs>
		<use xlink:href="#SVGID_17_"  overflow="visible" fill="#868686"/>
		<clipPath id="SVGID_6_">
			<use xlink:href="#SVGID_17_"  overflow="visible"/>
		</clipPath>
		<path opacity="0.5" clip-path="url(#SVGID_6_)" fill="#868686" d="M20.6,84.3C2.1,68.1-0.9,39.1,15.6,20.7s45.9-19.1,64.5-2.9
			C81.2,18.9,21.8,85.3,20.6,84.3z"/>
	</g>
	<path opacity="0.5" fill="#FFFFFF" d="M25.3,76.4C10,63,7.6,39,21.1,23.8s38-15.8,53.3-2.4C75.4,22.3,26.3,77.2,25.3,76.4z"/>
	<g>
		<defs>
			<path id="SVGID_19_" d="M49.9,88.5C28.4,88.4,11,71.1,11,49.9c0.1-21.2,17.6-38.4,39.1-38.4C71.6,11.6,89,28.9,89,50.1
				C88.9,71.3,71.3,88.6,49.9,88.5z M50.1,16.3c-18.8-0.1-34.1,15-34.2,33.6c-0.1,18.6,15.2,33.7,34,33.8
				c18.8,0.1,34.1-15,34.2-33.6S68.9,16.4,50.1,16.3z"/>
		</defs>
		<use xlink:href="#SVGID_19_"  overflow="visible" fill="#D9D9D9"/>
		<clipPath id="SVGID_8_">
			<use xlink:href="#SVGID_19_"  overflow="visible"/>
		</clipPath>
		<path clip-path="url(#SVGID_8_)" fill="#EDECEC" d="M17.9,82.4C-0.9,66-3.8,36.6,12.8,18s46.5-19.3,65.3-2.9
			C79.3,16.1,19.1,83.4,17.9,82.4z"/>
	</g>
	<g>
		<g>
			<defs>
				<path id="SVGID_21_" d="M68.5,46.1c0-9.5-7.5-17.2-16.9-17.2c-9.4,0-17,7.6-17.1,17.1c0,3.3,0.9,6.4,2.5,9
					c5.9,10.6,14.4,16,14.4,16s8.5-5.4,14.5-15.9C67.6,52.5,68.5,49.5,68.5,46.1z"/>
			</defs>
			<use xlink:href="#SVGID_21_"  overflow="visible" fill="#878787"/>
			<clipPath id="SVGID_10_">
				<use xlink:href="#SVGID_21_"  overflow="visible"/>
			</clipPath>
			<path opacity="0.3" clip-path="url(#SVGID_10_)" fill="#706F6F" d="M24.9,77C9.6,63.6,7.2,39.6,20.7,24.4s38-15.8,53.3-2.4
				C75,22.9,25.9,77.8,24.9,77z"/>
		</g>
		<g>
			<defs>
				<path id="SVGID_23_" d="M67.6,45.5c0-9.5-7.5-17.2-16.9-17.2c-9.4,0-17,7.6-17.1,17.1c0,3.3,0.9,6.4,2.5,9
					c5.9,10.6,14.4,16,14.4,16s8.5-5.4,14.5-15.9C66.7,51.9,67.6,48.8,67.6,45.5z"/>
			</defs>
			<use xlink:href="#SVGID_23_"  overflow="visible" fill="#E95153"/>
			<clipPath id="SVGID_12_">
				<use xlink:href="#SVGID_23_"  overflow="visible"/>
			</clipPath>
			<path opacity="0.3" clip-path="url(#SVGID_12_)" fill="#FFFFFF" d="M24,76.4C8.7,63,6.3,39,19.9,23.8s38-15.8,53.3-2.4
				C74.1,22.3,25,77.2,24,76.4z"/>
		</g>
		<path fill="#B34040" stroke="#A13A39" stroke-width="0.6174" stroke-miterlimit="10" d="M59.2,45.5c0,4.8-3.9,8.7-8.6,8.6
			c-4.7,0-8.6-3.9-8.6-8.7c0-4.8,3.9-8.7,8.6-8.6C55.4,36.8,59.2,40.7,59.2,45.5z"/>
	</g>
	<path fill="none" stroke="#E94F53" stroke-width="1.9589" stroke-miterlimit="10" d="M1,49.8C1.1,22.8,23.1,0.9,50.2,1
		S99.1,23.1,99,50.2S76.9,99.1,49.8,99C22.8,98.9,0.9,76.9,1,49.8z"/>
	<polygon opacity="0.5" fill="#1D1D1B" points="18.2,88.6 19.6,87.1 20.5,87.9 19.1,89.3 	"/>
	<g>
		<defs>
			<path id="SVGID_25_" d="M7.5,87c0,0,1.6,1.8,3.1,3.3c1.5,1.5,3.3,3.1,3.3,3.1l10.7-10.3c0,0-3.6-2.7-6.4-6.5L7.5,87z"/>
		</defs>
		<clipPath id="SVGID_14_">
			<use xlink:href="#SVGID_25_"  overflow="visible"/>
		</clipPath>
		<polygon clip-path="url(#SVGID_14_)" fill="#D9D9D9" points="9.4,89.2 7,86.9 17.7,76.4 20.1,78.7 		"/>
		<polygon clip-path="url(#SVGID_14_)" fill="#C6C5C6" points="11.7,91.5 9.4,89.2 20.1,78.7 22.4,81 		"/>
		<polygon clip-path="url(#SVGID_14_)" fill="#B1B1B1" points="14.1,93.9 11.7,91.5 22.4,81 24.8,83.4 		"/>
	</g>
</g>
</svg>
