<?xml version="1.0" encoding="utf-8"?>
<!-- Generator: Adobe Illustrator 18.0.0, SVG Export Plug-In . SVG Version: 6.00 Build 0)  -->
<!DOCTYPE svg PUBLIC "-//W3C//DTD SVG 1.1//EN" "http://www.w3.org/Graphics/SVG/1.1/DTD/svg11.dtd">
<svg version="1.1" id="Layer_1" xmlns="http://www.w3.org/2000/svg" xmlns:xlink="http://www.w3.org/1999/xlink" x="0px" y="0px"
	 viewBox="0 0 100 100" enable-background="new 0 0 100 100" xml:space="preserve">
<g>
	<g>
		<g>
			<g>
				<defs>
					<path id="SVGID_5_" d="M14.1,49.8c0.5-19.9,17.2-35.7,37.4-35.2s36.1,17,35.7,36.9c-0.5,19.9-17.2,35.7-37.4,35.2
						S13.6,69.7,14.1,49.8z"/>
				</defs>
				<use xlink:href="#SVGID_5_"  overflow="visible" fill="#706F6F"/>
				<clipPath id="SVGID_2_">
					<use xlink:href="#SVGID_5_"  overflow="visible"/>
				</clipPath>
				<use xlink:href="#SVGID_5_"  overflow="visible" fill="none" stroke="#B1B1B1" stroke-width="4.8396" stroke-miterlimit="10"/>
			</g>
		</g>
		<g>
			<defs>
				<path id="SVGID_7_" d="M49.6,85.8c-19.6-0.4-35.2-16.6-34.8-36c0.5-19.4,16.8-34.8,36.4-34.4C70.9,16,86.5,32.1,86,51.5
					S69.2,86.3,49.6,85.8z M51.2,17.4c-18.6-0.4-34,14.2-34.4,32.5s14.3,33.6,32.9,34s34-14.2,34.4-32.5S69.8,17.9,51.2,17.4z"/>
			</defs>
			<use xlink:href="#SVGID_7_"  overflow="visible" fill="#868686"/>
			<clipPath id="SVGID_4_">
				<use xlink:href="#SVGID_7_"  overflow="visible"/>
			</clipPath>
			<path opacity="0.5" clip-path="url(#SVGID_4_)" fill="#868686" d="M20,83.7C1.7,67.2-0.6,38.1,16.1,20.1s46.3-18.2,64.6-1.6
				C81.8,19.5,21.1,84.8,20,83.7z"/>
		</g>
		<path fill="none" stroke="#7BCBE6" stroke-width="1.9589" stroke-miterlimit="10" d="M1,48.9C1.6,21.8,24.1,0.4,51.1,1
			s48.5,23,47.8,50.1C98.4,78.2,75.9,99.6,48.9,99C21.8,98.4,0.4,75.9,1,48.9z"/>
		<polygon opacity="0.5" fill="#1D1D1B" points="17.5,88 18.8,86.5 19.8,87.3 18.3,88.7 		"/>
		<g>
			<defs>
				<path id="SVGID_9_" d="M6.7,86.2c0,0,1.5,1.9,3,3.4c1.5,1.5,3.3,3.2,3.3,3.2l10.9-10.1c0,0-3.6-2.8-6.3-6.6L6.7,86.2z"/>
			</defs>
			<clipPath id="SVGID_6_">
				<use xlink:href="#SVGID_9_"  overflow="visible"/>
			</clipPath>
			<polygon clip-path="url(#SVGID_6_)" fill="#D9D9D9" points="8.6,88.4 6.3,86 17.2,75.7 19.5,78.1 			"/>
			<polygon clip-path="url(#SVGID_6_)" fill="#C6C5C6" points="10.9,90.8 8.6,88.4 19.5,78.1 21.8,80.5 			"/>
			<polygon clip-path="url(#SVGID_6_)" fill="#B1B1B1" points="13.2,93.2 10.9,90.8 21.8,80.5 24.1,82.9 			"/>
		</g>
	</g>
	<path fill="none" stroke="#FFFFFF" stroke-width="1.1796" stroke-miterlimit="10" d="M46.5,70.5"/>
	<line fill="none" x1="35.6" y1="70.8" x2="23.2" y2="69.4"/>
	<line fill="none" x1="32.3" y1="30.1" x2="50.5" y2="35.7"/>
	<path fill="#067AAC" d="M83.8,50.7c0,18.2-14.9,32.9-33.4,32.9S17.1,68.9,17.1,50.7c0-9.1,3.8-17.4,9.9-23.4
		c6-5.9,14.3-9.6,23.5-9.6c4.7,0,9.2,1,13.2,2.7c2.9,1.2,5.6,2.9,8,4.8C79,31.3,83.8,40.4,83.8,50.7z"/>
	<g opacity="0.32">
		<g>
			<line fill="#FFFFFF" stroke="#FFFFFF" stroke-width="0.1833" stroke-miterlimit="10" x1="58.7" y1="45.8" x2="73.1" y2="56"/>
			<line fill="#FFFFFF" stroke="#FFFFFF" stroke-width="0.1833" stroke-miterlimit="10" x1="58.6" y1="61.9" x2="58.7" y2="45.8"/>
			<line fill="#FFFFFF" stroke="#FFFFFF" stroke-width="0.1833" stroke-miterlimit="10" x1="58.6" y1="61.9" x2="73.1" y2="56"/>
			<line fill="#FFFFFF" stroke="#FFFFFF" stroke-width="0.1833" stroke-miterlimit="10" x1="73.1" y1="56" x2="72" y2="70.8"/>
			<line fill="#FFFFFF" stroke="#FFFFFF" stroke-width="0.1833" stroke-miterlimit="10" x1="72" y1="70.8" x2="58.6" y2="61.9"/>
			<line fill="#FFFFFF" stroke="#FFFFFF" stroke-width="0.1833" stroke-miterlimit="10" x1="72" y1="70.8" x2="80.4" y2="65.3"/>
			<line fill="#FFFFFF" stroke="#FFFFFF" stroke-width="0.1833" stroke-miterlimit="10" x1="83.1" y1="42.7" x2="73.6" y2="38.2"/>
			<line fill="#FFFFFF" stroke="#FFFFFF" stroke-width="0.1833" stroke-miterlimit="10" x1="73.6" y1="38.2" x2="58.8" y2="45.3"/>
			<line fill="#FFFFFF" stroke="#FFFFFF" stroke-width="0.1833" stroke-miterlimit="10" x1="73.6" y1="38.2" x2="73.1" y2="56"/>
			<line fill="#FFFFFF" stroke="#FFFFFF" stroke-width="0.1833" stroke-miterlimit="10" x1="73.1" y1="56" x2="83.8" y2="46.5"/>
			<line fill="#FFFFFF" stroke="#FFFFFF" stroke-width="0.1833" stroke-miterlimit="10" x1="82.8" y1="58.5" x2="73.1" y2="56"/>
			<line fill="#FFFFFF" stroke="#FFFFFF" stroke-width="0.1833" stroke-miterlimit="10" x1="59.3" y1="45.5" x2="83.5" y2="44.3"/>
			<line fill="#FFFFFF" stroke="#FFFFFF" stroke-width="0.1833" stroke-miterlimit="10" x1="82.2" y1="60.6" x2="58" y2="61.7"/>
			<line fill="#FFFFFF" stroke="#FFFFFF" stroke-width="0.1833" stroke-miterlimit="10" x1="72" y1="70.8" x2="84.3" y2="49"/>
			<line fill="#FFFFFF" stroke="#FFFFFF" stroke-width="0.1833" stroke-miterlimit="10" x1="72" y1="70.8" x2="58.8" y2="45.3"/>
			<line fill="#FFFFFF" stroke="#FFFFFF" stroke-width="0.1833" stroke-miterlimit="10" x1="73.6" y1="38.2" x2="58.6" y2="61.9"/>
			<line fill="#FFFFFF" stroke="#FFFFFF" stroke-width="0.1833" stroke-miterlimit="10" x1="73.6" y1="38.2" x2="83.8" y2="53.6"/>
		</g>
		<g>
			<line fill="#FFFFFF" stroke="#FFFFFF" stroke-width="0.1833" stroke-miterlimit="10" x1="54.3" y1="26" x2="68.7" y2="36.2"/>
			<line fill="#FFFFFF" stroke="#FFFFFF" stroke-width="0.1833" stroke-miterlimit="10" x1="54.2" y1="42.1" x2="54.3" y2="26"/>
			<line fill="#FFFFFF" stroke="#FFFFFF" stroke-width="0.1833" stroke-miterlimit="10" x1="54.2" y1="42.1" x2="68.7" y2="36.2"/>
			<line fill="#FFFFFF" stroke="#FFFFFF" stroke-width="0.1833" stroke-miterlimit="10" x1="68.7" y1="36.2" x2="67.6" y2="51"/>
			<line fill="#FFFFFF" stroke="#FFFFFF" stroke-width="0.1833" stroke-miterlimit="10" x1="67.6" y1="51" x2="54.2" y2="42.1"/>
			<line fill="#FFFFFF" stroke="#FFFFFF" stroke-width="0.1833" stroke-miterlimit="10" x1="67.6" y1="51" x2="82.8" y2="41.5"/>
			<line fill="#FFFFFF" stroke="#FFFFFF" stroke-width="0.1833" stroke-miterlimit="10" x1="64.3" y1="20.7" x2="54.4" y2="25.6"/>
			<line fill="#FFFFFF" stroke="#FFFFFF" stroke-width="0.1833" stroke-miterlimit="10" x1="69" y1="22.9" x2="68.7" y2="36.2"/>
			<line fill="#FFFFFF" stroke="#FFFFFF" stroke-width="0.1833" stroke-miterlimit="10" x1="68.7" y1="36.2" x2="76.4" y2="29.6"/>
			<line fill="#FFFFFF" stroke="#FFFFFF" stroke-width="0.1833" stroke-miterlimit="10" x1="82.2" y1="39.7" x2="68.7" y2="36.2"/>
			<line fill="#FFFFFF" stroke="#FFFFFF" stroke-width="0.1833" stroke-miterlimit="10" x1="54.4" y1="25.6" x2="71.6" y2="24.7"/>
			<line fill="#FFFFFF" stroke="#FFFFFF" stroke-width="0.1833" stroke-miterlimit="10" x1="82.6" y1="40.7" x2="52.3" y2="42.1"/>
			<line fill="#FFFFFF" stroke="#FFFFFF" stroke-width="0.1833" stroke-miterlimit="10" x1="67.6" y1="51" x2="78.3" y2="32.1"/>
			<line fill="#FFFFFF" stroke="#FFFFFF" stroke-width="0.1833" stroke-miterlimit="10" x1="67.6" y1="51" x2="54.4" y2="25.6"/>
			<line fill="#FFFFFF" stroke="#FFFFFF" stroke-width="0.1833" stroke-miterlimit="10" x1="67" y1="21.7" x2="54.2" y2="42.1"/>
			<path fill="#FFFFFF" stroke="#FFFFFF" stroke-width="0.1833" stroke-miterlimit="10" d="M83.8,40.5"/>
		</g>
		<g>
			<line fill="#FFFFFF" stroke="#FFFFFF" stroke-width="0.1833" stroke-miterlimit="10" x1="37" y1="21.4" x2="51.4" y2="31.6"/>
			<line fill="#FFFFFF" stroke="#FFFFFF" stroke-width="0.1833" stroke-miterlimit="10" x1="36.9" y1="37.5" x2="37" y2="21.4"/>
			<line fill="#FFFFFF" stroke="#FFFFFF" stroke-width="0.1833" stroke-miterlimit="10" x1="36.9" y1="37.5" x2="51.4" y2="31.6"/>
			<line fill="#FFFFFF" stroke="#FFFFFF" stroke-width="0.1833" stroke-miterlimit="10" x1="51.4" y1="31.6" x2="50.3" y2="46.4"/>
			<line fill="#FFFFFF" stroke="#FFFFFF" stroke-width="0.1833" stroke-miterlimit="10" x1="50.3" y1="46.4" x2="36.9" y2="37.5"/>
			<line fill="#FFFFFF" stroke="#FFFFFF" stroke-width="0.1833" stroke-miterlimit="10" x1="50.3" y1="46.4" x2="66.5" y2="35.9"/>
			<line fill="#FFFFFF" stroke="#FFFFFF" stroke-width="0.1833" stroke-miterlimit="10" x1="66.5" y1="35.9" x2="64.7" y2="20.7"/>
			<line fill="#FFFFFF" stroke="#FFFFFF" stroke-width="0.1833" stroke-miterlimit="10" x1="43.4" y1="18.3" x2="37.1" y2="20.9"/>
			<line fill="#B36B15" stroke="#FFFFFF" stroke-width="0.1833" stroke-miterlimit="10" x1="51.9" y1="17.5" x2="51.4" y2="31.6"/>
			<line fill="#FFFFFF" stroke="#FFFFFF" stroke-width="0.1833" stroke-miterlimit="10" x1="51.4" y1="31.6" x2="64" y2="20.5"/>
			<line fill="#FFFFFF" stroke="#FFFFFF" stroke-width="0.1833" stroke-miterlimit="10" x1="67" y1="35.9" x2="51.4" y2="31.6"/>
			<line fill="#FFFFFF" stroke="#FFFFFF" stroke-width="0.1833" stroke-miterlimit="10" x1="37.6" y1="21.1" x2="63.1" y2="19.9"/>
			<line fill="#FFFFFF" stroke="#FFFFFF" stroke-width="0.1833" stroke-miterlimit="10" x1="67" y1="35.9" x2="36.3" y2="37.3"/>
			<line fill="#FFFFFF" stroke="#FFFFFF" stroke-width="0.1833" stroke-miterlimit="10" x1="50.3" y1="46.4" x2="64.6" y2="20.5"/>
			<line fill="#FFFFFF" stroke="#FFFFFF" stroke-width="0.1833" stroke-miterlimit="10" x1="50.3" y1="46.4" x2="37.1" y2="20.9"/>
			<line fill="#FFFFFF" stroke="#FFFFFF" stroke-width="0.1833" stroke-miterlimit="10" x1="49.3" y1="17.5" x2="36.9" y2="37.5"/>
			<line fill="#FFFFFF" stroke="#FFFFFF" stroke-width="0.1833" stroke-miterlimit="10" x1="54.7" y1="18" x2="66.5" y2="35.9"/>
		</g>
		<g>
			<line fill="#FFFFFF" stroke="#FFFFFF" stroke-width="0.1833" stroke-miterlimit="10" x1="27.2" y1="58.5" x2="41.5" y2="68.7"/>
			<line fill="#FFFFFF" stroke="#FFFFFF" stroke-width="0.1833" stroke-miterlimit="10" x1="27" y1="74.6" x2="27.2" y2="58.5"/>
			<line fill="#FFFFFF" stroke="#FFFFFF" stroke-width="0.1833" stroke-miterlimit="10" x1="27" y1="74.6" x2="41.5" y2="68.7"/>
			<line fill="#FFFFFF" stroke="#FFFFFF" stroke-width="0.1833" stroke-miterlimit="10" x1="41.5" y1="68.7" x2="40.4" y2="83.5"/>
			<line fill="#FFFFFF" stroke="#FFFFFF" stroke-width="0.1833" stroke-miterlimit="10" x1="40.4" y1="83.5" x2="27" y2="74.6"/>
			<line fill="#FFFFFF" stroke="#FFFFFF" stroke-width="0.1833" stroke-miterlimit="10" x1="40.4" y1="83.5" x2="56.7" y2="73"/>
			<line fill="#FFFFFF" stroke="#FFFFFF" stroke-width="0.1833" stroke-miterlimit="10" x1="56.7" y1="73" x2="54.8" y2="57"/>
			<line fill="#FFFFFF" stroke="#FFFFFF" stroke-width="0.1833" stroke-miterlimit="10" x1="54.8" y1="57" x2="42" y2="50.9"/>
			<line fill="#FFFFFF" stroke="#FFFFFF" stroke-width="0.1833" stroke-miterlimit="10" x1="42" y1="50.9" x2="27.2" y2="58"/>
			<line fill="#FFFFFF" stroke="#FFFFFF" stroke-width="0.1833" stroke-miterlimit="10" x1="42" y1="50.9" x2="41.5" y2="68.7"/>
			<line fill="#FFFFFF" stroke="#FFFFFF" stroke-width="0.1833" stroke-miterlimit="10" x1="41.5" y1="68.7" x2="54.8" y2="57"/>
			<line fill="#FFFFFF" stroke="#FFFFFF" stroke-width="0.1833" stroke-miterlimit="10" x1="57.1" y1="73" x2="41.5" y2="68.7"/>
			<line fill="#FFFFFF" stroke="#FFFFFF" stroke-width="0.1833" stroke-miterlimit="10" x1="27.7" y1="58.2" x2="55.2" y2="56.8"/>
			<line fill="#FFFFFF" stroke="#FFFFFF" stroke-width="0.1833" stroke-miterlimit="10" x1="57.1" y1="73" x2="26.4" y2="74.4"/>
			<line fill="#FFFFFF" stroke="#FFFFFF" stroke-width="0.1833" stroke-miterlimit="10" x1="40.4" y1="83.5" x2="55.2" y2="56.8"/>
			<line fill="#FFFFFF" stroke="#FFFFFF" stroke-width="0.1833" stroke-miterlimit="10" x1="40.4" y1="83.5" x2="27.2" y2="58"/>
			<line fill="#FFFFFF" stroke="#FFFFFF" stroke-width="0.1833" stroke-miterlimit="10" x1="42" y1="50.9" x2="27" y2="74.6"/>
			<line fill="#FFFFFF" stroke="#FFFFFF" stroke-width="0.1833" stroke-miterlimit="10" x1="42" y1="50.9" x2="56.7" y2="73"/>
		</g>
		<g>
			<line fill="#FFFFFF" stroke="#FFFFFF" stroke-width="0.1833" stroke-miterlimit="10" x1="27.6" y1="26.5" x2="38.4" y2="34.3"/>
			<line fill="#FFFFFF" stroke="#FFFFFF" stroke-width="0.1833" stroke-miterlimit="10" x1="23.9" y1="40.2" x2="24.1" y2="30.4"/>
			<line fill="#FFFFFF" stroke="#FFFFFF" stroke-width="0.1833" stroke-miterlimit="10" x1="23.9" y1="40.2" x2="38.4" y2="34.3"/>
			<line fill="#FFFFFF" stroke="#FFFFFF" stroke-width="0.1833" stroke-miterlimit="10" x1="38.4" y1="34.3" x2="37.3" y2="49.1"/>
			<line fill="#FFFFFF" stroke="#FFFFFF" stroke-width="0.1833" stroke-miterlimit="10" x1="37.3" y1="49.1" x2="23.9" y2="40.2"/>
			<line fill="#FFFFFF" stroke="#FFFFFF" stroke-width="0.1833" stroke-miterlimit="10" x1="37.3" y1="49.1" x2="53.5" y2="38.6"/>
			<line fill="#FFFFFF" stroke="#FFFFFF" stroke-width="0.1833" stroke-miterlimit="10" x1="53.5" y1="38.6" x2="51.6" y2="22.6"/>
			<line fill="#FFFFFF" stroke="#FFFFFF" stroke-width="0.1833" stroke-miterlimit="10" x1="51.6" y1="22.6" x2="42.6" y2="18.3"/>
			<line fill="#FFFFFF" stroke="#FFFFFF" stroke-width="0.1833" stroke-miterlimit="10" x1="38.9" y1="16.5" x2="24.1" y2="23.7"/>
			<line fill="#FFFFFF" stroke="#FFFFFF" stroke-width="0.1833" stroke-miterlimit="10" x1="38.8" y1="19.8" x2="38.4" y2="34.3"/>
			<line fill="#FFFFFF" stroke="#FFFFFF" stroke-width="0.1833" stroke-miterlimit="10" x1="38.4" y1="34.3" x2="51.6" y2="22.6"/>
			<line fill="#FFFFFF" stroke="#FFFFFF" stroke-width="0.1833" stroke-miterlimit="10" x1="54" y1="38.7" x2="38.4" y2="34.3"/>
			<line fill="#FFFFFF" stroke="#FFFFFF" stroke-width="0.1833" stroke-miterlimit="10" x1="31.1" y1="23.7" x2="52.1" y2="22.4"/>
			<line fill="#FFFFFF" stroke="#FFFFFF" stroke-width="0.1833" stroke-miterlimit="10" x1="54" y1="38.7" x2="23.3" y2="40.1"/>
			<line fill="#FFFFFF" stroke="#FFFFFF" stroke-width="0.1833" stroke-miterlimit="10" x1="37.3" y1="49.1" x2="52.1" y2="22.4"/>
			<line fill="#FFFFFF" stroke="#FFFFFF" stroke-width="0.1833" stroke-miterlimit="10" x1="37.3" y1="49.1" x2="26.3" y2="27.9"/>
			<line fill="#FFFFFF" stroke="#FFFFFF" stroke-width="0.1833" stroke-miterlimit="10" x1="36.1" y1="20.7" x2="23.9" y2="40.2"/>
			<line fill="#FFFFFF" stroke="#FFFFFF" stroke-width="0.1833" stroke-miterlimit="10" x1="40.5" y1="18.9" x2="53.5" y2="38.6"/>
		</g>
		<g>
			<line fill="#FFFFFF" stroke="#FFFFFF" stroke-width="0.1833" stroke-miterlimit="10" x1="17.4" y1="46.2" x2="29.8" y2="55"/>
			<line fill="#FFFFFF" stroke="#FFFFFF" stroke-width="0.1833" stroke-miterlimit="10" x1="15.3" y1="60.9" x2="15.5" y2="44.8"/>
			<line fill="#FFFFFF" stroke="#FFFFFF" stroke-width="0.1833" stroke-miterlimit="10" x1="18.3" y1="59.7" x2="29.8" y2="55"/>
			<line fill="#FFFFFF" stroke="#FFFFFF" stroke-width="0.1833" stroke-miterlimit="10" x1="29.8" y1="55" x2="28.7" y2="69.7"/>
			<line fill="#FFFFFF" stroke="#FFFFFF" stroke-width="0.1833" stroke-miterlimit="10" x1="28.7" y1="69.7" x2="19.5" y2="63.6"/>
			<line fill="#FFFFFF" stroke="#FFFFFF" stroke-width="0.1833" stroke-miterlimit="10" x1="28.7" y1="69.7" x2="45" y2="59.3"/>
			<line fill="#FFFFFF" stroke="#FFFFFF" stroke-width="0.1833" stroke-miterlimit="10" x1="45" y1="59.3" x2="43.1" y2="43.3"/>
			<line fill="#FFFFFF" stroke="#FFFFFF" stroke-width="0.1833" stroke-miterlimit="10" x1="43.1" y1="43.3" x2="30.3" y2="37.2"/>
			<line fill="#FFFFFF" stroke="#FFFFFF" stroke-width="0.1833" stroke-miterlimit="10" x1="30.3" y1="37.2" x2="17.7" y2="43.3"/>
			<line fill="#FFFFFF" stroke="#FFFFFF" stroke-width="0.1833" stroke-miterlimit="10" x1="30.3" y1="37.2" x2="29.8" y2="55"/>
			<line fill="#FFFFFF" stroke="#FFFFFF" stroke-width="0.1833" stroke-miterlimit="10" x1="29.8" y1="55" x2="43.1" y2="43.3"/>
			<line fill="#FFFFFF" stroke="#FFFFFF" stroke-width="0.1833" stroke-miterlimit="10" x1="45.5" y1="59.3" x2="29.8" y2="55"/>
			<line fill="#FFFFFF" stroke="#FFFFFF" stroke-width="0.1833" stroke-miterlimit="10" x1="17.4" y1="44.4" x2="43.5" y2="43.1"/>
			<line fill="#FFFFFF" stroke="#FFFFFF" stroke-width="0.1833" stroke-miterlimit="10" x1="45.5" y1="59.3" x2="18.6" y2="60.5"/>
			<line fill="#FFFFFF" stroke="#FFFFFF" stroke-width="0.1833" stroke-miterlimit="10" x1="28.7" y1="69.7" x2="43.5" y2="43.1"/>
			<line fill="#FFFFFF" stroke="#FFFFFF" stroke-width="0.1833" stroke-miterlimit="10" x1="28.7" y1="69.7" x2="17.1" y2="47.1"/>
			<line fill="#FFFFFF" stroke="#FFFFFF" stroke-width="0.1833" stroke-miterlimit="10" x1="30.3" y1="37.2" x2="17.7" y2="57"/>
			<line fill="#FFFFFF" stroke="#FFFFFF" stroke-width="0.1833" stroke-miterlimit="10" x1="30.3" y1="37.2" x2="45" y2="59.3"/>
		</g>
		<g>
			<line fill="#FFFFFF" stroke="#FFFFFF" stroke-width="0.1833" stroke-miterlimit="10" x1="44.4" y1="60.2" x2="58.8" y2="70.4"/>
			<line fill="#FFFFFF" stroke="#FFFFFF" stroke-width="0.1833" stroke-miterlimit="10" x1="44.3" y1="76.3" x2="44.4" y2="60.2"/>
			<line fill="#FFFFFF" stroke="#FFFFFF" stroke-width="0.1833" stroke-miterlimit="10" x1="44.3" y1="76.3" x2="58.8" y2="70.4"/>
			<line fill="#FFFFFF" stroke="#FFFFFF" stroke-width="0.1833" stroke-miterlimit="10" x1="58.8" y1="70.4" x2="57.7" y2="85.2"/>
			<line fill="#FFFFFF" stroke="#FFFFFF" stroke-width="0.1833" stroke-miterlimit="10" x1="57.7" y1="85.2" x2="44.3" y2="76.3"/>
			<line fill="#FFFFFF" stroke="#FFFFFF" stroke-width="0.1833" stroke-miterlimit="10" x1="57.7" y1="85.2" x2="74" y2="74.7"/>
			<line fill="#FFFFFF" stroke="#FFFFFF" stroke-width="0.1833" stroke-miterlimit="10" x1="74" y1="74.7" x2="72.1" y2="58.7"/>
			<line fill="#FFFFFF" stroke="#FFFFFF" stroke-width="0.1833" stroke-miterlimit="10" x1="72.1" y1="58.7" x2="59.3" y2="52.6"/>
			<line fill="#FFFFFF" stroke="#FFFFFF" stroke-width="0.1833" stroke-miterlimit="10" x1="59.3" y1="52.6" x2="44.5" y2="59.7"/>
			<line fill="#FFFFFF" stroke="#FFFFFF" stroke-width="0.1833" stroke-miterlimit="10" x1="59.3" y1="52.6" x2="58.8" y2="70.4"/>
			<line fill="#FFFFFF" stroke="#FFFFFF" stroke-width="0.1833" stroke-miterlimit="10" x1="58.8" y1="70.4" x2="72.1" y2="58.7"/>
			<line fill="#FFFFFF" stroke="#FFFFFF" stroke-width="0.1833" stroke-miterlimit="10" x1="74.4" y1="74.7" x2="58.8" y2="70.4"/>
			<line fill="#FFFFFF" stroke="#FFFFFF" stroke-width="0.1833" stroke-miterlimit="10" x1="45" y1="59.9" x2="72.5" y2="58.5"/>
			<line fill="#FFFFFF" stroke="#FFFFFF" stroke-width="0.1833" stroke-miterlimit="10" x1="74.4" y1="74.7" x2="43.7" y2="76.1"/>
			<line fill="#FFFFFF" stroke="#FFFFFF" stroke-width="0.1833" stroke-miterlimit="10" x1="57.7" y1="85.2" x2="72.5" y2="58.5"/>
			<line fill="#FFFFFF" stroke="#FFFFFF" stroke-width="0.1833" stroke-miterlimit="10" x1="57.7" y1="85.2" x2="44.5" y2="59.7"/>
			<line fill="#FFFFFF" stroke="#FFFFFF" stroke-width="0.1833" stroke-miterlimit="10" x1="59.3" y1="52.6" x2="44.3" y2="76.3"/>
			<line fill="#FFFFFF" stroke="#FFFFFF" stroke-width="0.1833" stroke-miterlimit="10" x1="59.3" y1="52.6" x2="74" y2="74.7"/>
		</g>
	</g>
	<polygon fill="#5E5E5E" points="32,30.7 32,71.6 72.5,71.6 72.5,43.3 60.3,30.7 	"/>
	<polygon fill="#66C4D9" points="31.1,29.6 31.1,70.6 71.6,70.6 71.6,42.2 59.4,29.6 	"/>
	<ellipse fill="#FFFFFF" cx="35.8" cy="44.3" rx="1.9" ry="1.9"/>
	<ellipse fill="#FFFFFF" cx="36.7" cy="60.3" rx="1.9" ry="1.9"/>
	<ellipse fill="#FFFFFF" stroke="#FFFFFF" stroke-width="0.2726" stroke-miterlimit="10" cx="51.1" cy="51.9" rx="3.1" ry="3.2"/>
	<ellipse fill="#FFFFFF" cx="51.8" cy="67.5" rx="1.9" ry="1.9"/>
	<ellipse fill="#FFFFFF" cx="49.6" cy="35.1" rx="1.9" ry="1.9"/>
	<ellipse fill="#FFFFFF" cx="62.3" cy="39.7" rx="1.9" ry="1.9"/>
	<ellipse fill="#FFFFFF" cx="66" cy="55.4" rx="1.9" ry="1.9"/>
	<line fill="#FFFFFF" stroke="#FFFFFF" stroke-width="0.5462" stroke-miterlimit="10" x1="35.8" y1="44.3" x2="51.2" y2="52.8"/>
	<line fill="#FFFFFF" stroke="#FFFFFF" stroke-width="0.5462" stroke-miterlimit="10" x1="37.5" y1="60.3" x2="35.8" y2="44.3"/>
	<line fill="#FFFFFF" stroke="#FFFFFF" stroke-width="0.5462" stroke-miterlimit="10" x1="37.5" y1="60.3" x2="51.2" y2="52.8"/>
	<line fill="#FFFFFF" stroke="#FFFFFF" stroke-width="0.5462" stroke-miterlimit="10" x1="51.2" y1="52.8" x2="51.8" y2="67.6"/>
	<line fill="#FFFFFF" stroke="#FFFFFF" stroke-width="0.5462" stroke-miterlimit="10" x1="51.8" y1="67.6" x2="37.5" y2="60.3"/>
	<line fill="#FFFFFF" stroke="#FFFFFF" stroke-width="0.5462" stroke-miterlimit="10" x1="51.8" y1="67.6" x2="66.7" y2="55.4"/>
	<line fill="#FFFFFF" stroke="#FFFFFF" stroke-width="0.5462" stroke-miterlimit="10" x1="66.7" y1="55.4" x2="63" y2="39.7"/>
	<line fill="#FFFFFF" stroke="#FFFFFF" stroke-width="0.5462" stroke-miterlimit="10" x1="63" y1="39.7" x2="49.6" y2="35.1"/>
	<line fill="#FFFFFF" stroke="#FFFFFF" stroke-width="0.5462" stroke-miterlimit="10" x1="49.6" y1="35.1" x2="35.8" y2="43.9"/>
	<line fill="#FFFFFF" stroke="#FFFFFF" stroke-width="0.5462" stroke-miterlimit="10" x1="49.6" y1="35.1" x2="51.2" y2="52.8"/>
	<line fill="#FFFFFF" stroke="#FFFFFF" stroke-width="0.5462" stroke-miterlimit="10" x1="51.2" y1="52.8" x2="63" y2="39.7"/>
	<line fill="#FFFFFF" stroke="#FFFFFF" stroke-width="0.5462" stroke-miterlimit="10" x1="67.2" y1="55.4" x2="51.2" y2="52.8"/>
	<line fill="#FFFFFF" stroke="#FFFFFF" stroke-width="0.5462" stroke-miterlimit="10" x1="36.3" y1="44" x2="63.4" y2="39.5"/>
	<line fill="#FFFFFF" stroke="#FFFFFF" stroke-width="0.5462" stroke-miterlimit="10" x1="67.2" y1="55.4" x2="36.9" y2="60.2"/>
	<line fill="#FFFFFF" stroke="#FFFFFF" stroke-width="0.5462" stroke-miterlimit="10" x1="51.8" y1="67.6" x2="63.4" y2="39.5"/>
	<line fill="#FFFFFF" stroke="#FFFFFF" stroke-width="0.5462" stroke-miterlimit="10" x1="51.8" y1="67.6" x2="35.8" y2="43.9"/>
	<line fill="#FFFFFF" stroke="#FFFFFF" stroke-width="0.5462" stroke-miterlimit="10" x1="49.6" y1="35.1" x2="37.5" y2="60.3"/>
	<line fill="#FFFFFF" stroke="#FFFFFF" stroke-width="0.5462" stroke-miterlimit="10" x1="49.6" y1="35.1" x2="66.7" y2="55.4"/>
	<g>
		<defs>
			<path id="SVGID_11_" d="M49.4,88.6c-21.5-0.5-38.5-18.1-38.1-39.4C11.8,28,29.7,11.1,51.2,11.6C72.6,12.1,89.7,29.7,89.2,51
				C88.7,72.2,70.8,89,49.4,88.6z M51,16.4C32.3,16,16.6,30.7,16.2,49.3c-0.4,18.6,14.5,34,33.3,34.4s34.4-14.3,34.9-32.9
				S69.8,16.8,51,16.4z"/>
		</defs>
		<use xlink:href="#SVGID_11_"  overflow="visible" fill="#D9D9D9"/>
		<clipPath id="SVGID_8_">
			<use xlink:href="#SVGID_11_"  overflow="visible"/>
		</clipPath>
		<path clip-path="url(#SVGID_8_)" fill="#EDECEC" d="M17.6,81.9C-0.9,65.1-3.3,35.6,13.7,17.4S60.6-1,79.1,15.7
			C80.2,16.8,18.7,82.9,17.6,81.9z"/>
	</g>
	<path opacity="0.5" fill="#FFFFFF" d="M28.9,76.2c-13.9-12-16.1-33.6-4-47.4s34.2-14.3,48-2.3C73.8,27.3,29.7,76.9,28.9,76.2z"/>
</g>
</svg>
