<?xml version="1.0" encoding="utf-8"?>
<!-- Generator: Adobe Illustrator 19.2.0, SVG Export Plug-In . SVG Version: 6.00 Build 0)  -->
<svg version="1.1" id="Layer_1" xmlns="http://www.w3.org/2000/svg" xmlns:xlink="http://www.w3.org/1999/xlink" x="0px" y="0px"
	 viewBox="0 0 600 600" style="enable-background:new 0 0 600 600;" xml:space="preserve">
<style type="text/css">
	.st0{fill:#FFFFFF;}
</style>
<g>
	<path class="st0" d="M53.1,321.6c-21.1,0-36.9,17.6-36.9,36.9v86.1c0,21.1,15.8,36.9,36.9,36.9c21.1,0,36.9-17.6,36.9-36.9v-86.1
		C90,339.2,74.2,321.6,53.1,321.6z"/>
	<path class="st0" d="M160.3,284.7c-21.1,0-36.9,17.6-36.9,36.9v158.2c0,21.1,15.8,36.9,36.9,36.9s36.9-17.6,36.9-36.9V321.6
		C197.2,300.5,181.4,284.7,160.3,284.7z"/>
	<path class="st0" d="M267.5,244.3c-21.1,0-36.9,17.6-36.9,36.9v240.7c0,21.1,14.1,36.9,35.1,36.9c21.1,0,36.9-17.6,36.9-36.9h1.8
		V281.2C304.4,260.1,288.6,244.3,267.5,244.3z"/>
	<path class="st0" d="M372.9,203.9c-21.1,0-36.9,17.6-36.9,36.9v319.8c0,19.3,15.8,36.9,35.1,36.9c21.1,0,36.9-17.6,36.9-36.9h1.8
		V240.8C409.8,219.7,392.3,203.9,372.9,203.9z"/>
	<path class="st0" d="M541.6,135.3L112.9,5.3C95.3,0,75.9,1.8,60.1,14.1C44.3,24.6,35.5,42.2,35.5,61.5v202.1
		c0,7,5.3,14.1,14.1,14.1c7,0,14.1-5.3,14.1-14.1V61.5c0-10.5,5.3-19.3,12.3-26.4c8.8-5.3,19.3-7,28.1-3.5l430.5,130
		c12.3,3.5,21.1,15.8,21.1,29.9V485c0,8.8-3.5,19.3-12.3,24.6c-8.8,7-19.3,8.8-28.1,5.3l-45.7-14.1c-7-3.5-15.8,1.8-17.6,8.8
		c-3.5,7,1.8,15.8,8.8,17.6l43.9,14.1c7,1.8,12.3,3.5,19.3,3.5c12.3,0,24.6-5.3,35.1-8.8c15.8-12.3,24.6-29.9,24.6-49.2V193.3
		C583.8,167,566.2,142.4,541.6,135.3z"/>
</g>
</svg>
