<svg width="120" height="120" viewBox="0 0 120 120" fill="none" xmlns="http://www.w3.org/2000/svg">
<g id="Icone_report" clip-path="url(#clip0_1_3)">
<path id="Oval" fill-rule="evenodd" clip-rule="evenodd" d="M0 60C0 93.1371 26.8629 120 60 120C93.1371 120 120 93.1371 120 60C120 26.8629 93.1371 0 60 0C26.8629 0 0 26.8629 0 60ZM117.209 60C117.209 91.5958 91.5958 117.209 60 117.209C28.4042 117.209 2.7907 91.5958 2.7907 60C2.7907 28.4042 28.4042 2.7907 60 2.7907C91.5958 2.7907 117.209 28.4042 117.209 60Z" fill="#9B1725"/>
<g id="&#195;&#141;con">
<path id="Elipse" d="M59.5 107C85.7335 107 107 85.7335 107 59.5C107 33.2665 85.7335 12 59.5 12C33.2665 12 12 33.2665 12 59.5C12 85.7335 33.2665 107 59.5 107Z" fill="#9B1725"/>
<path id="Vector" d="M55.491 43.6673V75.3422C55.491 75.6949 55.6311 76.0332 55.8805 76.2826C56.1299 76.5321 56.4682 76.6722 56.821 76.6722H62.141C62.4937 76.6722 62.832 76.5321 63.0814 76.2826C63.3308 76.0332 63.471 75.6949 63.471 75.3422V43.6673C63.471 43.3146 63.3308 42.9763 63.0814 42.7268C62.832 42.4774 62.4937 42.3373 62.141 42.3373H56.821C56.4682 42.3373 56.1299 42.4774 55.8805 42.7268C55.6311 42.9763 55.491 43.3146 55.491 43.6673ZM58.151 44.9973H60.811V74.0122H58.151V44.9973Z" fill="white"/>
<path id="Vector_2" d="M46.2856 55.5708C45.9328 55.5708 45.5945 55.7109 45.3451 55.9603C45.0957 56.2098 44.9556 56.5481 44.9556 56.9008V75.3422C44.9556 75.6949 45.0957 76.0332 45.3451 76.2827C45.5945 76.5321 45.9328 76.6722 46.2856 76.6722H51.6056C51.9583 76.6722 52.2966 76.5321 52.546 76.2827C52.7954 76.0332 52.9356 75.6949 52.9356 75.3422V56.9008C52.9356 56.5481 52.7954 56.2098 52.546 55.9603C52.2966 55.7109 51.9583 55.5708 51.6056 55.5708H46.2856ZM50.2756 74.0122H47.6156V58.2308H50.2756V74.0122Z" fill="white"/>
<path id="Vector_3" d="M72.7145 76.6722C73.0672 76.6722 73.4055 76.5321 73.6549 76.2827C73.9043 76.0332 74.0445 75.6949 74.0445 75.3422V51.4364C74.0445 51.0837 73.9043 50.7454 73.6549 50.4959C73.4055 50.2465 73.0672 50.1064 72.7145 50.1064H67.3945C67.0417 50.1064 66.7034 50.2465 66.454 50.4959C66.2046 50.7454 66.0645 51.0837 66.0645 51.4364V75.3422C66.0645 75.6949 66.2046 76.0332 66.454 76.2827C66.7034 76.5321 67.0417 76.6722 67.3945 76.6722H72.7145ZM68.7245 52.7664H71.3845V74.0122H68.7245V52.7664Z" fill="white"/>
<path id="Vector_4" d="M55.7514 85.4388C42.9321 83.6053 33.2668 72.4409 33.2668 59.4696C33.2456 53.0877 35.56 46.9185 39.7737 42.1253C43.9873 37.3321 49.8089 34.2461 56.1409 33.4491L55.5842 34.9007C55.4601 35.2284 55.4703 35.5918 55.6126 35.912C55.7549 36.2322 56.0178 36.4833 56.3442 36.6107C56.4963 36.6698 56.658 36.7 56.8211 36.7C57.0905 36.7001 57.3535 36.6184 57.5754 36.4657C57.7972 36.313 57.9675 36.0966 58.0637 35.845L59.4317 32.2711C59.5237 32.0314 59.5442 31.7701 59.491 31.519C59.4377 31.2678 59.3129 31.0374 59.1315 30.8556L56.405 28.1215C56.2818 27.9977 56.1353 27.8995 55.9741 27.8323C55.8129 27.7651 55.64 27.7304 55.4653 27.73C55.2907 27.7297 55.1176 27.7637 54.9561 27.8302C54.7946 27.8968 54.6478 27.9944 54.524 28.1177C54.4003 28.241 54.302 28.3874 54.2348 28.5486C54.1677 28.7099 54.1329 28.8827 54.1326 29.0574C54.1322 29.2321 54.1663 29.4051 54.2328 29.5666C54.2993 29.7281 54.397 29.8749 54.5202 29.9987L55.3866 30.8689C48.509 31.8602 42.2188 35.2966 37.6688 40.5485C33.1187 45.8004 30.6134 52.5159 30.6121 59.4647C30.6107 66.4134 33.1132 73.13 37.6612 78.3836C42.2092 83.6373 48.498 87.0762 55.3752 88.0703C55.4381 88.08 55.5016 88.0851 55.5652 88.0855C55.9019 88.0861 56.2263 87.959 56.4729 87.7299C56.7196 87.5007 56.8701 87.1865 56.8942 86.8507C56.9183 86.5149 56.8142 86.1825 56.6028 85.9205C56.3914 85.6584 56.0885 85.4863 55.7552 85.4388H55.7514Z" fill="white"/>
<path id="Vector_5" d="M81.2437 40.4411C76.6908 35.2351 70.4208 31.8358 63.5737 30.8613C63.4008 30.8363 63.2247 30.8457 63.0554 30.8888C62.8861 30.9319 62.727 31.008 62.587 31.1126C62.4471 31.2172 62.3292 31.3484 62.24 31.4986C62.1508 31.6488 62.092 31.8151 62.067 31.988C62.0421 32.1609 62.0514 32.337 62.0946 32.5063C62.1377 32.6756 62.2137 32.8348 62.3183 32.9747C62.423 33.1146 62.5541 33.2325 62.7043 33.3218C62.8545 33.411 63.0208 33.4697 63.1937 33.4947C76.0415 35.3073 85.7277 46.4736 85.7277 59.4696C85.7559 65.8458 83.4494 72.0119 79.2435 76.8044C75.0377 81.5969 69.2233 84.6844 62.8973 85.4844L63.3533 84.3444C63.4849 84.0169 63.4809 83.6505 63.3423 83.3259C63.2037 83.0013 62.9418 82.745 62.6142 82.6135C62.2867 82.482 61.9203 82.486 61.5957 82.6246C61.2711 82.7632 61.0149 83.0251 60.8833 83.3526L59.5799 86.6016C59.4839 86.84 59.459 87.101 59.5083 87.3533C59.5575 87.6055 59.6787 87.838 59.8573 88.0228L62.5059 90.7588C62.6275 90.8843 62.7725 90.9846 62.9328 91.0541C63.0931 91.1235 63.2655 91.1607 63.4401 91.1636C63.6148 91.1664 63.7883 91.1348 63.9508 91.0706C64.1132 91.0063 64.2614 90.9107 64.3869 90.7892C64.5124 90.6677 64.6128 90.5226 64.6822 90.3624C64.7517 90.2021 64.7889 90.0297 64.7917 89.855C64.7945 89.6803 64.7629 89.5068 64.6987 89.3444C64.6345 89.1819 64.5389 89.0337 64.4173 88.9082L63.606 88.0722C68.7544 87.3323 73.6076 85.2166 77.6537 81.9482C81.6998 78.6798 84.7888 74.38 86.5947 69.5023C88.4006 64.6246 88.8566 59.35 87.9145 54.2347C86.9723 49.1195 84.6671 44.3534 81.2418 40.4392L81.2437 40.4411Z" fill="white"/>
</g>
<g id="Group 69">
<path id="Rectangle Copy 8" fill-rule="evenodd" clip-rule="evenodd" d="M5.57007 104.742L18.9617 91.3509L26.8391 99.2283L13.4475 112.62L5.57007 104.742Z" fill="#E5E4E2"/>
<path id="Combined Shape" fill-rule="evenodd" clip-rule="evenodd" d="M22.9004 95.2896L9.50878 108.681L13.4475 112.62L26.8391 99.2283L22.9004 95.2896Z" fill="#CED0D0"/>
</g>
<path id="Combined Shape_2" opacity="0.151521" fill-rule="evenodd" clip-rule="evenodd" d="M25.625 92.5786C25.7546 92.7112 25.8852 92.8433 26.0166 92.9747C44.5066 111.465 74.4847 111.465 92.9747 92.9747C111.465 74.4848 111.465 44.5066 92.9747 26.0167C92.8432 25.8852 92.7112 25.7547 92.5785 25.6251L25.625 92.5786Z" fill="#792D35"/>
<g id="Group 70" filter="url(#filter0_d_1_3)">
<path id="Oval_2" fill-rule="evenodd" clip-rule="evenodd" d="M12 59.4515C12 85.6582 33.2447 106.903 59.4515 106.903C85.6582 106.903 106.903 85.6582 106.903 59.4515C106.903 33.2447 85.6582 12 59.4515 12C33.2447 12 12 33.2447 12 59.4515ZM101.32 59.4515C101.32 82.575 82.575 101.32 59.4515 101.32C36.3279 101.32 17.5825 82.575 17.5825 59.4515C17.5825 36.3279 36.3279 17.5825 59.4515 17.5825C82.575 17.5825 101.32 36.3279 101.32 59.4515Z" fill="#E5E4E2"/>
<path id="Combined Shape_3" fill-rule="evenodd" clip-rule="evenodd" d="M25.4004 92.5023C25.5303 92.6352 25.6611 92.7675 25.7929 92.8993C44.3238 111.43 74.3684 111.43 92.8994 92.8993C111.43 74.3683 111.43 44.3237 92.8994 25.7928C92.7676 25.661 92.6353 25.5302 92.5024 25.4003L88.5546 29.3481C88.6877 29.4777 88.8202 29.6085 88.9519 29.7402C105.303 46.0911 105.303 72.601 88.9519 88.9519C72.6011 105.303 46.0912 105.303 29.7403 88.9519C29.6085 88.8201 29.4778 88.6876 29.3482 88.5545L25.4004 92.5023Z" fill="#CED0D0"/>
</g>
</g>
<defs>
<filter id="filter0_d_1_3" x="10" y="10" width="98.9028" height="98.9029" filterUnits="userSpaceOnUse" color-interpolation-filters="sRGB">
<feFlood flood-opacity="0" result="BackgroundImageFix"/>
<feColorMatrix in="SourceAlpha" type="matrix" values="0 0 0 0 0 0 0 0 0 0 0 0 0 0 0 0 0 0 127 0" result="hardAlpha"/>
<feOffset/>
<feGaussianBlur stdDeviation="1"/>
<feColorMatrix type="matrix" values="0 0 0 0 0 0 0 0 0 0 0 0 0 0 0 0 0 0 0.6 0"/>
<feBlend mode="normal" in2="BackgroundImageFix" result="effect1_dropShadow_1_3"/>
<feBlend mode="normal" in="SourceGraphic" in2="effect1_dropShadow_1_3" result="shape"/>
</filter>
<clipPath id="clip0_1_3">
<rect width="120" height="120" fill="white"/>
</clipPath>
</defs>
</svg>
