<svg width="120" height="120" viewBox="0 0 120 120" fill="none" xmlns="http://www.w3.org/2000/svg">
<g clip-path="url(#clip0_5840_21619)">
<path fill-rule="evenodd" clip-rule="evenodd" d="M0 60C0 93.1371 26.8629 120 60 120C93.1371 120 120 93.1371 120 60C120 26.8629 93.1371 0 60 0C26.8629 0 0 26.8629 0 60ZM117.209 60C117.209 91.5958 91.5958 117.209 60 117.209C28.4042 117.209 2.7907 91.5958 2.7907 60C2.7907 28.4042 28.4042 2.7907 60 2.7907C91.5958 2.7907 117.209 28.4042 117.209 60Z" fill="#303965"/>
<path d="M59.5 107C85.7335 107 107 85.7335 107 59.5C107 33.2665 85.7335 12 59.5 12C33.2665 12 12 33.2665 12 59.5C12 85.7335 33.2665 107 59.5 107Z" fill="#303965"/>
<path fill-rule="evenodd" clip-rule="evenodd" d="M5.57007 104.742L18.9617 91.3508L26.8391 99.2282L13.4475 112.62L5.57007 104.742Z" fill="#E5E4E2"/>
<path fill-rule="evenodd" clip-rule="evenodd" d="M22.9004 95.2896L9.50878 108.681L13.4475 112.62L26.8391 99.2283L22.9004 95.2896Z" fill="#CED0D0"/>
<path fill-rule="evenodd" clip-rule="evenodd" d="M59.5 42.9375C50.3674 42.9375 42.9375 50.3674 42.9375 59.5C42.9375 68.6326 50.3674 76.0625 59.5 76.0625C68.6326 76.0625 76.0625 68.6326 76.0625 59.5C76.0625 50.3674 68.6326 42.9375 59.5 42.9375ZM59.5 79.375C48.5406 79.375 39.625 70.4594 39.625 59.5C39.625 48.5406 48.5406 39.625 59.5 39.625C70.4594 39.625 79.375 48.5406 79.375 59.5C79.375 70.4594 70.4594 79.375 59.5 79.375Z" fill="white"/>
<path fill-rule="evenodd" clip-rule="evenodd" d="M59.5 51.2188C54.9337 51.2188 51.2188 54.9337 51.2188 59.5C51.2188 64.0663 54.9337 67.7812 59.5 67.7812C64.0663 67.7812 67.7812 64.0663 67.7812 59.5C67.7812 54.9337 64.0663 51.2188 59.5 51.2188ZM59.5 71.0938C53.1085 71.0938 47.9062 65.8931 47.9062 59.5C47.9062 53.1069 53.1085 47.9062 59.5 47.9062C65.8915 47.9062 71.0938 53.1069 71.0938 59.5C71.0938 65.8931 65.8915 71.0938 59.5 71.0938Z" fill="white"/>
<path fill-rule="evenodd" clip-rule="evenodd" d="M59.5 86C58.5841 86 57.8438 85.258 57.8438 84.3438V34.6562C57.8438 33.742 58.5841 33 59.5 33C60.4159 33 61.1562 33.742 61.1562 34.6562V84.3438C61.1562 85.258 60.4159 86 59.5 86Z" fill="white"/>
<path fill-rule="evenodd" clip-rule="evenodd" d="M84.3438 61.1562H34.6562C33.7403 61.1562 33 60.4142 33 59.5C33 58.5858 33.7403 57.8438 34.6562 57.8438H84.3438C85.2597 57.8438 86 58.5858 86 59.5C86 60.4142 85.2597 61.1562 84.3438 61.1562Z" fill="white"/>
<path opacity="0.151521" fill-rule="evenodd" clip-rule="evenodd" d="M25.625 92.5786C25.7546 92.7112 25.8852 92.8433 26.0166 92.9747C44.5066 111.465 74.4847 111.465 92.9747 92.9747C111.465 74.4848 111.465 44.5066 92.9747 26.0167C92.8432 25.8852 92.7112 25.7547 92.5785 25.6251L25.625 92.5786Z" fill="#303965"/>
<g filter="url(#filter0_d_5840_21619)">
<path fill-rule="evenodd" clip-rule="evenodd" d="M12 59.4515C12 85.6582 33.2447 106.903 59.4515 106.903C85.6582 106.903 106.903 85.6582 106.903 59.4515C106.903 33.2447 85.6582 12 59.4515 12C33.2447 12 12 33.2447 12 59.4515ZM101.32 59.4515C101.32 82.575 82.575 101.32 59.4515 101.32C36.3279 101.32 17.5825 82.575 17.5825 59.4515C17.5825 36.3279 36.3279 17.5825 59.4515 17.5825C82.575 17.5825 101.32 36.3279 101.32 59.4515Z" fill="#E5E4E2"/>
<path fill-rule="evenodd" clip-rule="evenodd" d="M25.4004 92.5023C25.5303 92.6352 25.6611 92.7676 25.7929 92.8993C44.3238 111.43 74.3684 111.43 92.8994 92.8993C111.43 74.3684 111.43 44.3238 92.8994 25.7928C92.7676 25.6611 92.6353 25.5302 92.5024 25.4003L88.5546 29.3481C88.6877 29.4777 88.8202 29.6085 88.9519 29.7403C105.303 46.0911 105.303 72.601 88.9519 88.9519C72.6011 105.303 46.0912 105.303 29.7403 88.9519C29.6085 88.8201 29.4778 88.6876 29.3482 88.5545L25.4004 92.5023Z" fill="#CED0D0"/>
</g>
</g>
<defs>
<filter id="filter0_d_5840_21619" x="10" y="10" width="98.9028" height="98.903" filterUnits="userSpaceOnUse" color-interpolation-filters="sRGB">
<feFlood flood-opacity="0" result="BackgroundImageFix"/>
<feColorMatrix in="SourceAlpha" type="matrix" values="0 0 0 0 0 0 0 0 0 0 0 0 0 0 0 0 0 0 127 0" result="hardAlpha"/>
<feOffset/>
<feGaussianBlur stdDeviation="1"/>
<feColorMatrix type="matrix" values="0 0 0 0 0 0 0 0 0 0 0 0 0 0 0 0 0 0 0.6 0"/>
<feBlend mode="normal" in2="BackgroundImageFix" result="effect1_dropShadow_5840_21619"/>
<feBlend mode="normal" in="SourceGraphic" in2="effect1_dropShadow_5840_21619" result="shape"/>
</filter>
<clipPath id="clip0_5840_21619">
<rect width="120" height="120" fill="white"/>
</clipPath>
</defs>
</svg>
