<svg width="100%" height="100%" viewBox="0 0 126 114" fill="none" xmlns="http://www.w3.org/2000/svg">
    <path d="M66.0753 107.5C36.39 107.5 12.3253 83.4353 12.3253 53.75C12.3253 24.0647 36.39 0 66.0753 0C95.7607 0 119.825 24.0647 119.825 53.75C119.825 83.4353 95.7607 107.5 66.0753 107.5ZM66.0753 105C94.3799 105 117.325 82.0546 117.325 53.75C117.325 25.4454 94.3799 2.5 66.0753 2.5C37.7708 2.5 14.8253 25.4454 14.8253 53.75C14.8253 82.0546 37.7708 105 66.0753 105Z" fill="#6897B5"/>
    <path d="M65.8253 96C89.2974 96 108.325 76.9721 108.325 53.5C108.325 30.0279 89.2974 11 65.8253 11C42.3532 11 23.3253 30.0279 23.3253 53.5C23.3253 76.9721 42.3532 96 65.8253 96Z" fill="#1C799E"/>
    <path d="M29.3469 82L17.326 94.0208L24.3971 101.092L36.4179 89.0711L29.3469 82Z" fill="#E5E4E2"/>
    <path fill-rule="evenodd" clip-rule="evenodd" d="M36.4179 89.0711L24.397 101.092L20.8615 97.5564L32.8823 85.5355L36.4179 89.0711Z" fill="#CED0D0"/>
    <path opacity="0.5" fill-rule="evenodd" clip-rule="evenodd" d="M95.783 23.3532C112.38 39.9505 112.38 66.86 95.783 83.4573C79.1857 100.055 52.2762 100.055 35.6789 83.4573C35.5607 83.339 35.4434 83.2203 35.3268 83.1011L95.4266 23.0025L95.783 23.3532Z" fill="#1A6381"/>
    <g filter="url(#filter0_d)">
        <path d="M65.8253 91C86.536 91 103.325 74.2107 103.325 53.5C103.325 32.7893 86.536 16 65.8253 16C45.1147 16 28.3253 32.7893 28.3253 53.5C28.3253 74.2107 45.1147 91 65.8253 91ZM65.8253 96C42.3532 96 23.3253 76.9721 23.3253 53.5C23.3253 30.0279 42.3532 11 65.8253 11C89.2974 11 108.325 30.0279 108.325 53.5C108.325 76.9721 89.2974 96 65.8253 96Z" fill="#E5E4E2"/>
        <path d="M95.7829 23.3535C112.38 39.9508 112.38 66.8603 95.7829 83.4576C79.1857 100.055 52.2761 100.055 35.6789 83.4576L35.3281 83.1012L38.8629 79.566C38.9791 79.6853 39.0963 79.804 39.2144 79.9221C53.8591 94.5668 77.6027 94.5668 92.2474 79.9221C106.892 65.2774 106.892 41.5337 92.2474 26.8891L91.891 26.5384L95.4267 23.0014C95.546 23.118 95.6647 23.2353 95.7829 23.3535Z" fill="#CED0D0"/>
    </g>
    <circle cx="64.9806" cy="28.9052" r="3.90521" fill="white"/>
    <circle cx="48.061" cy="61.4485" r="1.73565" fill="white"/>
    <circle cx="80.8253" cy="36.9141" r="1.5" fill="white"/>
    <circle cx="77.1349" cy="40.1865" r="1.30174" fill="white"/>
    <circle cx="52.8253" cy="65.5" r="1.5" fill="white"/>
    <circle cx="54.8253" cy="51.5" r="1.5" fill="white"/>
    <circle cx="60.3253" cy="40" r="2" fill="white"/>
    <path d="M64.982 31.5088C65.427 31.5088 65.7938 31.8438 65.844 32.2754L65.8498 32.3766V73.1643C65.8498 73.3497 65.7905 73.5292 65.682 73.6772L65.6111 73.762L59.9415 79.73C59.6114 80.0775 59.0621 80.0916 58.7146 79.7615C58.3938 79.4568 58.3572 78.9653 58.6131 78.6182L58.6831 78.5346L64.1142 72.8172V32.3766C64.1142 31.9316 64.4492 31.5648 64.8808 31.5146L64.982 31.5088Z" fill="white"/>
    <path d="M80.8253 36C81.0785 36 81.2877 36.215 81.3208 36.4939L81.3253 36.5714V43.4286C81.3253 43.7442 81.1015 44 80.8253 44C80.5722 44 80.363 43.785 80.3299 43.5061L80.3253 43.4286V36.5714C80.3253 36.2558 80.5492 36 80.8253 36Z" fill="white"/>
    <path d="M76.6722 39.7268C76.9033 39.4957 77.2649 39.4747 77.5197 39.6637L77.5927 39.7268L81.064 43.1981C81.3182 43.4522 81.3182 43.8643 81.064 44.1185C80.8329 44.3496 80.4713 44.3706 80.2165 44.1815L80.1435 44.1185L76.6722 40.6472C76.4181 40.3931 76.4181 39.9809 76.6722 39.7268Z" fill="white"/>
    <path d="M52.4255 38.8584L60.2359 46.6688L59.3154 47.5893L51.505 39.7789L52.4255 38.8584Z" fill="white"/>
    <path d="M50.5558 54.579C50.7371 54.3071 51.0875 54.2155 51.3745 54.351L51.4584 54.3984L69.6827 66.548C69.9818 66.7474 70.0626 67.1515 69.8632 67.4506C69.682 67.7225 69.3315 67.814 69.0446 67.6786L68.9606 67.6311L50.7363 55.4816C50.4372 55.2822 50.3564 54.8781 50.5558 54.579Z" fill="white"/>
    <path d="M60.3253 41C60.8316 41 61.25 41.2521 61.3162 41.5793L61.3253 41.6702V61.3298C61.3253 61.6999 60.8776 62 60.3253 62C59.8191 62 59.4007 61.7479 59.3345 61.4207L59.3253 61.3298V41.6702C59.3253 41.3001 59.7731 41 60.3253 41Z" fill="white"/>
    <path d="M69.3253 45C69.8382 45 70.2609 45.3539 70.3186 45.8098L70.3253 45.9167V66.0833C70.3253 66.5896 69.8776 67 69.3253 67C68.8125 67 68.3898 66.6461 68.3321 66.1902L68.3253 66.0833V45.9167C68.3253 45.4104 68.7731 45 69.3253 45Z" fill="white"/>
    <path d="M69.3075 58.9014C69.8112 58.9014 70.2263 59.2364 70.283 59.668L70.2896 59.7692V78.8613C70.2896 79.3406 69.8499 79.7291 69.3075 79.7291C68.8038 79.7291 68.3887 79.3941 68.332 78.9625L68.3253 78.8613V59.7692C68.3253 59.2899 68.7651 58.9014 69.3075 58.9014Z" fill="white"/>
    <path d="M54.8253 51C55.0785 51 55.2877 51.2848 55.3208 51.6543L55.3253 51.757V57.2429C55.3253 57.6611 55.1015 58 54.8253 58C54.5722 58 54.363 57.7152 54.3299 57.3457L54.3253 57.2429V51.757C54.3253 51.3389 54.5492 51 54.8253 51Z" fill="white"/>
    <path d="M52.8253 61C53.0785 61 53.2877 61.2868 53.3208 61.659L53.3253 61.7624V64.2376C53.3253 64.6587 53.1015 65 52.8253 65C52.5722 65 52.363 64.7132 52.3299 64.341L52.3253 64.2376V61.7624C52.3253 61.3413 52.5492 61 52.8253 61Z" fill="white"/>
    <path d="M60.6963 61C61.0437 61 61.3253 61.2239 61.3253 61.5C61.3253 61.7531 61.0887 61.9623 60.7817 61.9954L60.6963 62H48.9544C48.607 62 48.3253 61.7761 48.3253 61.5C48.3253 61.2469 48.562 61.0377 48.869 61.0046L48.9544 61H60.6963Z" fill="white"/>
    <path d="M84.4486 38.8953C84.6825 38.6223 85.0934 38.5907 85.3663 38.8247C85.6145 39.0373 85.6631 39.3963 85.4942 39.6648L85.4369 39.7424L69.8161 57.9667C69.5822 58.2397 69.1713 58.2713 68.8984 58.0373C68.6502 57.8247 68.6016 57.4657 68.7705 57.1972L68.8278 57.1196L84.4486 38.8953Z" fill="white"/>
    <path d="M74.0973 36.9336C74.4268 36.9336 74.6991 37.1785 74.7422 37.4961L74.7482 37.5845V72.7756L80.3357 78.6861C80.5602 78.9235 80.5711 79.2856 80.3749 79.535L80.3099 79.6062C80.0724 79.8307 79.7104 79.8415 79.461 79.6454L79.3898 79.5803L73.6243 73.4819C73.5329 73.3852 73.4739 73.2634 73.454 73.1335L73.4464 73.0347V37.5845C73.4464 37.225 73.7378 36.9336 74.0973 36.9336Z" fill="white"/>
    <circle cx="51.9656" cy="39.32" r="2.16956" fill="#EE9700"/>
    <circle cx="69.3253" cy="44.3555" r="2" fill="#EE9700"/>
    <circle cx="85.3794" cy="38.886" r="1.73565" fill="#EE9700"/>
    <circle cx="48.9288" cy="53.6035" r="2.60347" fill="#EE9700"/>
    <circle cx="74.0968" cy="35.414" r="2.60347" fill="#EE9700"/>
    <defs>
        <filter id="filter0_d" x="21.3253" y="9" width="89" height="89" filterUnits="userSpaceOnUse" color-interpolation-filters="sRGB">
            <feFlood flood-opacity="0" result="BackgroundImageFix"/>
            <feColorMatrix in="SourceAlpha" type="matrix" values="0 0 0 0 0 0 0 0 0 0 0 0 0 0 0 0 0 0 127 0" result="hardAlpha"/>
            <feOffset/>
            <feGaussianBlur stdDeviation="1"/>
            <feColorMatrix type="matrix" values="0 0 0 0 0 0 0 0 0 0 0 0 0 0 0 0 0 0 0.6 0"/>
            <feBlend mode="normal" in2="BackgroundImageFix" result="effect1_dropShadow"/>
            <feBlend mode="normal" in="SourceGraphic" in2="effect1_dropShadow" result="shape"/>
        </filter>
    </defs>
</svg>
