<?xml version="1.0" encoding="UTF-8"?>
<svg width="108px" height="108px" viewBox="0 0 108 108" version="1.1" xmlns="http://www.w3.org/2000/svg" xmlns:xlink="http://www.w3.org/1999/xlink">
    <!-- Generator: Sketch 63.1 (92452) - https://sketch.com -->
    <title>Group</title>
    <desc>Created with Sketch.</desc>
    <defs>
        <filter x="-3.9%" y="-3.9%" width="107.8%" height="107.8%" filterUnits="objectBoundingBox" id="filter-1">
            <feOffset dx="0" dy="0" in="SourceAlpha" result="shadowOffsetOuter1"></feOffset>
            <feGaussianBlur stdDeviation="1" in="shadowOffsetOuter1" result="shadowBlurOuter1"></feGaussianBlur>
            <feColorMatrix values="0 0 0 0 0   0 0 0 0 0   0 0 0 0 0  0 0 0 0.6 0" type="matrix" in="shadowBlurOuter1" result="shadowMatrixOuter1"></feColorMatrix>
            <feMerge>
                <feMergeNode in="shadowMatrixOuter1"></feMergeNode>
                <feMergeNode in="SourceGraphic"></feMergeNode>
            </feMerge>
        </filter>
    </defs>
    <g id="Page-1" stroke="none" stroke-width="1" fill="none" fill-rule="evenodd">
        <g id="Artboard" transform="translate(-316.000000, -176.000000)">
            <g id="Group" transform="translate(316.000000, 176.000000)">
                <path d="M53.75,107.5 C24.0646947,107.5 0,83.4353053 0,53.75 C0,24.0646947 24.0646947,0 53.75,0 C83.4353053,0 107.5,24.0646947 107.5,53.75 C107.5,83.4353053 83.4353053,107.5 53.75,107.5 Z M53.75,105 C82.0545934,105 105,82.0545934 105,53.75 C105,25.4454066 82.0545934,2.5 53.75,2.5 C25.4454066,2.5 2.5,25.4454066 2.5,53.75 C2.5,82.0545934 25.4454066,105 53.75,105 Z" id="Oval-Copy-6" fill="#1B799F" fill-rule="nonzero"></path>
                <circle id="Oval-Copy-7" fill="#1B799F" cx="53.5" cy="53.5" r="42.5"></circle>
                <g id="Group-69-Copy-2" transform="translate(14.545942, 91.545942) rotate(-315.000000) translate(-14.545942, -91.545942) translate(9.545942, 83.045942)">
                    <rect id="Rectangle-Copy-8" fill="#E5E4E2" transform="translate(5.000000, 8.500000) rotate(-90.000000) translate(-5.000000, -8.500000) " x="-3.5" y="3.5" width="17" height="10"></rect>
                    <path d="M10,0 L10,17 L5,17 L5,0 L10,0 Z" id="Combined-Shape" fill="#CED0D0"></path>
                </g>
                <path d="M47.254834,25.754834 C70.7269359,25.754834 89.754834,44.7827321 89.754834,68.254834 C89.754834,91.7269359 70.7269359,110.754834 47.254834,110.754834 C47.0876538,110.754834 46.920699,110.753869 46.753975,110.751943 L46.754834,25.758834 Z" id="Combined-Shape-Copy-2" fill="#104B61" opacity="0.391011327" transform="translate(68.254834, 68.254834) rotate(-315.000000) translate(-68.254834, -68.254834) "></path>
                <g id="Group-70-Copy-2" filter="url(#filter-1)" transform="translate(11.000000, 11.000000)" fill-rule="nonzero">
                    <path d="M42.5,80 C63.2106781,80 80,63.2106781 80,42.5 C80,21.7893219 63.2106781,5 42.5,5 C21.7893219,5 5,21.7893219 5,42.5 C5,63.2106781 21.7893219,80 42.5,80 Z M42.5,85 C19.0278981,85 0,65.9721019 0,42.5 C0,19.0278981 19.0278981,0 42.5,0 C65.9721019,0 85,19.0278981 85,42.5 C85,65.9721019 65.9721019,85 42.5,85 Z" id="Oval" fill="#E5E4E2"></path>
                    <path d="M36.254834,14.754834 C59.7269359,14.754834 78.754834,33.7827321 78.754834,57.254834 C78.754834,80.7269359 59.7269359,99.754834 36.254834,99.754834 L35.754834,99.750834 L35.754541,94.751565 C35.9210458,94.7537421 36.0878124,94.754834 36.254834,94.754834 C56.9655121,94.754834 73.754834,77.9655121 73.754834,57.254834 C73.754834,36.5441559 56.9655121,19.754834 36.254834,19.754834 L35.754834,19.758834 L35.753975,14.7577246 C35.920699,14.7557993 36.0876538,14.754834 36.254834,14.754834 Z" id="Combined-Shape" fill="#CED0D0" transform="translate(57.254834, 57.254834) rotate(-315.000000) translate(-57.254834, -57.254834) "></path>
                </g>
                <path d="M38.0732759,70 C36.9281897,70 36,69.0712766 36,67.9255319 L36,40 L73,40 L73,67.9255319 C73,69.0712766 72.0718103,70 70.9267241,70 L38.0732759,70 Z" id="Path-Copy" fill="#E7ECED" fill-rule="nonzero"></path>
                <path d="M73,41 L36,41 L36,35.8958333 C36,34.84875 36.9281897,34 38.0732759,34 L70.9267241,34 C72.0718103,34 73,34.84875 73,35.8958333 L73,41 Z" id="Path-Copy-2" fill="#556080" fill-rule="nonzero"></path>
                <polygon id="Path-Copy-3" fill="#C3CCD8" fill-rule="nonzero" points="39 58 70 58 70 67 39 67"></polygon>
                <path d="M70.15,71 L37.85,71 C36.2787396,71 35,69.7212604 35,68.15 L35,35.85 C35,34.2787396 36.2787396,33 37.85,33 L70.15,33 C71.7212604,33 73,34.2787396 73,35.85 L73,68.15 C73,69.7212604 71.7212604,71 70.15,71 Z M37.85,34.2666667 C36.9771875,34.2666667 36.2666667,34.9765937 36.2666667,35.85 L36.2666667,68.15 C36.2666667,69.0234062 36.9771875,69.7333333 37.85,69.7333333 L70.15,69.7333333 C71.0234062,69.7333333 71.7333333,69.0234062 71.7333333,68.15 L71.7333333,35.85 C71.7333333,34.9765937 71.0228125,34.2666667 70.15,34.2666667 L37.85,34.2666667 Z" id="Shape-Copy-2" fill="#FFFFFF" fill-rule="nonzero"></path>
                <path d="M72.3666667,41.8666667 L35.6333333,41.8666667 C35.2838125,41.8666667 35,41.5836458 35,41.2333333 L35,35.85 C35,34.2787396 36.2787396,33 37.85,33 L70.15,33 C71.7212604,33 73,34.2787396 73,35.85 L73,41.2333333 C73,41.5836458 72.7161875,41.8666667 72.3666667,41.8666667 Z M36.2666667,40.6 L71.7333333,40.6 L71.7333333,35.85 C71.7333333,34.9765937 71.0228125,34.2666667 70.15,34.2666667 L37.85,34.2666667 C36.9771875,34.2666667 36.2666667,34.9765937 36.2666667,35.85 L36.2666667,40.6 Z" id="Shape-Copy-3" fill="#FFFFFF" fill-rule="nonzero"></path>
                <path d="M54,52 C53.6504792,52 53.3666667,51.7169792 53.3666667,51.3666667 L53.3666667,47.5666667 C53.3666667,47.2163542 53.6504792,46.9333333 54,46.9333333 C54.3495208,46.9333333 54.6333333,47.2163542 54.6333333,47.5666667 L54.6333333,51.3666667 C54.6333333,51.7169792 54.3495208,52 54,52 Z" id="Path-Copy-4" fill="#7B7982" fill-rule="nonzero"></path>
                <path d="M55.9,50.1 L52.1,50.1 C51.7504792,50.1 51.4666667,49.8169792 51.4666667,49.4666667 C51.4666667,49.1163542 51.7504792,48.8333333 52.1,48.8333333 L55.9,48.8333333 C56.2495208,48.8333333 56.5333333,49.1163542 56.5333333,49.4666667 C56.5333333,49.8169792 56.2495208,50.1 55.9,50.1 Z" id="Path-Copy-5" fill="#7B7982" fill-rule="nonzero"></path>
                <path d="M69.2,67.8333333 L38.8,67.8333333 C38.4504792,67.8333333 38.1666667,67.5503125 38.1666667,67.2 L38.1666667,57.7 C38.1666667,57.3496875 38.4504792,57.0666667 38.8,57.0666667 L69.2,57.0666667 C69.5495208,57.0666667 69.8333333,57.3496875 69.8333333,57.7 L69.8333333,67.2 C69.8333333,67.5503125 69.5495208,67.8333333 69.2,67.8333333 Z M39.4333333,66.5666667 L68.5666667,66.5666667 L68.5666667,58.3333333 L39.4333333,58.3333333 L39.4333333,66.5666667 Z" id="Shape-Copy-4" fill="#7B7982" fill-rule="nonzero"></path>
                <path d="M69.2,54.7666667 L38.8,54.7666667 C38.4504792,54.7666667 38.1666667,54.4836458 38.1666667,54.1333333 L38.1666667,44.6333333 C38.1666667,44.2830208 38.4504792,44 38.8,44 L69.2,44 C69.5495208,44 69.8333333,44.2830208 69.8333333,44.6333333 L69.8333333,54.1333333 C69.8333333,54.4836458 69.5495208,54.7666667 69.2,54.7666667 Z M39.4333333,53.5 L68.5666667,53.5 L68.5666667,45.2666667 L39.4333333,45.2666667 L39.4333333,53.5 Z" id="Shape-Copy-5" fill="#7B7982" fill-rule="nonzero"></path>
                <g id="Group-4-Copy-2" transform="translate(55.000000, 54.000000)">
                    <g id="Group-2" fill-rule="nonzero">
                        <polygon id="Path" fill="#3F434B" points="20.7244609 8.34461719 19.9654609 6.06907813 21.1036172 3.79276563 19.2072344 1.89638281 16.5517656 3.03453906 14.2755391 2.27553906 13.1381563 0 12 0 10.8618438 0 9.72446094 2.27553906 7.44823437 3.03453906 4.79276562 1.89638281 2.89638281 3.79276563 4.03453906 6.06907813 3.27553906 8.34461719 1 9.48277344 1 11 1 12.5172266 3.27553906 13.6553828 4.03453906 15.9309219 2.89638281 18.2072344 4.79276562 20.1036172 7.44823437 18.9654609 9.72446094 19.7244609 10.8618438 22 12 22 13.1381563 22 14.2755391 19.7244609 16.5517656 18.9654609 19.2072344 20.1036172 21.1036172 18.2072344 19.9654609 15.9309219 20.7244609 13.6553828 23 12.5172266 23 11 23 9.48277344"></polygon>
                        <path d="M12.6155714,23 L10.3845971,23 C10.1122004,23 9.86347207,22.8461989 9.74133997,22.6025261 L8.75948217,20.6389091 L7.06967938,20.0760949 L4.71859447,21.0830456 C4.44906158,21.1987754 4.13497153,21.1383836 3.92726274,20.9306764 L2.06858074,19.072008 C1.85009064,18.8527614 1.795426,18.5185431 1.93347738,18.2426108 L2.91600901,16.2782357 L2.36043433,14.6128716 L0.396044898,13.631021 C0.153802208,13.5081317 0,13.2594052 0,12.9870105 L0,10.0121472 C0,9.73975251 0.153802208,9.49102601 0.397476791,9.36889481 L2.36186622,8.38704421 L2.9174409,6.72168003 L1.93490927,4.75730498 C1.79694212,4.48061465 1.8508487,4.14639631 2.07001263,3.9279078 L3.92869463,2.06923942 C4.13640342,1.8607741 4.45049347,1.80046655 4.72002637,1.91687022 L7.07111127,2.92457895 L8.76015601,2.36109087 L9.74201381,0.396715824 C9.86347207,0.153801082 10.1122004,0 10.3845971,0 L12.6155714,0 C12.8879681,0 13.1373702,0.153801082 13.2588285,0.39747388 L14.2399282,2.36184892 L15.929731,2.92533701 L18.2814898,1.91762827 C18.5510227,1.80122461 18.8651127,1.86153215 19.0728215,2.06999747 L20.9315035,3.92866586 C21.1507517,4.14715436 21.2046582,4.4813727 21.0666069,4.75806304 L20.0847491,6.72243808 L20.6396499,8.38780226 L22.6032813,9.36965287 C22.8461978,9.4918683 23,9.74051057 23,10.0129053 L23,12.9877686 C23,13.2601633 22.8461978,13.5088898 22.6025232,13.631021 L20.6388918,14.6128716 L20.083991,16.2782357 L21.0658488,18.2426108 C21.2038159,18.5193011 21.1499094,18.8535195 20.9307454,19.072008 L19.0720634,20.9306764 C18.8643546,21.1383836 18.5502646,21.1987754 18.2807317,21.0830456 L15.9296468,20.0760949 L14.2391702,20.6389091 L13.2580704,22.6025261 C13.1366122,22.8461989 12.8879681,23 12.6155714,23 Z M10.8287367,21.5625579 L12.1706736,21.5625579 L13.0863274,19.7297476 C13.1711461,19.5594378 13.3206526,19.4293049 13.501745,19.3696712 L15.7327193,18.6257658 C15.8994928,18.5689959 16.0820171,18.5783452 16.243063,18.6465703 L18.3985681,19.5701348 L19.5471152,18.4215962 L18.6638053,16.6534733 C18.5789867,16.4831635 18.5645835,16.2854794 18.6249757,16.1043883 L19.3688865,13.8741042 C19.4292787,13.6930131 19.5586545,13.5441815 19.7289656,13.4586896 L21.5625474,12.5430425 L21.5625474,10.4572101 L19.7297237,9.540805 C19.5594126,9.45531316 19.4300368,9.30648156 19.3696446,9.12539047 L18.6257338,6.89510633 C18.5653416,6.71468907 18.5797447,6.51700498 18.6645634,6.34602131 L19.5478732,4.57865652 L18.4,3.43011788 L16.2444949,4.35368243 C16.0835332,4.42342356 15.9009247,4.43058297 15.7341512,4.3752449 L13.5031769,3.63133956 C13.3220845,3.57094779 13.172578,3.44089912 13.0877593,3.2712631 L12.1713475,1.43769478 L10.8294106,1.43769478 L9.91299874,3.27050504 C9.82750627,3.44081489 9.67799974,3.57018973 9.49758116,3.63058151 L7.26660685,4.37448685 C7.09915954,4.42982491 6.91730907,4.4226655 6.75626316,4.35292437 L4.6,3.43003365 L3.45145295,4.57789846 L4.33552085,6.34526325 C4.42101331,6.5155731 4.43474264,6.71325719 4.37435043,6.89434827 L3.63043964,9.12463242 C3.57004742,9.3057235 3.44067163,9.45455511 3.27036054,9.54004695 L1.43753685,10.4572101 L1.43753685,12.5430425 L3.27036054,13.4594477 C3.44067163,13.5449395 3.57004742,13.6937711 3.63043964,13.8748622 L4.37435043,16.1051464 C4.43474264,16.2862374 4.42033948,16.4832477 4.33552085,16.6542314 L3.45145295,18.4223542 L4.6,19.5708929 L6.7555051,18.6473283 C6.91722484,18.5775872 7.09907531,18.5696697 7.26584879,18.6265239 L9.4968231,19.3704292 C9.67724168,19.430063 9.82674821,19.5601958 9.91224068,19.7305057 L10.8287367,21.5625579 Z" id="Shape" fill="#FFFFFF"></path>
                    </g>
                    <circle id="Oval" stroke="#FFFFFF" stroke-width="2" cx="11.5" cy="11.5" r="3.5"></circle>
                </g>
            </g>
        </g>
    </g>
</svg>