<?xml version="1.0" encoding="utf-8"?>
<!-- Generator: Adobe Illustrator 23.0.4, SVG Export Plug-In . SVG Version: 6.00 Build 0)  -->
<svg version="1.1" id="Layer_1" xmlns="http://www.w3.org/2000/svg" xmlns:xlink="http://www.w3.org/1999/xlink" x="0px" y="0px"
	 viewBox="0 0 110 110" enable-background="new 0 0 110 110" xml:space="preserve">
<g>
	<g>
		<defs>
			<ellipse id="SVGID_296_" cx="55.6" cy="55.2" rx="39.1" ry="37.6"/>
		</defs>
		<use xlink:href="#SVGID_296_"  overflow="visible" fill="#67696B"/>
		<clipPath id="SVGID_23_">
			<use xlink:href="#SVGID_296_"  overflow="visible"/>
		</clipPath>
		<use xlink:href="#SVGID_296_"  overflow="visible" fill="none" stroke="#A3A6A7" stroke-width="5.1083" stroke-miterlimit="10"/>
	</g>
</g>
<g>
	<defs>
		<path id="SVGID_298_" d="M54.6,91.9c-21-0.5-37.7-17.3-37.2-37.5s18-36.2,39-35.7C77.4,19.2,94,36,93.6,56.2
			C93.1,76.4,75.6,92.4,54.6,91.9z M56.3,20.7c-19.9-0.4-36.4,14.7-36.9,33.8c-0.5,19.1,15.3,35,35.2,35.4
			C74.5,90.4,91,75.2,91.5,56.1C91.9,37.1,76.2,21.2,56.3,20.7z"/>
	</defs>
	<use xlink:href="#SVGID_298_"  overflow="visible" fill="#7C7F80"/>
	<clipPath id="SVGID_25_">
		<use xlink:href="#SVGID_298_"  overflow="visible"/>
	</clipPath>
	<path opacity="0.5" clip-path="url(#SVGID_25_)" fill="#7C7F80" d="M22.8,89.7c-19.5-17.3-22-47.5-4.1-66.3s49.6-18.9,69.1-1.6
		C89.1,22.9,24,90.8,22.8,89.7z"/>
</g>
<g>
	<defs>
		<path id="SVGID_300_" d="M54,94.7c-23-0.5-41.3-18.9-40.7-41C13.8,31.6,33,14.1,56,14.6c23,0.5,41.3,18.9,40.7,41S77,95.2,54,94.7
			z M55.9,19.6C35.7,19.1,19,34.5,18.5,53.8C18,73.1,34,89.2,54.1,89.7C74.3,90.1,91,74.8,91.5,55.4C92,36.1,76,20,55.9,19.6z"/>
	</defs>
	<use xlink:href="#SVGID_300_"  overflow="visible" fill="#CED0D0"/>
	<clipPath id="SVGID_27_">
		<use xlink:href="#SVGID_300_"  overflow="visible"/>
	</clipPath>
	<path clip-path="url(#SVGID_27_)" fill="#E5E4E2" d="M20,87.7C0.2,70.2-2.3,39.6,15.9,20.6s50.2-19.1,70-1.7
		C87.1,20,21.2,88.8,20,87.7z"/>
</g>
<ellipse fill="#74C4B9" cx="55.2" cy="55.2" rx="35.8" ry="34.4"/>
<g>
	<defs>
		<ellipse id="SVGID_302_" cx="55" cy="54.6" rx="35.8" ry="34.4"/>
	</defs>
	<clipPath id="SVGID_30_">
		<use xlink:href="#SVGID_302_"  overflow="visible"/>
	</clipPath>
</g>
<ellipse transform="matrix(0.7071 -0.7071 0.7071 0.7071 -22.7817 55)" fill="none" stroke="#74C4B9" stroke-width="2.276" stroke-miterlimit="10" cx="55" cy="55" rx="52.3" ry="52.3"/>
<g>
	<defs>
		<path id="SVGID_304_" d="M8.8,93.6c0,0,1.6,2,3.2,3.6s3.5,3.4,3.5,3.4l11.6-10.7c0,0-3.8-3-6.7-7L8.8,93.6z"/>
	</defs>
	<clipPath id="SVGID_31_">
		<use xlink:href="#SVGID_304_"  overflow="visible"/>
	</clipPath>
	<polygon clip-path="url(#SVGID_31_)" fill="#D9D9D9" points="10.8,96 8.4,93.4 20,82.4 22.5,85 	"/>
	<polygon clip-path="url(#SVGID_31_)" fill="#C6C5C6" points="13.3,98.5 10.8,96 22.5,85 24.9,87.5 	"/>
	<polygon clip-path="url(#SVGID_31_)" fill="#B1B1B1" points="15.7,101.1 13.3,98.5 24.9,87.5 27.4,90.1 	"/>
</g>
<g>
	<path fill="#FF4E4E" d="M36.9,71.1c-3.8-4.3-6.1-9.9-6.1-16c0-9.5,5.4-17.7,13.4-21.6L55,55.1L36.9,71.1z"/>
	<path fill="#FFFFFF" d="M55,31c13.4,0,24.2,10.8,24.2,24.2S68.4,79.3,55,79.3S30.8,68.5,30.8,55.2S41.6,31,55,31z M56.1,33.5v6.4
		c7.6,0.5,13.7,6.6,14.3,14.3h6.4C76.1,43,67.2,34,56.1,33.5z M56.1,41.8v7.4c2.5,0.4,4.5,2.4,4.9,4.9h7.4
		C67.8,47.6,62.6,42.3,56.1,41.8z M56.1,51.1v3h3C58.7,52.7,57.5,51.5,56.1,51.1z M76.7,56.2h-6.4c-0.5,7.6-6.6,13.7-14.3,14.3v6.4
		C67.2,76.3,76.1,67.3,76.7,56.2z M68.3,56.2h-7.4c-0.4,2.5-2.4,4.5-4.9,4.9v7.4C62.6,68,67.8,62.7,68.3,56.2z M59,56.2h-3v3
		C57.5,58.8,58.7,57.7,59,56.2z M54,76.8v-6.4c-7.6-0.5-13.7-6.6-14.3-14.3h-6.4C33.9,67.3,42.8,76.3,54,76.8z M54,68.5v-7.4
		c-2.5-0.4-4.5-2.4-4.9-4.9h-7.4C42.2,62.7,47.4,68,54,68.5z M54,59.2v-3h-3C51.4,57.7,52.5,58.8,54,59.2z M33.3,54.1h6.4
		c0.5-7.6,6.6-13.7,14.3-14.3v-6.4C42.8,34,33.9,43,33.3,54.1z M41.7,54.1h7.4c0.4-2.5,2.4-4.5,4.9-4.9v-7.4
		C47.4,42.3,42.2,47.6,41.7,54.1z M51,54.1h3v-3C52.5,51.5,51.4,52.7,51,54.1z"/>
	<circle fill="#FF4E4E" cx="65.3" cy="65.2" r="2.7"/>
	<path fill="#DFE5E6" d="M61.3,61.2h2.6v0.6h-2v2h-0.6L61.3,61.2L61.3,61.2z M66.8,61.2h2.6v2.6h-0.6v-2h-2V61.2z M69.4,66.7v2.6
		h-2.6v-0.6h2v-2L69.4,66.7L69.4,66.7z M63.9,69.3h-2.6v-2.6h0.6v2h2V69.3z"/>
	<circle fill="#FF4E4E" cx="62.6" cy="42.6" r="2.7"/>
	<path fill="#DFE5E6" d="M58.6,38.6h2.6v0.6h-2v2h-0.6L58.6,38.6L58.6,38.6z M64.1,38.6h2.6v2.6h-0.6v-2h-2V38.6z M66.6,44.1v2.6
		h-2.6v-0.6h2v-2L66.6,44.1L66.6,44.1z M61.1,46.6h-2.6v-2.6h0.6v2h2L61.1,46.6L61.1,46.6L61.1,46.6z"/>
</g>
<g>
	<defs>
		<path id="SVGID_548_" d="M191.2,35h40c5.5,0,10,4.5,10,10v40c0,5.5-4.5,10-10,10h-40c-5.5,0-10-4.5-10-10V45
			C181.2,39.5,185.7,35,191.2,35z"/>
	</defs>
	<clipPath id="SVGID_33_">
		<use xlink:href="#SVGID_548_"  overflow="visible"/>
	</clipPath>
	<g clip-path="url(#SVGID_33_)">
		<defs>
			<rect id="SVGID_550_" x="44.2" y="-156" width="428" height="647"/>
		</defs>
		<clipPath id="SVGID_35_">
			<use xlink:href="#SVGID_550_"  overflow="visible"/>
		</clipPath>
	</g>
</g>
<path opacity="0.5" fill="#FFFFFF" d="M80.2,30.5c0.9,0.8-46.9,51.2-47.9,50.5c-17.9-11.9-17.9-34.2-4-49
	C43.5,15.8,70.7,15.4,80.2,30.5"/>
</svg>
