<svg xmlns="http://www.w3.org/2000/svg" xmlns:xlink="http://www.w3.org/1999/xlink" viewBox="0 0 120 120"><defs><style>.cls-1,.cls-9{fill:#7c7f80;}.cls-2{fill:#ced0d0;}.cls-13,.cls-3,.cls-6{fill:none;}.cls-4{isolation:isolate;}.cls-5{fill:#67696b;}.cls-6{stroke:#a3a6a7;stroke-width:5.11px;}.cls-13,.cls-19,.cls-6{stroke-miterlimit:10;}.cls-7{mix-blend-mode:multiply;}.cls-8{clip-path:url(#clip-path);}.cls-9{opacity:0.5;}.cls-18,.cls-9{mix-blend-mode:soft-light;}.cls-10{clip-path:url(#clip-path-2);}.cls-11{fill:#e5e4e2;}.cls-12{fill:#00b998;}.cls-13{stroke:#00b998;stroke-width:2.28px;}.cls-14{clip-path:url(#clip-path-3);}.cls-15{fill:#d9d9d9;}.cls-16{fill:#c6c5c6;}.cls-17{fill:#b1b1b1;}.cls-18,.cls-19{fill:#fff;}.cls-18{opacity:0.3;}.cls-19{stroke:#fff;stroke-width:0.5px;}</style><clipPath id="clip-path"><path class="cls-1" d="M59.5,101.57C35.84,101,17.05,82.12,17.61,59.4s20.25-40.76,43.9-40.22S104,38.63,103.4,61.34,83.15,102.1,59.5,101.57Zm2-80.15c-22.37-.51-41,16.56-41.52,38S37.19,98.82,59.55,99.33s41-16.56,41.52-38S83.83,21.93,61.46,21.42Z"/></clipPath><clipPath id="clip-path-2"><path class="cls-2" d="M58.9,104.65C33,104.07,12.46,83.37,13.07,58.51s22.16-44.6,48-44,46.44,21.28,45.83,46.14S84.78,105.24,58.9,104.65ZM61,20.13c-22.65-.51-41.5,16.76-42,38.51S36.39,98.51,59,99s41.5-16.76,42-38.51S83.61,20.65,61,20.13Z"/></clipPath><clipPath id="clip-path-3"><path class="cls-3" d="M8,103.45s1.84,2.23,3.59,4.07,3.92,3.86,3.92,3.86L28.64,99.29a42.64,42.64,0,0,1-7.51-7.93Z"/></clipPath></defs><title>icn_webcheck_novo</title><g class="cls-4"><g id="Layer_1" data-name="Layer 1"><path class="cls-5" d="M16.71,59.28c.57-23.34,20.74-41.81,45-41.26s43.54,19.92,43,43.25-20.74,41.81-45,41.26S16.14,82.62,16.71,59.28Z"/><path class="cls-6" d="M16.71,59.28c.57-23.34,20.74-41.81,45-41.26s43.54,19.92,43,43.25-20.74,41.81-45,41.26S16.14,82.62,16.71,59.28Z"/><g class="cls-7"><path class="cls-1" d="M59.5,101.57C35.84,101,17.05,82.12,17.61,59.4s20.25-40.76,43.9-40.22S104,38.63,103.4,61.34,83.15,102.1,59.5,101.57Zm2-80.15c-22.37-.51-41,16.56-41.52,38S37.19,98.82,59.55,99.33s41-16.56,41.52-38S83.83,21.93,61.46,21.42Z"/><g class="cls-8"><path class="cls-9" d="M23.79,99.1C1.79,79.67-1,45.59,19.21,24.47S75,3.19,97,22.61C98.39,23.83,25.16,100.31,23.79,99.1Z"/></g></g><path class="cls-2" d="M58.9,104.65C33,104.07,12.46,83.37,13.07,58.51s22.16-44.6,48-44,46.44,21.28,45.83,46.14S84.78,105.24,58.9,104.65ZM61,20.13c-22.65-.51-41.5,16.76-42,38.51S36.39,98.51,59,99s41.5-16.76,42-38.51S83.61,20.65,61,20.13Z"/><g class="cls-10"><path class="cls-11" d="M20.59,96.79C-1.68,77.13-4.52,42.62,16,21.24S72.48-.31,94.74,19.36C96.13,20.59,22,98,20.59,96.79Z"/></g><ellipse class="cls-12" cx="60.26" cy="60.27" rx="40.29" ry="38.69"/><path class="cls-13" d="M1.15,58.66a58.86,58.86,0,1,1,57.47,60.19A58.9,58.9,0,0,1,1.15,58.66Z"/><g class="cls-14"><polygon class="cls-15" points="10.28 106.13 7.51 103.27 20.64 90.89 23.4 93.75 10.28 106.13"/><polygon class="cls-16" points="13.04 108.99 10.28 106.13 23.4 93.75 26.16 96.61 13.04 108.99"/><polygon class="cls-17" points="15.8 111.85 13.04 108.99 26.16 96.61 28.93 99.47 15.8 111.85"/></g><path class="cls-18" d="M88.41,32.42c1.07.94-53.33,57.7-54.48,56.87-18.53-13.3-19.59-40.23-4-55.13C48,16.87,73.17,18,88.41,32.42"/><path class="cls-19" d="M83.06,43.44a3.62,3.62,0,0,0-5.07.73L56.7,72.55,42.82,60.31A3.62,3.62,0,1,0,38,65.75L54.85,80.58a3.63,3.63,0,0,0,2.27.9,3.85,3.85,0,0,0,.5,0A3.64,3.64,0,0,0,60.15,80L83.78,48.52A3.63,3.63,0,0,0,83.06,43.44Z"/></g></g></svg>